<svg width="230" height="60" viewBox="0 0 230 60" fill="none" xmlns="http://www.w3.org/2000/svg">
<path d="M184.5 8.69427H43.5C41.2909 8.69427 39.5 10.4851 39.5 12.6943V41.7657C39.5 44.6056 41.4911 47.0566 44.2708 47.6384L56.3212 50.1606H185.5C188.261 50.1606 190.5 47.922 190.5 45.1606V14.6943C190.5 11.3806 187.814 8.69427 184.5 8.69427Z" fill="#439CCC"/>
<path d="M111.764 39.1105H114.682C115.021 39.1105 115.334 39.3568 115.438 39.6853C115.568 40.0411 115.49 40.4242 115.23 40.6705L108.559 46.801C108.246 47.0473 107.829 47.0747 107.516 46.8284C107.204 46.6094 107.073 46.1715 107.23 45.7884L109.236 40.8621H106.318C105.979 40.8621 105.666 40.6432 105.562 40.3147C105.432 39.9589 105.51 39.5758 105.77 39.3295L112.441 33.199C112.754 32.9527 113.171 32.9253 113.484 33.1716C113.796 33.3906 113.927 33.8285 113.77 34.2116L111.764 39.1105Z" fill="white"/>
<path d="M119.375 34.75C119.375 33.793 120.141 33 121.125 33H125.5C126.457 33 127.25 33.793 127.25 34.75V40H127.469C128.781 40 129.875 41.0938 129.875 42.4062V43.2812C129.875 43.6641 130.148 43.9375 130.531 43.9375C130.887 43.9375 131.188 43.6641 131.188 43.2812V39.0703C130.422 38.8789 129.875 38.1953 129.875 37.375V35.625L129 34.75C128.754 34.5312 128.754 34.1211 129 33.875C129.219 33.6562 129.629 33.6562 129.875 33.875L131.98 36.0078C132.309 36.3359 132.5 36.7734 132.5 37.2383V43.2812C132.5 44.375 131.598 45.25 130.531 45.25C129.438 45.25 128.562 44.375 128.562 43.2812V42.4062C128.562 41.8047 128.07 41.3125 127.469 41.3125H127.25V45.25C127.715 45.25 128.125 45.6602 128.125 46.125C128.125 46.6172 127.715 47 127.25 47H119.375C118.883 47 118.5 46.6172 118.5 46.125C118.5 45.6602 118.883 45.25 119.375 45.25V34.75ZM121.125 37.8125C121.125 38.0586 121.316 38.25 121.562 38.25H125.062C125.281 38.25 125.5 38.0586 125.5 37.8125V35.1875C125.5 34.9688 125.281 34.75 125.062 34.75H121.562C121.316 34.75 121.125 34.9688 121.125 35.1875V37.8125Z" fill="white"/>
<path d="M57.4949 45.6425C57.4949 41.2242 61.0766 37.6425 65.4949 37.6425H85.4845C89.9028 37.6425 93.4845 41.2242 93.4845 45.6425V50.1606H57.4949V45.6425Z" fill="#1A5270"/>
<path d="M145.904 45.6425C145.904 41.2242 149.486 37.6425 153.904 37.6425H158.246C162.664 37.6425 166.246 41.2242 166.246 45.6425V50.1606H145.904V45.6425Z" fill="#1A5270"/>
<path d="M42.6296 7V8.6943H62.1892L60.1685 6C59.2242 4.74097 57.7423 4 56.1685 4H45.6296C43.9728 4 42.6296 5.34315 42.6296 7Z" fill="#1A5270"/>
<rect x="69.2305" y="6.34717" width="17.9948" height="2.34715" fill="#1A5270"/>
<rect x="136.516" y="6.34717" width="17.9948" height="2.34715" fill="#1A5270"/>
<path d="M170.94 13.3886H190.5V40.7717C184.367 40.7717 176.999 35.6632 172.94 31.8333C171.578 30.5483 170.94 28.7169 170.94 26.8445V13.3886Z" fill="#9FCBE9"/>
<path d="M48.1062 13.3886H163.899V30.601H48.1062V13.3886Z" fill="#1A5270"/>
<path d="M48.1062 13.3886H69.2306V30.601H48.1062V13.3886Z" fill="#9FCBE9"/>
<path d="M70.7954 13.3886H91.9198V30.601H70.7954V13.3886Z" fill="#9FCBE9"/>
<path d="M93.4844 13.3886H114.609V30.601H93.4844V13.3886Z" fill="#9FCBE9"/>
<path d="M116.174 13.3886H137.298V30.601H116.174V13.3886Z" fill="#9FCBE9"/>
<path d="M138.863 13.3886H159.987V30.601H138.863V13.3886Z" fill="#9FCBE9"/>
<path d="M187.37 42.3368H190.5V45.8575C189.248 45.8575 187.892 45.3359 187.37 45.0751V42.3368Z" fill="#FDCC44"/>
<path d="M39.5 33.7306H42.6295V39.9897C42.6295 41.7181 41.2284 43.1192 39.5 43.1192V33.7306Z" fill="#EB674C"/>
<path d="M67.6648 55.6372C72.4179 55.6372 76.271 51.7841 76.271 47.031C76.271 42.2779 72.4179 38.4248 67.6648 38.4248C62.9117 38.4248 59.0586 42.2779 59.0586 47.031C59.0586 51.7841 62.9117 55.6372 67.6648 55.6372Z" fill="#141446"/>
<path d="M67.6632 51.323C70.0339 51.323 71.9556 49.4012 71.9556 47.0306C71.9556 44.66 70.0339 42.7382 67.6632 42.7382C65.2926 42.7382 63.3708 44.66 63.3708 47.0306C63.3708 49.4012 65.2926 51.323 67.6632 51.323Z" fill="#9FCBE9"/>
<path d="M83.3135 55.6373C88.0666 55.6373 91.9197 51.7842 91.9197 47.0311C91.9197 42.278 88.0666 38.4249 83.3135 38.4249C78.5604 38.4249 74.7073 42.278 74.7073 47.0311C74.7073 51.7842 78.5604 55.6373 83.3135 55.6373Z" fill="#141446"/>
<path d="M83.3122 51.3231C85.6828 51.3231 87.6046 49.4013 87.6046 47.0307C87.6046 44.6601 85.6828 42.7383 83.3122 42.7383C80.9415 42.7383 79.0198 44.6601 79.0198 47.0307C79.0198 49.4013 80.9415 51.3231 83.3122 51.3231Z" fill="#9FCBE9"/>
<path d="M156.075 55.6373C160.828 55.6373 164.681 51.7842 164.681 47.0311C164.681 42.278 160.828 38.4249 156.075 38.4249C151.322 38.4249 147.469 42.278 147.469 47.0311C147.469 51.7842 151.322 55.6373 156.075 55.6373Z" fill="#141446"/>
<path d="M156.074 51.3231C158.445 51.3231 160.366 49.4013 160.366 47.0307C160.366 44.6601 158.445 42.7383 156.074 42.7383C153.703 42.7383 151.781 44.6601 151.781 47.0307C151.781 49.4013 153.703 51.3231 156.074 51.3231Z" fill="#9FCBE9"/>
</svg>
