<svg width="230" height="60" viewBox="0 0 230 60" fill="none" xmlns="http://www.w3.org/2000/svg">
<path d="M77.0977 44.0407C77.0977 44.7514 77.38 45.433 77.8826 45.9356C78.3851 46.4381 79.0667 46.7205 79.7775 46.7205H151.31V29.849H77.0977V44.0407Z" fill="#1A5270"/>
<path d="M158.469 36.3326C158.293 34.177 156.792 31.1826 155.307 29.6226C152.736 26.9595 148.148 24.07 139.371 24.07C130.891 24.07 125.561 9.99579 101.837 9.99579C83.8831 9.99579 70.9832 21.2896 70.9832 35.2212C70.9811 36.9055 71.3208 38.5726 71.9819 40.1217C72.6429 41.6709 73.6114 43.0697 74.8288 44.2336C75.137 44.5462 75.5355 44.7543 75.9682 44.8284C76.4008 44.9026 76.8459 44.8391 77.2405 44.6468C77.6352 44.4546 77.9596 44.1433 78.1679 43.757C78.3763 43.3706 78.4581 42.9286 78.4019 42.4932C78.2083 40.9386 78.3722 39.3603 78.8813 37.8787C79.3904 36.3971 80.2311 35.0514 81.3393 33.9441C82.4476 32.8368 83.7941 31.9973 85.2762 31.4896C86.7582 30.9818 88.3366 30.8193 89.8911 31.0143C91.4455 31.2094 92.9348 31.7569 94.2455 32.615C95.5561 33.4732 96.6535 34.6193 97.4538 35.9661C98.2541 37.3128 98.7363 38.8246 98.8636 40.386C98.9908 41.9474 98.7598 43.5173 98.188 44.9759C98.065 45.281 98.0192 45.6119 98.0549 45.9389C98.0906 46.266 98.2065 46.5792 98.3925 46.8507C98.5784 47.1221 98.8286 47.3434 99.1207 47.4948C99.4128 47.6463 99.7378 47.7231 100.067 47.7186H127.968C128.396 47.7208 128.818 47.623 129.202 47.4331C129.585 47.2431 129.919 46.9662 130.176 46.6245C130.434 46.2827 130.608 45.8855 130.684 45.4646C130.761 45.0437 130.738 44.6107 130.618 44.2C130.145 42.6305 130.055 40.9707 130.353 39.359C130.652 37.7472 131.331 36.2301 132.335 34.9341C133.338 33.6381 134.637 32.6007 136.123 31.9083C137.609 31.2159 139.239 30.8886 140.877 30.9537C142.514 31.0187 144.113 31.4742 145.539 32.2822C146.965 33.0902 148.178 34.2273 149.076 35.5988C149.973 36.9703 150.53 38.5365 150.7 40.1669C150.87 41.7972 150.648 43.4446 150.052 44.9717C149.944 45.2447 149.918 45.5433 149.977 45.831C150.036 46.1186 150.178 46.3827 150.385 46.591C150.592 46.7992 150.855 46.9427 151.143 47.0037C151.43 47.0647 151.729 47.0406 152.002 46.9344C154.069 46.0866 155.811 44.601 156.974 42.6939C158.137 40.7869 158.661 38.5581 158.469 36.3326Z" fill="#439CCC"/>
<path d="M108.546 36.3303H110.993C111.278 36.3303 111.54 36.5295 111.627 36.7951C111.737 37.0829 111.671 37.3928 111.452 37.592L105.857 42.5503C105.595 42.7495 105.245 42.7717 104.983 42.5724C104.721 42.3954 104.611 42.0412 104.742 41.7313L106.425 37.7469H103.978C103.693 37.7469 103.431 37.5699 103.344 37.3042C103.234 37.0165 103.3 36.7066 103.519 36.5074L109.114 31.5491C109.376 31.3498 109.726 31.3277 109.988 31.5269C110.25 31.704 110.36 32.0582 110.229 32.3681L108.546 36.3303Z" fill="white"/>
<path d="M114.903 32.3841C114.903 31.61 115.522 30.9687 116.319 30.9687H119.857C120.631 30.9687 121.273 31.61 121.273 32.3841V36.6303H121.449C122.511 36.6303 123.396 37.5149 123.396 38.5764V39.2841C123.396 39.5937 123.617 39.8149 123.926 39.8149C124.214 39.8149 124.457 39.5937 124.457 39.2841V35.8783C123.838 35.7235 123.396 35.1706 123.396 34.5072V33.0918L122.688 32.3841C122.489 32.2072 122.489 31.8754 122.688 31.6764C122.865 31.4995 123.197 31.4995 123.396 31.6764L125.098 33.4014C125.364 33.6668 125.519 34.0206 125.519 34.3966V39.2841C125.519 40.1687 124.789 40.8764 123.926 40.8764C123.042 40.8764 122.334 40.1687 122.334 39.2841V38.5764C122.334 38.0899 121.936 37.6918 121.449 37.6918H121.273V40.8764C121.648 40.8764 121.98 41.2082 121.98 41.5841C121.98 41.9822 121.648 42.2918 121.273 42.2918H114.903C114.505 42.2918 114.196 41.9822 114.196 41.5841C114.196 41.2082 114.505 40.8764 114.903 40.8764V32.3841ZM116.319 34.861C116.319 35.0601 116.473 35.2149 116.672 35.2149H119.503C119.68 35.2149 119.857 35.0601 119.857 34.861V32.7379C119.857 32.561 119.68 32.3841 119.503 32.3841H116.672C116.473 32.3841 116.319 32.561 116.319 32.7379V34.861Z" fill="white"/>
<path d="M88.6263 50.0042C93.4833 50.0042 97.4206 46.0668 97.4206 41.2099C97.4206 36.3529 93.4833 32.4156 88.6263 32.4156C83.7694 32.4156 79.832 36.3529 79.832 41.2099C79.832 46.0668 83.7694 50.0042 88.6263 50.0042Z" fill="#141446"/>
<path d="M88.6262 45.5966C91.0489 45.5966 93.0128 43.6326 93.0128 41.2099C93.0128 38.7872 91.0489 36.8232 88.6262 36.8232C86.2035 36.8232 84.2395 38.7872 84.2395 41.2099C84.2395 43.6326 86.2035 45.5966 88.6262 45.5966Z" fill="#9FCBE9"/>
<path d="M140.465 50.0042C145.322 50.0042 149.259 46.0668 149.259 41.2099C149.259 36.3529 145.322 32.4156 140.465 32.4156C135.608 32.4156 131.671 36.3529 131.671 41.2099C131.671 46.0668 135.608 50.0042 140.465 50.0042Z" fill="#141446"/>
<path d="M140.465 45.5966C142.888 45.5966 144.852 43.6326 144.852 41.2099C144.852 38.7872 142.888 36.8232 140.465 36.8232C138.043 36.8232 136.079 38.7872 136.079 41.2099C136.079 43.6326 138.043 45.5966 140.465 45.5966Z" fill="#9FCBE9"/>
<path d="M73.3862 32.4659C73.3084 32.4654 73.2315 32.4483 73.1608 32.4158C73.09 32.3833 73.027 32.3362 72.9758 32.2775C72.9247 32.2188 72.8866 32.1499 72.864 32.0754C72.8415 32.0009 72.8351 31.9224 72.8452 31.8452C72.992 30.7003 73.533 29.849 74.1788 29.849C74.8247 29.849 75.3657 30.6877 75.5124 31.8452C75.5226 31.9224 75.5161 32.0009 75.4936 32.0754C75.4711 32.1499 75.433 32.2188 75.3819 32.2775C75.3307 32.3362 75.2677 32.3833 75.1969 32.4158C75.1262 32.4483 75.0493 32.4654 74.9715 32.4659H73.3862Z" fill="#EB674C"/>
<path d="M152.036 34.6124C151.841 34.6133 151.65 34.559 151.485 34.4558C151.32 34.3525 151.187 34.2046 151.102 34.0291C151.018 33.8535 150.984 33.6576 151.006 33.4639C151.028 33.2703 151.105 33.0869 151.227 32.9349C151.473 32.6421 151.78 32.4067 152.127 32.2452C152.473 32.0837 152.851 32 153.234 32C153.616 32 153.994 32.0837 154.341 32.2452C154.687 32.4067 154.994 32.6421 155.24 32.9349C155.362 33.0869 155.439 33.2703 155.461 33.4639C155.483 33.6576 155.45 33.8535 155.365 34.0291C155.28 34.2046 155.148 34.3525 154.982 34.4558C154.817 34.559 154.626 34.6133 154.431 34.6124H152.036Z" fill="#FDCC44"/>
<path d="M83.1366 25.3366H98.8716C99.8059 25.3366 100.702 24.9654 101.363 24.3048C102.023 23.6441 102.394 22.7481 102.394 21.8138V16.2948C102.396 15.794 102.291 15.2986 102.086 14.8418C101.88 14.385 101.58 13.9773 101.204 13.6461C100.828 13.3149 100.386 13.0679 99.9073 12.9215C99.4284 12.775 98.9237 12.7327 98.4271 12.7973C90.828 13.8289 85.049 17.6578 81.4424 20.8157C81.0474 21.161 80.7672 21.6184 80.639 22.1271C80.5108 22.6357 80.5407 23.1713 80.7248 23.6625C80.9089 24.1537 81.2384 24.5771 81.6693 24.8762C82.1002 25.1753 82.6121 25.3359 83.1366 25.3366Z" fill="#9FCBE9"/>
<path d="M109.842 13.0782C116.867 14.1518 124.437 17.8297 127.456 21.8473C127.696 22.1748 127.84 22.5625 127.873 22.9671C127.905 23.3717 127.825 23.7775 127.641 24.1391C127.456 24.5008 127.175 24.8042 126.829 25.0156C126.482 25.227 126.084 25.3381 125.678 25.3365H108.37C107.724 25.3365 107.104 25.0798 106.647 24.6229C106.19 24.1659 105.934 23.5462 105.934 22.9V16.0642C105.913 13.9757 107.779 12.7637 109.842 13.0782Z" fill="#9FCBE9"/>
<path d="M125.733 22.4135C125.732 22.3113 125.755 22.2103 125.8 22.1186C125.845 22.0269 125.911 21.9469 125.993 21.8851C126.074 21.8232 126.169 21.7812 126.269 21.7622C126.37 21.7433 126.473 21.748 126.571 21.776C127.897 22.1367 129.851 23.1684 129.851 24.3887C129.851 25.6091 127.897 26.645 126.571 27.0056C126.473 27.0336 126.37 27.0384 126.269 27.0194C126.169 27.0005 126.074 26.9585 125.993 26.8966C125.911 26.8348 125.845 26.7548 125.8 26.6631C125.755 26.5714 125.732 26.4704 125.733 26.3682V22.4135Z" fill="#1A5270"/>
</svg>
