<svg width="230" height="60" viewBox="0 0 230 60" fill="none" xmlns="http://www.w3.org/2000/svg">
<g clip-path="url(#clip0_220_17600)">
<path d="M162.091 40.8375H74.5156C71.6664 40.8403 68.9348 41.9757 66.9201 43.9949C64.9054 46.0141 63.7723 48.7519 63.7695 51.6075H68.5011C68.5025 50.0092 69.1365 48.4767 70.2642 47.3465C71.3919 46.2163 72.9209 45.5808 74.5156 45.5795V48.3192H79.5391C80.1819 49.295 80.5248 50.4382 80.5251 51.6075H85.2564C85.2549 50.4907 85.0789 49.3813 84.7347 48.3192H162.086L162.091 40.8375Z" fill="#1A5270"/>
<rect x="64" y="44.0001" width="2" height="4" rx="1" fill="#EB674C"/>
<path d="M150.14 59.9989C154.767 59.9989 158.517 56.2397 158.517 51.6024C158.517 46.9651 154.767 43.2058 150.14 43.2058C145.513 43.2058 141.762 46.9651 141.762 51.6024C141.762 56.2397 145.513 59.9989 150.14 59.9989Z" fill="#141446"/>
<path d="M150.14 55.7902C152.447 55.7902 154.318 53.9152 154.318 51.6024C154.318 49.2895 152.447 47.4146 150.14 47.4146C147.832 47.4146 145.961 49.2895 145.961 51.6024C145.961 53.9152 147.832 55.7902 150.14 55.7902Z" fill="#9FCBE9"/>
<path d="M126.224 44.9996H107.776C106.795 44.9996 106 45.7482 106 46.6716V50.3276C106 51.251 106.795 51.9996 107.776 51.9996H126.224C127.205 51.9996 128 51.251 128 50.3276V46.6716C128 45.7482 127.205 44.9996 126.224 44.9996Z" fill="#2D7EAA"/>
<path d="M132.5 51.9996C134.433 51.9996 136 50.4326 136 48.4996C136 46.5666 134.433 44.9996 132.5 44.9996C130.567 44.9996 129 46.5666 129 48.4996C129 50.4326 130.567 51.9996 132.5 51.9996Z" fill="#2D7EAA"/>
<path d="M141 44.9996H138V55.9996H141V44.9996Z" fill="#1A5270"/>
<path d="M138.5 40.8112V12.8715C138.5 12.3709 139.049 11.8908 139.402 11.5368C139.756 11.1829 140.235 10.9841 140.734 10.9841H167.766C168.25 10.9849 168.719 11.1576 169.088 11.4715C169.458 11.7854 169.705 12.2201 169.785 12.6989L172.456 28.4674V52.6636L170.087 55.33C170.087 55.33 160.332 55.5287 160.332 55.33V45.6892C160.332 44.3964 159.82 43.1564 158.909 42.2418C157.997 41.3271 156.761 40.8126 155.471 40.8112H138.5Z" fill="#2D7EAA"/>
<path d="M150.496 14.0001H143.504C143.226 14.0001 143 14.2039 143 14.4555V22.5447C143 22.7962 143.226 23.0001 143.504 23.0001H150.496C150.774 23.0001 151 22.7962 151 22.5447V14.4555C151 14.2039 150.774 14.0001 150.496 14.0001Z" fill="#9FCBE9"/>
<path d="M140.734 10.9842V6.46178C140.734 5.93348 140.943 5.42668 141.316 5.05312C141.689 4.67955 142.195 4.46979 142.722 4.46979H161.256C161.951 4.46928 162.635 4.6552 163.234 5.00819C163.834 5.36117 164.329 5.86832 164.667 6.47735L167.166 10.9842" fill="#439CCC"/>
<path d="M168 27.0001H157V15.0001C157 14.4478 157.448 14.0001 158 14.0001H164.759C165.241 14.0001 165.655 14.3439 165.743 14.8179L168 27.0001Z" fill="#9FCBE9"/>
<path d="M170.067 27.84H172.331C172.775 27.84 173.201 28.0168 173.515 28.3315C173.829 28.6463 174.005 29.0731 174.005 29.5182V38.1239C174.005 38.4597 173.939 38.7921 173.811 39.1023C173.683 39.4125 173.495 39.6943 173.258 39.9317C173.021 40.1691 172.74 40.3574 172.43 40.4859C172.121 40.6144 171.789 40.6805 171.454 40.6805H170.067V27.84Z" fill="#439CCC"/>
<path d="M137 28.728C137 27.7736 137.861 27 138.924 27H172.076C173.139 27 174 27.7736 174 28.728V32H137V28.728Z" fill="#439CCC"/>
<path d="M91.8607 59.9989C96.4876 59.9989 100.238 56.2397 100.238 51.6024C100.238 46.9651 96.4876 43.2058 91.8607 43.2058C87.2338 43.2058 83.4829 46.9651 83.4829 51.6024C83.4829 56.2397 87.2338 59.9989 91.8607 59.9989Z" fill="#141446"/>
<path d="M91.8606 55.7902C94.1683 55.7902 96.039 53.9152 96.039 51.6024C96.039 49.2895 94.1683 47.4146 91.8606 47.4146C89.5529 47.4146 87.6821 49.2895 87.6821 51.6024C87.6821 53.9152 89.5529 55.7902 91.8606 55.7902Z" fill="#9FCBE9"/>
<path d="M74.5157 59.9989C79.1426 59.9989 82.8934 56.2397 82.8934 51.6024C82.8934 46.9651 79.1426 43.2058 74.5157 43.2058C69.8888 43.2058 66.1379 46.9651 66.1379 51.6024C66.1379 56.2397 69.8888 59.9989 74.5157 59.9989Z" fill="#141446"/>
<path d="M74.5156 55.7902C76.8233 55.7902 78.694 53.9152 78.694 51.6024C78.694 49.2895 76.8233 47.4146 74.5156 47.4146C72.2079 47.4146 70.3372 49.2895 70.3372 51.6024C70.3372 53.9152 72.2079 55.7902 74.5156 55.7902Z" fill="#9FCBE9"/>
<path d="M172.732 50.703L170.056 51.6075V47.0956H172.706C172.907 47.0956 173.099 47.1755 173.241 47.3177C173.383 47.4598 173.463 47.6527 173.463 47.8538V49.6888C173.466 49.9141 173.397 50.1348 173.266 50.3175C173.134 50.5003 172.947 50.6354 172.732 50.703Z" fill="#FDCC44"/>
<path d="M59.4911 1.00527H132.508C133.434 1.00527 134.322 1.42868 134.977 2.18235C135.632 2.93602 136 3.95822 136 5.02408V38.9812C136 40.047 135.632 41.0692 134.977 41.8229C134.322 42.5766 133.434 43 132.508 43H55.9995V5.01881C55.9995 3.95296 56.3674 2.93076 57.0222 2.17708C57.677 1.42341 58.5651 1 59.4911 1V1.00527Z" fill="#439CCC"/>
<path d="M117.455 25.75C117.455 24.793 118.221 24 119.205 24H123.58C124.537 24 125.33 24.793 125.33 25.75V31H125.549C126.861 31 127.955 32.0938 127.955 33.4062V34.2812C127.955 34.6641 128.229 34.9375 128.611 34.9375C128.967 34.9375 129.268 34.6641 129.268 34.2812V30.0703C128.502 29.8789 127.955 29.1953 127.955 28.375V26.625L127.08 25.75C126.834 25.5312 126.834 25.1211 127.08 24.875C127.299 24.6562 127.709 24.6562 127.955 24.875L130.061 27.0078C130.389 27.3359 130.58 27.7734 130.58 28.2383V34.2812C130.58 35.375 129.678 36.25 128.611 36.25C127.518 36.25 126.643 35.375 126.643 34.2812V33.4062C126.643 32.8047 126.15 32.3125 125.549 32.3125H125.33V36.25C125.795 36.25 126.205 36.6602 126.205 37.125C126.205 37.6172 125.795 38 125.33 38H117.455C116.963 38 116.58 37.6172 116.58 37.125C116.58 36.6602 116.963 36.25 117.455 36.25V25.75ZM119.205 28.8125C119.205 29.0586 119.396 29.25 119.643 29.25H123.143C123.361 29.25 123.58 29.0586 123.58 28.8125V26.1875C123.58 25.9688 123.361 25.75 123.143 25.75H119.643C119.396 25.75 119.205 25.9688 119.205 26.1875V28.8125Z" fill="white"/>
<path d="M111.305 30.1528H114.242C114.583 30.1528 114.898 30.3889 115.003 30.7037C115.134 31.0448 115.055 31.412 114.793 31.6482L108.079 37.5247C107.764 37.7608 107.344 37.787 107.029 37.5509C106.715 37.341 106.584 36.9213 106.741 36.554L108.76 31.8318H105.823C105.482 31.8318 105.167 31.6219 105.062 31.3071C104.931 30.9661 105.01 30.5988 105.272 30.3627L111.986 24.4862C112.301 24.25 112.721 24.2238 113.036 24.4599C113.35 24.6698 113.481 25.0895 113.324 25.4568L111.305 30.1528Z" fill="white"/>
</g>
<defs>
<clipPath id="clip0_220_17600">
<rect width="118" height="60" fill="white" transform="translate(56)"/>
</clipPath>
</defs>
</svg>
