<svg width="230" height="60" viewBox="0 0 230 60" fill="none" xmlns="http://www.w3.org/2000/svg">
<g clip-path="url(#clip0_220_18036)">
<path d="M36 30C36 13.4315 49.4315 0 66 0C82.5685 0 96 13.4315 96 30C96 46.5685 82.5685 60 66 60C49.4315 60 36 46.5685 36 30Z" fill="#141446"/>
<g clip-path="url(#clip1_220_18036)">
<path d="M77.394 37.225H19.0106C17.1112 37.2268 15.29 37.9838 13.9469 39.3299C12.6038 40.676 11.8484 42.5012 11.8466 44.405H15.0009C15.0018 43.3394 15.4246 42.3178 16.1763 41.5643C16.9281 40.8109 17.9474 40.3872 19.0106 40.3863V42.2127H22.3596C22.7882 42.8633 23.0168 43.6254 23.0169 44.405H26.1711C26.1701 43.6605 26.0528 42.9208 25.8234 42.2127H77.3906L77.394 37.225Z" fill="#1A5270"/>
<path d="M69.4267 49.9993C72.5113 49.9993 75.0119 47.4931 75.0119 44.4016C75.0119 41.3101 72.5113 38.8039 69.4267 38.8039C66.3421 38.8039 63.8416 41.3101 63.8416 44.4016C63.8416 47.4931 66.3421 49.9993 69.4267 49.9993Z" fill="#303048"/>
<path d="M69.4266 47.1935C70.9651 47.1935 72.2122 45.9435 72.2122 44.4016C72.2122 42.8597 70.9651 41.6097 69.4266 41.6097C67.8882 41.6097 66.641 42.8597 66.641 44.4016C66.641 45.9435 67.8882 47.1935 69.4266 47.1935Z" fill="#9FCBE9"/>
<path d="M53.4832 39.9997H41.1839C40.5302 39.9997 40.0002 40.4987 40.0002 41.1144V43.5517C40.0002 44.1673 40.5302 44.6664 41.1839 44.6664H53.4832C54.137 44.6664 54.6669 44.1673 54.6669 43.5517V41.1144C54.6669 40.4987 54.137 39.9997 53.4832 39.9997Z" fill="#2D7EAA"/>
<path d="M57.6668 44.6664C58.9555 44.6664 60.0002 43.6217 60.0002 42.333C60.0002 41.0444 58.9555 39.9997 57.6668 39.9997C56.3782 39.9997 55.3335 41.0444 55.3335 42.333C55.3335 43.6217 56.3782 44.6664 57.6668 44.6664Z" fill="#2D7EAA"/>
<path d="M63.3335 39.9997H61.3335V47.333H63.3335V39.9997Z" fill="#1A5270"/>
<path d="M61.6669 37.2074V18.581C61.6669 18.2473 62.033 17.9272 62.2685 17.6912C62.5039 17.4552 62.8233 17.3228 63.1562 17.3228H81.1775C81.5005 17.3232 81.8128 17.4384 82.0592 17.6476C82.3055 17.8569 82.47 18.1467 82.5234 18.4659L84.3041 28.9782V45.109L82.7252 46.8867C82.7252 46.8867 76.2218 47.0191 76.2218 46.8867V40.4594C76.2218 39.5976 75.8805 38.771 75.2728 38.1612C74.665 37.5514 73.8406 37.2084 72.9807 37.2074H61.6669Z" fill="#2D7EAA"/>
<path d="M69.6641 19.3334H65.003C64.8174 19.3334 64.6669 19.4693 64.6669 19.637V25.0298C64.6669 25.1975 64.8174 25.3334 65.003 25.3334H69.6641C69.8497 25.3334 70.0002 25.1975 70.0002 25.0298V19.637C70.0002 19.4693 69.8497 19.3334 69.6641 19.3334Z" fill="#9FCBE9"/>
<path d="M63.1565 17.3228V14.3079C63.1565 13.9557 63.296 13.6178 63.5445 13.3687C63.793 13.1197 64.1301 12.9799 64.4815 12.9799H76.8377C77.3014 12.9795 77.7568 13.1035 78.1567 13.3388C78.5566 13.5741 78.8864 13.9122 79.1121 14.3182L80.7779 17.3228" fill="#439CCC"/>
<path d="M81.3336 28H74.0002V20C74.0002 19.6319 74.2987 19.3334 74.6669 19.3334H79.1732C79.4945 19.3334 79.7702 19.5626 79.8287 19.8786L81.3336 28Z" fill="#9FCBE9"/>
<path d="M82.7114 28.56H84.2207C84.5168 28.56 84.8008 28.6779 85.0101 28.8877C85.2195 29.0975 85.3371 29.3821 85.3371 29.6788V35.416C85.3371 35.6398 85.2931 35.8614 85.2076 36.0682C85.1222 36.275 84.9969 36.4629 84.839 36.6212C84.6811 36.7794 84.4936 36.905 84.2873 36.9906C84.081 37.0763 83.8598 37.1204 83.6365 37.1204H82.7114V28.56Z" fill="#439CCC"/>
<path d="M60.6667 29.152C60.6667 28.5158 61.241 28 61.9493 28H84.0509C84.7593 28 85.3335 28.5158 85.3335 29.152V31.3333H60.6667V29.152Z" fill="#439CCC"/>
<path d="M30.5742 49.9993C33.6588 49.9993 36.1593 47.4931 36.1593 44.4016C36.1593 41.3101 33.6588 38.8039 30.5742 38.8039C27.4896 38.8039 24.989 41.3101 24.989 44.4016C24.989 47.4931 27.4896 49.9993 30.5742 49.9993Z" fill="#141446"/>
<path d="M84.4884 43.802L82.7043 44.405V41.397H84.471C84.6048 41.397 84.7331 41.4503 84.8276 41.5451C84.9222 41.6399 84.9754 41.7685 84.9754 41.9025V43.1258C84.9778 43.2761 84.9317 43.4232 84.8439 43.545C84.7562 43.6669 84.6314 43.7569 84.4884 43.802Z" fill="#FDCC44"/>
<path d="M8.99421 10.6702H57.6721C58.2895 10.6702 58.8815 10.9525 59.3181 11.4549C59.7546 11.9574 59.9998 12.6388 59.9998 13.3494V35.9875C59.9998 36.6981 59.7546 37.3795 59.3181 37.882C58.8815 38.3844 58.2895 38.6667 57.6721 38.6667H6.6665V13.3459C6.6665 12.6353 6.91174 11.9539 7.34827 11.4514C7.7848 10.949 8.37686 10.6667 8.99421 10.6667V10.6702Z" fill="#439CCC"/>
</g>
</g>
<g clip-path="url(#clip2_220_18036)">
<path d="M85 30C85 13.4315 98.4315 0 115 0C131.569 0 145 13.4315 145 30C145 46.5685 131.569 60 115 60C98.4315 60 85 46.5685 85 30Z" fill="#141446"/>
<path d="M130 18.7962H36C34.5273 18.7962 33.3334 19.9901 33.3334 21.4629V40.8438C33.3334 42.7371 34.6608 44.3711 36.5139 44.759L44.5475 46.4404H130.667C132.508 46.4404 134 44.948 134 43.1071V22.7962C134 20.5871 132.209 18.7962 130 18.7962Z" fill="#439CCC"/>
<path d="M104.27 43.4284C104.27 40.4828 106.657 38.095 109.603 38.095H112.498C115.443 38.095 117.831 40.4828 117.831 43.4284V46.4405H104.27V43.4284Z" fill="#1A5270"/>
<rect x="98.0105" y="17.2314" width="11.9965" height="1.56477" fill="#1A5270"/>
<path d="M120.96 21.9258H134V40.1811C129.912 40.1811 124.999 36.7755 122.293 34.2223C121.386 33.3656 120.96 32.1446 120.96 30.8964V21.9258Z" fill="#9FCBE9"/>
<path d="M39.071 21.9258H116.266V33.4007H39.071V21.9258Z" fill="#1A5270"/>
<path d="M84.449 21.9258H98.5319V33.4007H84.449V21.9258Z" fill="#9FCBE9"/>
<path d="M99.5752 21.9258H113.658V33.4007H99.5752V21.9258Z" fill="#9FCBE9"/>
<path d="M131.914 41.2245H134V43.5717C133.166 43.5717 132.262 43.224 131.914 43.0501V41.2245Z" fill="#FDCC44"/>
<path d="M111.05 50.0915C114.219 50.0915 116.788 47.5228 116.788 44.3541C116.788 41.1853 114.219 38.6166 111.05 38.6166C107.882 38.6166 105.313 41.1853 105.313 44.3541C105.313 47.5228 107.882 50.0915 111.05 50.0915Z" fill="#303048"/>
<path d="M111.049 47.2154C112.63 47.2154 113.911 45.9342 113.911 44.3538C113.911 42.7734 112.63 41.4922 111.049 41.4922C109.469 41.4922 108.188 42.7734 108.188 44.3538C108.188 45.9342 109.469 47.2154 111.049 47.2154Z" fill="#9FCBE9"/>
</g>
<g clip-path="url(#clip3_220_18036)">
<path d="M134 30C134 13.4315 147.431 0 164 0C180.569 0 194 13.4315 194 30C194 46.5685 180.569 60 164 60C147.431 60 134 46.5685 134 30Z" fill="#141446"/>
<path d="M124.732 45.8605C124.732 46.3343 124.92 46.7887 125.255 47.1237C125.59 47.4588 126.044 47.647 126.518 47.647H174.207V36.3994H124.732V45.8605Z" fill="#1A5270"/>
<path d="M178.98 40.7217C178.862 39.2847 177.861 37.2884 176.871 36.2484C175.158 34.473 172.099 32.5467 166.247 32.5467C160.594 32.5467 157.041 23.1639 141.225 23.1639C129.256 23.1639 120.656 30.6931 120.656 39.9808C120.654 41.1037 120.881 42.2151 121.321 43.2478C121.762 44.2806 122.408 45.2132 123.219 45.9891C123.425 46.1975 123.691 46.3362 123.979 46.3857C124.267 46.4351 124.564 46.3927 124.827 46.2646C125.09 46.1364 125.307 45.9289 125.445 45.6713C125.584 45.4137 125.639 45.1191 125.601 44.8288C125.472 43.7924 125.582 42.7402 125.921 41.7525C126.26 40.7648 126.821 39.8676 127.56 39.1294C128.299 38.3912 129.196 37.8316 130.184 37.4931C131.172 37.1546 132.225 37.0462 133.261 37.1762C134.297 37.3063 135.29 37.6713 136.164 38.2434C137.038 38.8155 137.769 39.5796 138.303 40.4774C138.836 41.3752 139.158 42.3831 139.243 43.424C139.327 44.465 139.173 45.5116 138.792 46.4839C138.71 46.6874 138.68 46.9079 138.703 47.126C138.727 47.344 138.805 47.5529 138.929 47.7338C139.052 47.9148 139.219 48.0623 139.414 48.1632C139.609 48.2642 139.825 48.3154 140.045 48.3124H158.645C158.931 48.3139 159.212 48.2487 159.468 48.1221C159.723 47.9954 159.946 47.8108 160.118 47.583C160.289 47.3552 160.405 47.0904 160.456 46.8098C160.508 46.5292 160.493 46.2405 160.412 45.9667C160.097 44.9204 160.037 43.8138 160.236 42.7393C160.435 41.6648 160.888 40.6534 161.557 39.7894C162.226 38.9254 163.092 38.2338 164.082 37.7722C165.073 37.3106 166.159 37.0924 167.251 37.1358C168.343 37.1791 169.409 37.4828 170.36 38.0215C171.311 38.5601 172.119 39.3182 172.717 40.2326C173.316 41.1469 173.687 42.191 173.8 43.2779C173.914 44.3648 173.765 45.4631 173.368 46.4811C173.296 46.6632 173.279 46.8623 173.318 47.054C173.358 47.2457 173.452 47.4218 173.59 47.5607C173.728 47.6995 173.904 47.7951 174.095 47.8358C174.287 47.8765 174.486 47.8604 174.668 47.7896C176.046 47.2244 177.207 46.234 177.983 44.9626C178.758 43.6913 179.108 42.2054 178.98 40.7217Z" fill="#439CCC"/>
<path d="M132.417 49.8361C135.655 49.8361 138.28 47.2112 138.28 43.9733C138.28 40.7353 135.655 38.1104 132.417 38.1104C129.179 38.1104 126.555 40.7353 126.555 43.9733C126.555 47.2112 129.179 49.8361 132.417 49.8361Z" fill="#141446"/>
<path d="M132.417 46.8977C134.033 46.8977 135.342 45.5884 135.342 43.9733C135.342 42.3581 134.033 41.0488 132.417 41.0488C130.802 41.0488 129.493 42.3581 129.493 43.9733C129.493 45.5884 130.802 46.8977 132.417 46.8977Z" fill="#9FCBE9"/>
<path d="M166.977 49.8361C170.215 49.8361 172.839 47.2112 172.839 43.9733C172.839 40.7353 170.215 38.1104 166.977 38.1104C163.739 38.1104 161.114 40.7353 161.114 43.9733C161.114 47.2112 163.739 49.8361 166.977 49.8361Z" fill="#303048"/>
<path d="M166.977 46.8977C168.592 46.8977 169.901 45.5884 169.901 43.9733C169.901 42.3581 168.592 41.0488 166.977 41.0488C165.362 41.0488 164.052 42.3581 164.052 43.9733C164.052 45.5884 165.362 46.8977 166.977 46.8977Z" fill="#9FCBE9"/>
<path d="M174.691 39.575C174.561 39.5756 174.434 39.5394 174.323 39.4706C174.213 39.4017 174.125 39.3031 174.068 39.1861C174.012 39.0691 173.99 38.9384 174.004 38.8093C174.019 38.6802 174.07 38.558 174.151 38.4566C174.315 38.2614 174.52 38.1045 174.751 37.9968C174.982 37.8892 175.234 37.8334 175.489 37.8334C175.744 37.8334 175.996 37.8892 176.227 37.9968C176.458 38.1045 176.663 38.2614 176.827 38.4566C176.908 38.558 176.959 38.6802 176.974 38.8093C176.989 38.9384 176.967 39.0691 176.91 39.1861C176.854 39.3031 176.765 39.4017 176.655 39.4706C176.545 39.5394 176.417 39.5756 176.287 39.575H174.691Z" fill="#FDCC44"/>
<path d="M128.758 33.391H139.248C139.871 33.391 140.468 33.1436 140.908 32.7032C141.349 32.2628 141.596 31.6654 141.596 31.0425V27.3632C141.597 27.0294 141.527 26.6991 141.39 26.3945C141.254 26.09 141.053 25.8182 140.803 25.5974C140.552 25.3766 140.258 25.2119 139.938 25.1143C139.619 25.0167 139.282 24.9885 138.951 25.0315C133.885 25.7193 130.033 28.2719 127.628 30.3771C127.365 30.6073 127.178 30.9123 127.093 31.2514C127.007 31.5905 127.027 31.9476 127.15 32.275C127.273 32.6025 127.492 32.8847 127.78 33.0841C128.067 33.2835 128.408 33.3906 128.758 33.391Z" fill="#9FCBE9"/>
<path d="M146.562 25.2189C151.245 25.9346 156.291 28.3865 158.304 31.065C158.464 31.2833 158.56 31.5417 158.582 31.8115C158.604 32.0812 158.55 32.3517 158.427 32.5928C158.304 32.8339 158.117 33.0362 157.886 33.1771C157.655 33.3181 157.389 33.3922 157.119 33.3911H145.58C145.15 33.3911 144.736 33.22 144.432 32.9153C144.127 32.6107 143.956 32.1975 143.956 31.7667V27.2095C143.942 25.8172 145.186 25.0092 146.562 25.2189Z" fill="#9FCBE9"/>
<path d="M157.155 31.4424C157.155 31.3742 157.17 31.3069 157.2 31.2458C157.23 31.1846 157.274 31.1313 157.329 31.0901C157.383 31.0489 157.446 31.0208 157.513 31.0082C157.58 30.9956 157.649 30.9987 157.714 31.0174C158.598 31.2578 159.901 31.9456 159.901 32.7592C159.901 33.5728 158.598 34.2634 157.714 34.5038C157.649 34.5225 157.58 34.5256 157.513 34.513C157.446 34.5004 157.383 34.4723 157.329 34.4311C157.274 34.3899 157.23 34.3366 157.2 34.2754C157.17 34.2143 157.155 34.147 157.155 34.0788V31.4424Z" fill="#1A5270"/>
</g>
<defs>
<clipPath id="clip0_220_18036">
<path d="M36 30C36 13.4315 49.4315 0 66 0C82.5685 0 96 13.4315 96 30C96 46.5685 82.5685 60 66 60C49.4315 60 36 46.5685 36 30Z" fill="white"/>
</clipPath>
<clipPath id="clip1_220_18036">
<rect width="78.6667" height="40" fill="white" transform="translate(7 10)"/>
</clipPath>
<clipPath id="clip2_220_18036">
<path d="M85 30C85 13.4315 98.4315 0 115 0C131.569 0 145 13.4315 145 30C145 46.5685 131.569 60 115 60C98.4315 60 85 46.5685 85 30Z" fill="white"/>
</clipPath>
<clipPath id="clip3_220_18036">
<path d="M134 30C134 13.4315 147.431 0 164 0C180.569 0 194 13.4315 194 30C194 46.5685 180.569 60 164 60C147.431 60 134 46.5685 134 30Z" fill="white"/>
</clipPath>
</defs>
</svg>
