<svg width="230" height="60" viewBox="0 0 230 60" fill="none" xmlns="http://www.w3.org/2000/svg">
<path d="M73.1934 44.0447C73.1934 44.7554 73.4757 45.437 73.9783 45.9396C74.4808 46.4421 75.1624 46.7245 75.8732 46.7245H155.406V29.853H73.1934V44.0447Z" fill="#1A5270"/>
<path d="M159.402 29.6268C160.887 31.1868 162.388 34.1812 162.564 36.3368C162.756 38.5623 162.233 40.7911 161.069 42.6981C159.906 44.6052 158.164 46.0908 156.098 46.9386C155.824 47.0448 155.525 47.0689 155.238 47.0079C154.951 46.9469 154.687 46.8035 154.48 46.5952C154.274 46.3869 154.132 46.1228 154.073 45.8352C154.014 45.5476 154.04 45.249 154.147 44.9759C154.743 43.4488 154.965 41.8014 154.796 40.1711C154.626 38.5407 154.069 36.9745 153.171 35.603C152.273 34.2315 151.061 33.0944 149.635 32.2864C148.208 31.4784 146.61 31.0229 144.972 30.9579C143.334 30.8928 141.704 31.2201 140.218 31.9125C138.733 32.6049 137.434 33.6423 136.43 34.9383C135.427 36.2343 134.747 37.7514 134.449 39.3632C134.15 40.9749 134.241 42.6347 134.714 44.2042C134.834 44.6149 134.856 45.0479 134.78 45.4688C134.703 45.8898 134.529 46.2869 134.271 46.6287C134.014 46.9704 133.68 47.2473 133.297 47.4373C132.913 47.6272 132.491 47.725 132.063 47.7228L96.0837 47.8009C95.7547 47.8055 95.4296 47.7286 95.1375 47.5772C94.8454 47.4258 94.5952 47.2045 94.4093 46.933C94.2234 46.6616 94.1074 46.3484 94.0717 46.0213C94.0361 45.6942 94.0818 45.3634 94.2049 45.0582C94.7766 43.5997 95.0077 42.0298 94.8804 40.4684C94.7532 38.9069 94.271 37.3952 93.4706 36.0484C92.6703 34.7017 91.573 33.5555 90.2623 32.6974C88.9516 31.8392 87.4623 31.2917 85.9079 31.0967C84.3535 30.9016 82.775 31.0642 81.293 31.5719C79.811 32.0797 78.4644 32.9192 77.3562 34.0264C76.2479 35.1337 75.4072 36.4795 74.8981 37.9611C74.3891 39.4426 74.2251 41.0209 74.4187 42.5755C74.475 43.0109 74.3931 43.4529 74.1848 43.8393C73.9764 44.2257 73.652 44.5369 73.2574 44.7292C72.8627 44.9214 72.4177 44.9849 71.985 44.9108C71.5523 44.8367 71.1538 44.6286 70.8457 44.3159C69.6283 43.152 68.6597 41.7532 67.9987 40.2041C67.3377 38.655 66.9979 36.9878 67 35.3036V13.0721C67 11.4176 68.3395 10.0754 69.994 10.0721L105.932 10C129.656 10 134.986 24.0742 143.466 24.0742C152.244 24.0742 156.831 26.9637 159.402 29.6268Z" fill="#439CCC"/>
<path d="M114.455 30.75C114.455 29.793 115.221 29 116.205 29H120.58C121.537 29 122.33 29.793 122.33 30.75V36H122.549C123.861 36 124.955 37.0938 124.955 38.4062V39.2812C124.955 39.6641 125.229 39.9375 125.611 39.9375C125.967 39.9375 126.268 39.6641 126.268 39.2812V35.0703C125.502 34.8789 124.955 34.1953 124.955 33.375V31.625L124.08 30.75C123.834 30.5312 123.834 30.1211 124.08 29.875C124.299 29.6562 124.709 29.6562 124.955 29.875L127.061 32.0078C127.389 32.3359 127.58 32.7734 127.58 33.2383V39.2812C127.58 40.375 126.678 41.25 125.611 41.25C124.518 41.25 123.643 40.375 123.643 39.2812V38.4062C123.643 37.8047 123.15 37.3125 122.549 37.3125H122.33V41.25C122.795 41.25 123.205 41.6602 123.205 42.125C123.205 42.6172 122.795 43 122.33 43H114.455C113.963 43 113.58 42.6172 113.58 42.125C113.58 41.6602 113.963 41.25 114.455 41.25V30.75ZM116.205 33.8125C116.205 34.0586 116.396 34.25 116.643 34.25H120.143C120.361 34.25 120.58 34.0586 120.58 33.8125V31.1875C120.58 30.9688 120.361 30.75 120.143 30.75H116.643C116.396 30.75 116.205 30.9688 116.205 31.1875V33.8125Z" fill="white"/>
<path d="M108.305 35.1528H111.242C111.583 35.1528 111.898 35.3889 112.003 35.7037C112.134 36.0448 112.055 36.412 111.793 36.6482L105.079 42.5247C104.764 42.7608 104.344 42.787 104.029 42.5509C103.715 42.341 103.584 41.9213 103.741 41.554L105.76 36.8318H102.823C102.482 36.8318 102.167 36.6219 102.062 36.3071C101.931 35.9661 102.01 35.5988 102.272 35.3627L108.986 29.4862C109.301 29.25 109.721 29.2238 110.036 29.4599C110.35 29.6698 110.481 30.0895 110.324 30.4568L108.305 35.1528Z" fill="white"/>
<path d="M84.722 50.0085C89.579 50.0085 93.5163 46.0712 93.5163 41.2142C93.5163 36.3573 89.579 32.4199 84.722 32.4199C79.8651 32.4199 75.9277 36.3573 75.9277 41.2142C75.9277 46.0712 79.8651 50.0085 84.722 50.0085Z" fill="#141446"/>
<path d="M84.7219 45.6009C87.1446 45.6009 89.1085 43.6369 89.1085 41.2142C89.1085 38.7916 87.1446 36.8276 84.7219 36.8276C82.2992 36.8276 80.3352 38.7916 80.3352 41.2142C80.3352 43.6369 82.2992 45.6009 84.7219 45.6009Z" fill="#9FCBE9"/>
<path d="M144.56 50.0085C149.417 50.0085 153.354 46.0712 153.354 41.2142C153.354 36.3573 149.417 32.4199 144.56 32.4199C139.703 32.4199 135.766 36.3573 135.766 41.2142C135.766 46.0712 139.703 50.0085 144.56 50.0085Z" fill="#141446"/>
<path d="M144.56 45.6009C146.983 45.6009 148.947 43.6369 148.947 41.2142C148.947 38.7916 146.983 36.8276 144.56 36.8276C142.137 36.8276 140.173 38.7916 140.173 41.2142C140.173 43.6369 142.137 45.6009 144.56 45.6009Z" fill="#9FCBE9"/>
<path d="M69.4812 33.4699C69.4033 33.4694 69.3265 33.4523 69.2557 33.4198C69.185 33.3874 69.1219 33.3402 69.0708 33.2815C69.0196 33.2228 68.9815 33.1539 68.959 33.0794C68.9365 33.0049 68.9301 32.9264 68.9402 32.8492C69.087 31.7044 69.628 30.853 70.2738 30.853C70.9196 30.853 71.4606 31.6918 71.6074 32.8492C71.6175 32.9264 71.6111 33.0049 71.5886 33.0794C71.5661 33.1539 71.528 33.2228 71.4768 33.2815C71.4257 33.3402 71.3626 33.3874 71.2919 33.4198C71.2211 33.4523 71.1443 33.4694 71.0664 33.4699H69.4812Z" fill="#EB674C"/>
<path d="M156.037 34.6124C155.842 34.6133 155.651 34.559 155.485 34.4558C155.32 34.3525 155.187 34.2046 155.103 34.0291C155.018 33.8535 154.985 33.6576 155.007 33.4639C155.029 33.2703 155.105 33.0869 155.227 32.9349C155.473 32.6421 155.78 32.4067 156.127 32.2452C156.474 32.0837 156.851 32 157.234 32C157.616 32 157.994 32.0837 158.341 32.2452C158.687 32.4067 158.995 32.6421 159.241 32.9349C159.363 33.0869 159.439 33.2703 159.461 33.4639C159.483 33.6576 159.45 33.8535 159.365 34.0291C159.281 34.2046 159.148 34.3525 158.983 34.4558C158.817 34.559 158.626 34.6133 158.431 34.6124H156.037Z" fill="#FDCC44"/>
<path d="M113.938 13.0825C120.963 14.1561 128.532 17.8341 131.552 21.8517C131.792 22.1792 131.936 22.5668 131.968 22.9714C132.001 23.3761 131.921 23.7818 131.736 24.1435C131.552 24.5051 131.271 24.8086 130.925 25.02C130.578 25.2314 130.18 25.3425 129.774 25.3409H112.466C111.82 25.3409 111.2 25.0842 110.743 24.6272C110.286 24.1703 110.029 23.5505 110.029 22.9043V16.0685C110.009 13.98 111.875 12.768 113.938 13.0825Z" fill="#9FCBE9"/>
<path d="M129.828 22.4175C129.827 22.3153 129.851 22.2143 129.896 22.1226C129.941 22.0309 130.007 21.951 130.088 21.8891C130.17 21.8272 130.264 21.7852 130.365 21.7663C130.465 21.7473 130.569 21.7521 130.667 21.7801C131.992 22.1407 133.946 23.1724 133.946 24.3928C133.946 25.6132 131.992 26.649 130.667 27.0097C130.569 27.0377 130.465 27.0424 130.365 27.0235C130.264 27.0046 130.17 26.9625 130.088 26.9006C130.007 26.8388 129.941 26.7588 129.896 26.6671C129.851 26.5754 129.827 26.4744 129.828 26.3722V22.4175Z" fill="#1A5270"/>
<path d="M67 13.0044H70C71.6569 13.0044 73 14.3475 73 16.0044V23.0044C73 24.6612 71.6569 26.0044 70 26.0044H67V13.0044Z" fill="#9FCBE9"/>
<path d="M77.4 16.0044C77.4 14.5685 78.5641 13.4044 80 13.4044H102C103.436 13.4044 104.6 14.5685 104.6 16.0044V23.0044C104.6 24.4403 103.436 25.6044 102 25.6044H80C78.5641 25.6044 77.4 24.4403 77.4 23.0044V16.0044Z" stroke="#9FCBE9" stroke-width="0.8"/>
</svg>
