<svg width="1068" height="440" viewBox="0 0 1068 440" fill="none" xmlns="http://www.w3.org/2000/svg">
<path d="M226.211 362.62L226.971 362.779H227.748H959.761C979.551 362.779 995.594 346.736 995.594 326.945V154.303C995.594 131.383 977.014 112.803 954.094 112.803H155.094C138.433 112.803 124.927 126.309 124.927 142.97V307.708C124.927 327.351 138.699 344.303 157.925 348.327L226.211 362.62Z" fill="#E9E9F1" stroke="white" stroke-width="15"/>
<path d="M234.399 329.676C234.399 304.639 254.696 284.343 279.733 284.343H393.007C418.044 284.343 438.341 304.639 438.341 329.676V355.279H234.399V329.676Z" fill="white"/>
<path d="M150.163 110.702V120.303H261.001L249.55 105.035C244.199 97.9005 235.801 93.7017 226.883 93.7017H167.163C157.774 93.7017 150.163 101.313 150.163 110.702Z" fill="#E9E9F1"/>
<rect x="300.9" y="107.002" width="101.971" height="13.3005" fill="#E9E9F1"/>
<path d="M877.256 146.904H988.094V302.075C953.342 302.075 911.587 273.127 888.588 251.424C880.871 244.142 877.256 233.764 877.256 223.154V146.904Z" fill="white"/>
<path d="M181.197 146.904H837.356V244.441H181.197V146.904Z" fill="#E9E9F1"/>
<path d="M181.197 146.904H300.902V244.441H181.197V146.904Z" fill="white"/>
<path d="M309.768 146.904H429.473V244.441H309.768V146.904Z" fill="white"/>
<path d="M438.339 146.904H558.044V244.441H438.339V146.904Z" fill="white"/>
<path d="M566.912 146.904H686.617V244.441H566.912V146.904Z" fill="white"/>
<path d="M695.483 146.904H815.188V244.441H695.483V146.904Z" fill="white"/>
<path d="M970.361 310.943H988.095V330.894C981.001 330.894 973.317 327.938 970.361 326.46V310.943Z" fill="white"/>
<path d="M132.427 262.174H150.161V297.642C150.161 307.437 142.221 315.376 132.427 315.376V262.174Z" fill="white"/>
<path d="M380.695 361.866C394.129 361.866 405.019 350.976 405.019 337.542C405.019 324.109 394.129 313.219 380.695 313.219C367.262 313.219 356.372 324.109 356.372 337.542C356.372 350.976 367.262 361.866 380.695 361.866Z" fill="white"/>
<path d="M292.02 361.866C305.454 361.866 316.344 350.976 316.344 337.542C316.344 324.109 305.454 313.219 292.02 313.219C278.587 313.219 267.697 324.109 267.697 337.542C267.697 350.976 278.587 361.866 292.02 361.866Z" fill="white"/>
<path d="M847.019 391.313C876.715 391.313 900.788 367.24 900.788 337.544C900.788 307.848 876.715 283.775 847.019 283.775C817.323 283.775 793.25 307.848 793.25 337.544C793.25 367.24 817.323 391.313 847.019 391.313Z" fill="#E9E9F1" stroke="white" stroke-width="10"/>
<path d="M847.012 361.865C860.445 361.865 871.335 350.975 871.335 337.542C871.335 324.108 860.445 313.218 847.012 313.218C833.578 313.218 822.688 324.108 822.688 337.542C822.688 350.975 833.578 361.865 847.012 361.865Z" fill="white"/>
<path d="M97.4272 292.538H147.784C138.875 304.357 133.972 318.828 133.958 333.806L133.95 341.313H141.458H168.27H175.763L175.77 333.82C175.776 326.744 178.583 319.963 183.57 314.965C186.741 311.786 190.629 309.494 194.852 308.245V315.179V322.679H202.352H226.439C228.056 326.151 228.905 329.951 228.906 333.815L228.907 341.313H236.406H263.216H270.726L270.716 333.803C270.711 330.07 270.4 326.35 269.788 322.679H514.597V358.702V366.202H522.097H619.097H626.597V358.702V322.679H681.147V354.908V362.408H688.647H743.926H747.296L749.533 359.889L762.954 344.779L764.846 342.648V339.798V274.993C765.677 274.37 766.463 273.686 767.2 272.948L761.891 267.65L767.2 272.948C769.238 270.905 770.854 268.481 771.956 265.815C773.058 263.149 773.625 260.291 773.625 257.406V208.641C773.625 208.315 773.615 207.99 773.597 207.666V204.163C773.597 196.652 768.762 190.872 762.519 188.314L749.608 112.094C749.608 112.092 749.607 112.09 749.607 112.087C748.86 107.632 746.563 103.584 743.12 100.66C739.676 97.7341 735.305 96.1215 730.782 96.1147H730.771H728.032L720.032 78.6206L719.91 78.3533L719.767 78.0963C717.2 73.4778 713.447 69.6298 708.895 66.9507C704.344 64.2725 699.159 62.8608 693.879 62.8636C693.878 62.8636 693.877 62.8636 693.876 62.8636H588.852C583.872 62.8636 579.096 64.8454 575.578 68.3718C572.06 71.8976 570.089 76.6757 570.089 81.6516V97.7369C568.114 98.633 566.296 99.8841 564.735 101.449C564.667 101.517 564.453 101.733 564.183 102.004L564.124 102.064L564.119 102.058L564.001 102.173C563.089 103.068 561.617 104.513 560.395 106.161C559.716 107.076 558.874 108.364 558.261 109.958V69.841C558.261 62.1261 555.607 54.5511 550.627 48.8189C545.618 43.0534 538.579 39.5677 530.975 39.5677H124.713V39.5378H117.213C109.609 39.5378 102.57 43.0236 97.5606 48.7891C92.5805 54.5213 89.9272 62.0962 89.9272 69.8111V285.038V292.538H97.4272Z" fill="#E9E9F1" stroke="white" stroke-width="15"/>
<rect x="142.764" y="296.035" width="11.3333" height="22.6667" rx="5.66667" fill="white"/>
<path d="M654.902 391.863C683.893 391.863 707.375 368.311 707.375 339.282C707.375 310.253 683.893 286.702 654.902 286.702C625.911 286.702 602.428 310.253 602.428 339.282C602.428 368.311 625.911 391.863 654.902 391.863Z" fill="#E9E9F1" stroke="white" stroke-width="10"/>
<path d="M654.887 362.846C667.964 362.846 678.565 352.221 678.565 339.115C678.565 326.009 667.964 315.384 654.887 315.384C641.81 315.384 631.209 326.009 631.209 339.115C631.209 352.221 641.81 362.846 654.887 362.846Z" fill="white"/>
<path d="M300.641 386.695C326.86 386.695 348.115 365.393 348.115 339.115C348.115 312.837 326.86 291.534 300.641 291.534C274.422 291.534 253.167 312.837 253.167 339.115C253.167 365.393 274.422 386.695 300.641 386.695Z" fill="#E9E9F1"/>
<path d="M300.64 362.846C313.717 362.846 324.318 352.221 324.318 339.115C324.318 326.009 313.717 315.384 300.64 315.384C287.563 315.384 276.962 326.009 276.962 339.115C276.962 352.221 287.563 362.846 300.64 362.846Z" fill="white"/>
<path d="M202.351 386.695C228.57 386.695 249.825 365.393 249.825 339.115C249.825 312.837 228.57 291.534 202.351 291.534C176.132 291.534 154.877 312.837 154.877 339.115C154.877 365.393 176.132 386.695 202.351 386.695Z" fill="#E9E9F1"/>
<path d="M202.351 362.846C215.428 362.846 226.028 352.221 226.028 339.115C226.028 326.009 215.428 315.384 202.351 315.384C189.274 315.384 178.673 326.009 178.673 339.115C178.673 352.221 189.274 362.846 202.351 362.846Z" fill="white"/>
<path d="M758.913 334.018L743.749 339.143V313.576H758.765C759.902 313.576 760.993 314.029 761.796 314.834C762.6 315.64 763.052 316.733 763.052 317.872V328.271C763.073 329.548 762.681 330.798 761.935 331.834C761.189 332.869 760.128 333.635 758.913 334.018Z" fill="white"/>
<path d="M495.369 301.699H390.825C385.268 301.699 380.764 305.941 380.764 311.173V331.891C380.764 337.123 385.268 341.365 390.825 341.365H495.369C500.926 341.365 505.43 337.123 505.43 331.891V311.173C505.43 305.941 500.926 301.699 495.369 301.699Z" fill="#E9E9F1"/>
<path d="M530.93 341.365C541.884 341.365 550.763 332.486 550.763 321.532C550.763 310.578 541.884 301.699 530.93 301.699C519.976 301.699 511.097 310.578 511.097 321.532C511.097 332.486 519.976 341.365 530.93 341.365Z" fill="#E9E9F1"/>
<path d="M632.906 124.368H593.287C591.709 124.368 590.43 125.524 590.43 126.949V172.788C590.43 174.213 591.709 175.368 593.287 175.368H632.906C634.484 175.368 635.764 174.213 635.764 172.788V126.949C635.764 125.524 634.484 124.368 632.906 124.368Z" fill="white"/>
<path d="M732.097 198.035H669.764V130.035C669.764 126.905 672.301 124.368 675.43 124.368H713.734C716.465 124.368 718.808 126.317 719.306 129.003L732.097 198.035Z" fill="white"/>
<path d="M81.6475 355.266C81.6475 359.294 83.2474 363.156 86.0952 366.004C88.9431 368.852 92.8056 370.452 96.8331 370.452H502.186V274.847H81.6475V355.266Z" fill="white"/>
<path d="M530.268 268.393L530.249 268.373L530.231 268.354C514.166 251.712 486.179 234.599 434.529 234.599C424.679 234.599 415.269 230.546 403.97 223.319C398.341 219.719 392.483 215.493 385.968 210.795L385.949 210.781C379.482 206.117 372.441 201.04 364.694 195.953C333.388 175.394 290.819 154.845 221.836 154.845C117.286 154.845 39.5029 220.986 39.5001 305.284C39.4876 315.842 41.6176 326.292 45.7611 336.002C49.892 345.683 55.9385 354.428 63.5365 361.71C66.3727 364.552 70.0224 366.444 73.9817 367.122C77.9811 367.807 82.0948 367.22 85.7427 365.443C89.3907 363.666 92.389 360.789 94.315 357.218C96.2379 353.652 96.995 349.573 96.4803 345.555C95.5269 337.884 96.3371 330.096 98.8491 322.785C101.363 315.47 105.514 308.825 110.986 303.357C116.458 297.89 123.107 293.745 130.424 291.238C137.742 288.731 145.536 287.928 153.211 288.891C160.886 289.854 168.24 292.558 174.711 296.795C181.183 301.032 186.601 306.692 190.553 313.341C194.505 319.991 196.886 327.455 197.514 335.165C198.141 342.865 197.004 350.606 194.189 357.8C193.042 360.664 192.616 363.768 192.951 366.836C193.287 369.918 194.38 372.87 196.132 375.428C197.884 377.986 200.242 380.071 202.995 381.498C205.73 382.916 208.772 383.64 211.852 383.607H369.898C373.483 383.622 377.022 382.801 380.234 381.21C383.453 379.615 386.255 377.29 388.417 374.42C390.579 371.55 392.04 368.215 392.685 364.681C393.33 361.146 393.14 357.51 392.13 354.062L392.122 354.034L392.114 354.005C389.779 346.256 389.33 338.06 390.805 330.102C392.279 322.144 395.634 314.653 400.589 308.254C405.545 301.855 411.958 296.732 419.294 293.314C426.63 289.895 434.677 288.279 442.765 288.6C450.852 288.921 458.746 291.17 465.788 295.16C472.83 299.149 478.816 304.764 483.249 311.536C487.682 318.308 490.432 326.041 491.271 334.091C492.109 342.136 491.014 350.265 488.076 357.801C486.934 360.7 486.66 363.869 487.287 366.921C487.916 369.98 489.423 372.789 491.624 375.004C493.825 377.219 496.624 378.744 499.678 379.392C502.733 380.041 505.91 379.785 508.821 378.655L508.888 378.629L508.954 378.602C522.144 373.192 533.261 363.71 540.685 351.54C548.105 339.375 551.448 325.16 550.227 310.963C549.624 303.613 546.859 295.395 543.334 288.061C539.79 280.685 535.15 273.524 530.268 268.393Z" fill="#E9E9F1" stroke="white" stroke-width="15"/>
<path d="M259.854 311.574H273.725C275.335 311.574 276.822 312.703 277.317 314.208C277.936 315.838 277.565 317.595 276.326 318.723L244.619 346.821C243.133 347.949 241.152 348.075 239.665 346.946C238.179 345.942 237.56 343.936 238.303 342.179L247.84 319.601H233.968C232.358 319.601 230.872 318.598 230.376 317.093C229.757 315.462 230.129 313.706 231.367 312.577L263.074 284.48C264.56 283.351 266.542 283.226 268.028 284.355C269.514 285.358 270.133 287.365 269.39 289.121L259.854 311.574Z" fill="white"/>
<path d="M295.88 289.212C295.88 284.825 299.389 281.191 303.901 281.191H323.952C328.339 281.191 331.973 284.825 331.973 289.212V313.273H332.975C338.991 313.273 344.004 318.286 344.004 324.302V328.312C344.004 330.066 345.257 331.32 347.011 331.32C348.641 331.32 350.019 330.066 350.019 328.312V309.012C346.51 308.135 344.004 305.002 344.004 301.243V293.222L339.993 289.212C338.866 288.209 338.866 286.329 339.993 285.201C340.996 284.199 342.876 284.199 344.004 285.201L353.653 294.976C355.157 296.48 356.035 298.485 356.035 300.616V328.312C356.035 333.325 351.899 337.335 347.011 337.335C341.999 337.335 337.988 333.325 337.988 328.312V324.302C337.988 321.545 335.732 319.289 332.975 319.289H331.973V337.335C334.103 337.335 335.983 339.215 335.983 341.345C335.983 343.601 334.103 345.356 331.973 345.356H295.88C293.625 345.356 291.87 343.601 291.87 341.345C291.87 339.215 293.625 337.335 295.88 337.335V289.212ZM303.901 303.248C303.901 304.376 304.778 305.253 305.906 305.253H321.947C322.95 305.253 323.952 304.376 323.952 303.248V291.217C323.952 290.214 322.95 289.212 321.947 289.212H305.906C304.778 289.212 303.901 290.214 303.901 291.217V303.248Z" fill="white"/>
<path d="M146.976 394.058C177.261 394.058 201.811 369.508 201.811 339.224C201.811 308.94 177.261 284.39 146.976 284.39C116.692 284.39 92.1421 308.94 92.1421 339.224C92.1421 369.508 116.692 394.058 146.976 394.058Z" fill="#E9E9F1" stroke="white" stroke-width="10"/>
<path d="M146.977 364.082C160.705 364.082 171.835 352.953 171.835 339.224C171.835 325.496 160.705 314.367 146.977 314.367C133.248 314.367 122.119 325.496 122.119 339.224C122.119 352.953 133.248 364.082 146.977 364.082Z" fill="white"/>
<path d="M440.73 394.058C471.014 394.058 495.564 369.508 495.564 339.224C495.564 308.94 471.014 284.39 440.73 284.39C410.446 284.39 385.896 308.94 385.896 339.224C385.896 369.508 410.446 394.058 440.73 394.058Z" fill="#E9E9F1" stroke="white" stroke-width="10"/>
<path d="M440.73 364.082C454.459 364.082 465.588 352.953 465.588 339.224C465.588 325.496 454.459 314.367 440.73 314.367C427.002 314.367 415.873 325.496 415.873 339.224C415.873 352.953 427.002 364.082 440.73 364.082Z" fill="white"/>
<path d="M60.6174 289.676C60.1762 289.673 59.7407 289.576 59.3398 289.392C58.9389 289.208 58.5816 288.941 58.2918 288.608C58.0019 288.276 57.786 287.885 57.6584 287.463C57.5308 287.041 57.4945 286.596 57.5517 286.159C58.3835 279.671 61.4491 274.847 65.1089 274.847C68.7686 274.847 71.8342 279.6 72.666 286.159C72.7233 286.596 72.6869 287.041 72.5593 287.463C72.4317 287.885 72.2159 288.276 71.926 288.608C71.6361 288.941 71.2789 289.208 70.878 289.392C70.477 289.576 70.0415 289.673 69.6004 289.676H60.6174Z" fill="white"/>
<path d="M506.301 301.838C505.197 301.844 504.113 301.536 503.177 300.951C502.24 300.366 501.488 299.528 501.008 298.533C500.528 297.538 500.34 296.428 500.465 295.331C500.59 294.233 501.023 293.194 501.715 292.333C503.109 290.673 504.849 289.34 506.813 288.424C508.778 287.509 510.919 287.035 513.086 287.035C515.253 287.035 517.394 287.509 519.358 288.424C521.323 289.34 523.063 290.673 524.457 292.333C525.149 293.194 525.582 294.233 525.707 295.331C525.832 296.428 525.644 297.538 525.164 298.533C524.684 299.528 523.932 300.366 522.995 300.951C522.058 301.536 520.975 301.844 519.871 301.838H506.301Z" fill="white"/>
<path d="M115.869 249.276H205.034C210.328 249.276 215.406 247.173 219.15 243.429C222.893 239.686 224.996 234.608 224.996 229.314V198.04C225.006 195.202 224.41 192.394 223.247 189.806C222.083 187.217 220.38 184.907 218.252 183.03C216.123 181.154 213.617 179.753 210.903 178.924C208.189 178.094 205.329 177.854 202.515 178.22C159.454 184.066 126.706 205.763 106.268 223.658C104.031 225.614 102.443 228.207 101.716 231.089C100.99 233.971 101.159 237.007 102.202 239.79C103.246 242.573 105.113 244.972 107.554 246.667C109.996 248.362 112.897 249.272 115.869 249.276Z" fill="white"/>
<path d="M267.203 179.811C307.009 185.895 349.904 206.736 367.015 229.503C368.374 231.359 369.191 233.555 369.376 235.848C369.56 238.141 369.105 240.44 368.061 242.49C367.016 244.539 365.424 246.258 363.46 247.456C361.496 248.654 359.239 249.284 356.938 249.275H258.862C255.2 249.275 251.688 247.82 249.099 245.231C246.509 242.642 245.055 239.13 245.055 235.468V196.731C244.936 184.897 255.511 178.029 267.203 179.811Z" fill="white"/>
</svg>
