<svg width="860" height="341" viewBox="0 0 860 341" fill="none" xmlns="http://www.w3.org/2000/svg">
<path d="M469.667 185.382C475.77 185.382 480.717 190.329 480.717 196.432V224.057C480.717 245.416 498.032 262.732 519.392 262.732C540.752 262.732 558.067 245.416 558.067 224.057V112.333H528.6V224.057C528.6 229.142 524.478 233.265 519.392 233.265C514.306 233.265 510.184 229.142 510.184 224.057V196.432C510.184 174.055 492.044 155.915 469.667 155.915V185.382Z" fill="#E9E9F1"/>
<path d="M299.667 57.3685C299.667 32.3316 319.963 12.0352 345 12.0352H424.334C449.371 12.0352 469.667 32.3316 469.667 57.3685V284.035H299.667V57.3685Z" fill="#E9E9F1"/>
<path d="M348.541 116.868C343.362 116.868 339.333 112.84 339.333 107.66V52.41C339.333 47.8058 343.362 43.2017 348.541 43.2017H422.208C426.812 43.2017 431.416 47.8058 431.416 52.41V107.66C431.416 112.84 426.812 116.868 422.208 116.868H348.541Z" fill="white"/>
<rect x="277" y="284.035" width="215.333" height="45.3333" rx="22.6667" fill="#E9E9F1"/>
<path d="M566 39.603C566 36.8963 563.971 34.7021 561.467 34.7021C558.963 34.7021 556.934 36.8963 556.934 39.603V68.7021H566V39.603Z" fill="#E9E9F1"/>
<path d="M529.734 39.603C529.734 36.8963 527.704 34.7021 525.2 34.7021C522.697 34.7021 520.667 36.8963 520.667 39.603V68.7021H529.734V39.603Z" fill="#E9E9F1"/>
<path d="M509.333 68.7021H577.333V97.0355C577.333 115.813 562.111 131.035 543.333 131.035C524.555 131.035 509.333 115.813 509.333 97.0355V68.7021Z" fill="#E9E9F1"/>
<path d="M390.706 146.652C389.302 145.385 387.497 145.385 386.094 146.652C364.839 167.766 350 195.215 350 211.473C350 238.077 365.841 253.702 388.5 253.702C411.159 253.702 427 238.077 427 211.473C427 195.004 411.961 167.766 390.706 146.652ZM388.5 244.524C377.07 244.524 369.25 236.712 369.25 225.31C369.25 222.566 370.052 213.486 385.893 195.117C387.297 193.639 389.503 193.639 390.906 195.117C406.747 213.486 407.75 222.566 407.75 225.31C407.75 236.712 399.729 244.524 388.5 244.524Z" fill="white"/>
</svg>
