<svg width="13" height="12" viewBox="0 0 13 12" fill="none" xmlns="http://www.w3.org/2000/svg">
<path d="M11.8984 9.47656C12.3555 9.89844 12.3555 10.6367 11.8984 11.0586C11.6875 11.2695 11.4062 11.375 11.125 11.375C10.8086 11.375 10.5273 11.2695 10.3164 11.0586L6.625 7.36719L2.89844 11.0586C2.6875 11.2695 2.40625 11.375 2.125 11.375C1.80859 11.375 1.52734 11.2695 1.31641 11.0586C0.859375 10.6367 0.859375 9.89844 1.31641 9.47656L5.00781 5.75L1.31641 2.05859C0.859375 1.63672 0.859375 0.898438 1.31641 0.476562C1.73828 0.0195312 2.47656 0.0195312 2.89844 0.476562L6.625 4.16797L10.3164 0.476562C10.7383 0.0195312 11.4766 0.0195312 11.8984 0.476562C12.3555 0.898438 12.3555 1.63672 11.8984 2.05859L8.20703 5.78516L11.8984 9.47656Z" fill="white"/>
</svg>
