<svg width="22" height="40" viewBox="0 0 22 40" fill="none" xmlns="http://www.w3.org/2000/svg">
<path d="M20.5312 27.8438L15.8438 23.1562C16.8984 21.5938 17.4453 19.6406 17.1719 17.5312C16.6641 13.9375 13.7344 11.0469 10.1797 10.5781C4.86719 9.91406 0.375 14.4062 1.03906 19.7188C1.50781 23.2734 4.39844 26.2031 7.99219 26.7109C10.1016 26.9844 12.0547 26.4375 13.6562 25.3828L18.3047 30.0703C18.9297 30.6562 19.9062 30.6562 20.5312 30.0703C21.1172 29.4453 21.1172 28.4688 20.5312 27.8438ZM4.08594 18.625C4.08594 15.8906 6.3125 13.625 9.08594 13.625C11.8203 13.625 14.0859 15.8906 14.0859 18.625C14.0859 21.3984 11.8203 23.625 9.08594 23.625C6.3125 23.625 4.08594 21.3984 4.08594 18.625Z" fill="white"/>
</svg>
