<svg width="24" height="24" viewBox="0 0 24 24" fill="none" xmlns="http://www.w3.org/2000/svg">
<path d="M13.5 5.5C13.5 6.34375 12.8125 7 12 7C11.1562 7 10.5 6.34375 10.5 5.5C10.5 4.6875 11.1562 4 12 4C12.8125 4 13.5 4.6875 13.5 5.5ZM13.5 18.5C13.5 19.3438 12.8125 20 12 20C11.1562 20 10.5 19.3438 10.5 18.5C10.5 17.6875 11.1562 17 12 17C12.8125 17 13.5 17.6875 13.5 18.5ZM4 12C4 11.1875 4.65625 10.5 5.5 10.5C6.3125 10.5 7 11.1875 7 12C7 12.8438 6.3125 13.5 5.5 13.5C4.65625 13.5 4 12.8438 4 12ZM20 12C20 12.8438 19.3125 13.5 18.5 13.5C17.6562 13.5 17 12.8438 17 12C17 11.1875 17.6562 10.5 18.5 10.5C19.3125 10.5 20 11.1875 20 12ZM6.3125 17.6562C5.75 17.0938 5.75 16.125 6.3125 15.5625C6.90625 14.9688 7.875 14.9688 8.4375 15.5625C9.03125 16.125 9.03125 17.0938 8.4375 17.6562C7.875 18.25 6.90625 18.25 6.3125 17.6562ZM8.4375 8.46875C7.875 9.0625 6.90625 9.0625 6.3125 8.46875C5.75 7.90625 5.75 6.9375 6.3125 6.34375C6.90625 5.78125 7.875 5.78125 8.4375 6.34375C9.03125 6.9375 9.03125 7.90625 8.4375 8.46875ZM15.5312 15.5625C16.0938 14.9688 17.0625 14.9688 17.6562 15.5625C18.2188 16.125 18.2188 17.0938 17.6562 17.6562C17.0625 18.25 16.0938 18.25 15.5312 17.6562C14.9375 17.0938 14.9375 16.125 15.5312 15.5625Z" fill="#01091D"/>
</svg>
