<?xml version="1.0" encoding="utf-8"?>
<!-- Generator: Adobe Illustrator 23.1.0, SVG Export Plug-In . SVG Version: 6.00 Build 0)  -->
<svg version="1.1" id="Calque_1" xmlns="http://www.w3.org/2000/svg" xmlns:xlink="http://www.w3.org/1999/xlink" x="0px" y="0px"
	 xml:space="preserve">
<g>
	<path style="fill:none;stroke:#141446;" d="M243.6,22.5h-16"/>
	<path style="fill:none;stroke:#141446;" d="M243.6,50.5h-16"/>
	<path style="fill:none;stroke:#141446;" d="M159.6,22.5h-16"/>
	<path style="fill:none;stroke:#141446;" d="M159.6,50.5h-16"/>
	<path style="fill:#FDCE4A;" d="M167.6,13.5c0-1.7,1.3-3,3-3h21v24h-24V13.5z"/>
	<path style="fill:#FFFFFF;" d="M167.6,38.5h24v24h-21c-1.7,0-3-1.3-3-3V38.5z"/>
	<path style="fill:#7DBE61;" d="M195.6,10.5h21c1.7,0,3,1.3,3,3v21h-24V10.5z"/>
	<path style="fill:#64ADD4;" d="M195.6,38.5h24v21c0,1.7-1.3,3-3,3h-21V38.5z"/>
	<path style="fill:#141446;" d="M6,17.9h1.5l-3,8.6H3l-3-8.6h1.4l1.8,5.3c0.1,0.3,0.2,0.6,0.3,1c0.1,0.4,0.2,0.7,0.2,0.9
		c0.1-0.3,0.1-0.6,0.2-1s0.2-0.7,0.3-0.9L6,17.9z M11,26.6c-1,0-1.8-0.3-2.4-0.9c-0.6-0.6-0.8-1.4-0.8-2.4c0-1.1,0.3-1.9,0.8-2.5
		c0.5-0.6,1.3-0.9,2.2-0.9c0.9,0,1.5,0.3,2,0.8c0.5,0.5,0.7,1.2,0.7,2.1v0.7H9.2c0,0.6,0.2,1.1,0.5,1.5c0.3,0.3,0.8,0.5,1.4,0.5
		c0.4,0,0.7,0,1.1-0.1c0.3-0.1,0.7-0.2,1.1-0.4v1.1c-0.3,0.2-0.7,0.3-1,0.3C11.9,26.6,11.5,26.6,11,26.6z M10.8,20.9
		c-0.4,0-0.8,0.1-1.1,0.4c-0.3,0.3-0.4,0.7-0.5,1.2h2.9c0-0.5-0.1-0.9-0.4-1.2C11.6,21.1,11.2,20.9,10.8,20.9z M9.9,19.2v-0.1
		c0.2-0.3,0.5-0.6,0.7-0.9c0.2-0.3,0.4-0.6,0.6-0.9h1.6v0.1c-0.2,0.2-0.5,0.5-0.9,0.9c-0.4,0.4-0.7,0.7-1,0.9H9.9z M20.6,26.5h-1.4
		v-4c0-0.5-0.1-0.9-0.3-1.1c-0.2-0.2-0.5-0.4-1-0.4c-0.6,0-1,0.2-1.3,0.5c-0.3,0.3-0.4,0.9-0.4,1.7v3.2h-1.4v-9.1h1.4v2.3
		c0,0.4,0,0.8-0.1,1.2h0.1c0.2-0.3,0.4-0.6,0.8-0.7c0.3-0.2,0.7-0.3,1.2-0.3c1.6,0,2.4,0.8,2.4,2.4V26.5z M23.6,26.5h-1.4V20h1.4
		V26.5z M22.2,18.3c0-0.2,0.1-0.4,0.2-0.6c0.1-0.1,0.3-0.2,0.6-0.2c0.2,0,0.4,0.1,0.6,0.2c0.1,0.1,0.2,0.3,0.2,0.6
		c0,0.2-0.1,0.4-0.2,0.6c-0.1,0.1-0.3,0.2-0.6,0.2c-0.3,0-0.4-0.1-0.6-0.2C22.2,18.7,22.2,18.5,22.2,18.3z M28,26.6
		c-1,0-1.7-0.3-2.2-0.9c-0.5-0.6-0.8-1.4-0.8-2.5c0-1.1,0.3-1.9,0.8-2.5c0.5-0.6,1.3-0.9,2.3-0.9c0.7,0,1.3,0.1,1.8,0.4l-0.4,1.1
		c-0.6-0.2-1.1-0.3-1.4-0.3c-1.1,0-1.7,0.7-1.7,2.2c0,0.7,0.1,1.3,0.4,1.6c0.3,0.4,0.7,0.5,1.2,0.5c0.6,0,1.2-0.2,1.7-0.5v1.2
		c-0.2,0.1-0.5,0.2-0.8,0.3C28.7,26.6,28.4,26.6,28,26.6z M35.6,26.5l-0.2-0.8h-0.1c-0.2,0.3-0.5,0.5-0.8,0.7
		c-0.4,0.2-0.8,0.3-1.2,0.3c-0.8,0-1.4-0.2-1.8-0.6c-0.4-0.4-0.6-1-0.6-1.8V20h1.4v4c0,0.5,0.1,0.9,0.3,1.1c0.2,0.2,0.5,0.4,1,0.4
		c0.6,0,1-0.2,1.3-0.5c0.3-0.3,0.4-0.9,0.4-1.7V20h1.4v6.5H35.6z M39.8,26.5h-1.4v-9.1h1.4V26.5z M44.4,26.6c-1,0-1.8-0.3-2.4-0.9
		c-0.6-0.6-0.8-1.4-0.8-2.4c0-1.1,0.3-1.9,0.8-2.5c0.5-0.6,1.3-0.9,2.2-0.9c0.9,0,1.5,0.3,2,0.8c0.5,0.5,0.7,1.2,0.7,2.1v0.7h-4.3
		c0,0.6,0.2,1.1,0.5,1.5c0.3,0.3,0.8,0.5,1.4,0.5c0.4,0,0.7,0,1.1-0.1c0.3-0.1,0.7-0.2,1.1-0.4v1.1c-0.3,0.2-0.7,0.3-1,0.3
		S44.8,26.6,44.4,26.6z M44.1,20.9c-0.4,0-0.8,0.1-1.1,0.4c-0.3,0.3-0.4,0.7-0.5,1.2h2.9c0-0.5-0.1-0.9-0.4-1.2
		C44.9,21.1,44.6,20.9,44.1,20.9z M52.6,24.7c0,0.6-0.2,1.1-0.7,1.5c-0.5,0.3-1.1,0.5-2,0.5c-0.9,0-1.6-0.1-2.1-0.4V25
		c0.8,0.4,1.5,0.5,2.1,0.5c0.8,0,1.3-0.3,1.3-0.8c0-0.2,0-0.3-0.1-0.4c-0.1-0.1-0.2-0.2-0.5-0.3c-0.2-0.1-0.5-0.3-0.9-0.4
		c-0.7-0.3-1.3-0.6-1.5-0.9c-0.3-0.3-0.4-0.7-0.4-1.1c0-0.6,0.2-1,0.7-1.3c0.4-0.3,1.1-0.5,1.8-0.5c0.8,0,1.5,0.2,2.2,0.5l-0.4,1
		c-0.7-0.3-1.3-0.4-1.8-0.4c-0.7,0-1.1,0.2-1.1,0.6c0,0.2,0.1,0.4,0.3,0.5c0.2,0.1,0.6,0.3,1.2,0.6c0.5,0.2,0.9,0.4,1.2,0.6
		c0.2,0.2,0.4,0.4,0.5,0.6C52.5,24.1,52.6,24.3,52.6,24.7z M59.6,26.6c-1,0-1.8-0.3-2.4-0.9c-0.6-0.6-0.8-1.4-0.8-2.4
		c0-1.1,0.3-1.9,0.8-2.5c0.5-0.6,1.3-0.9,2.2-0.9c0.9,0,1.5,0.3,2,0.8c0.5,0.5,0.7,1.2,0.7,2.1v0.7h-4.3c0,0.6,0.2,1.1,0.5,1.5
		c0.3,0.3,0.8,0.5,1.4,0.5c0.4,0,0.7,0,1.1-0.1c0.3-0.1,0.7-0.2,1.1-0.4v1.1c-0.3,0.2-0.7,0.3-1,0.3C60.4,26.6,60,26.6,59.6,26.6z
		 M59.3,20.9c-0.4,0-0.8,0.1-1.1,0.4c-0.3,0.3-0.4,0.7-0.5,1.2h2.9c0-0.5-0.1-0.9-0.4-1.2C60.1,21.1,59.7,20.9,59.3,20.9z
		 M58.4,19.2v-0.1c0.2-0.3,0.5-0.6,0.7-0.9c0.2-0.3,0.4-0.6,0.6-0.9h1.6v0.1c-0.2,0.2-0.5,0.5-0.9,0.9c-0.4,0.4-0.7,0.7-1,0.9H58.4z
		 M64.8,26.5h-1.4v-9.1h1.4V26.5z M69.3,26.6c-1,0-1.8-0.3-2.4-0.9c-0.6-0.6-0.8-1.4-0.8-2.4c0-1.1,0.3-1.9,0.8-2.5
		c0.5-0.6,1.3-0.9,2.2-0.9c0.9,0,1.5,0.3,2,0.8c0.5,0.5,0.7,1.2,0.7,2.1v0.7h-4.3c0,0.6,0.2,1.1,0.5,1.5c0.3,0.3,0.8,0.5,1.4,0.5
		c0.4,0,0.7,0,1.1-0.1c0.3-0.1,0.7-0.2,1.1-0.4v1.1c-0.3,0.2-0.7,0.3-1,0.3C70.2,26.6,69.8,26.6,69.3,26.6z M69.1,20.9
		c-0.4,0-0.8,0.1-1.1,0.4c-0.3,0.3-0.4,0.7-0.5,1.2h2.9c0-0.5-0.1-0.9-0.4-1.2C69.9,21.1,69.5,20.9,69.1,20.9z M75.8,26.6
		c-1,0-1.7-0.3-2.2-0.9c-0.5-0.6-0.8-1.4-0.8-2.5c0-1.1,0.3-1.9,0.8-2.5c0.5-0.6,1.3-0.9,2.3-0.9c0.7,0,1.3,0.1,1.8,0.4l-0.4,1.1
		c-0.6-0.2-1.1-0.3-1.4-0.3c-1.1,0-1.7,0.7-1.7,2.2c0,0.7,0.1,1.3,0.4,1.6c0.3,0.4,0.7,0.5,1.2,0.5c0.6,0,1.2-0.2,1.7-0.5v1.2
		c-0.2,0.1-0.5,0.2-0.8,0.3C76.5,26.6,76.2,26.6,75.8,26.6z M81.3,25.5c0.3,0,0.7-0.1,1-0.2v1c-0.2,0.1-0.4,0.1-0.6,0.2
		c-0.2,0-0.5,0.1-0.7,0.1c-1.3,0-2-0.7-2-2.1v-3.5h-0.9v-0.6l0.9-0.5l0.5-1.4h0.8V20h1.8v1h-1.8v3.5c0,0.3,0.1,0.6,0.2,0.7
		C80.8,25.4,81,25.5,81.3,25.5z M86.7,19.9c0.3,0,0.5,0,0.7,0.1l-0.1,1.3c-0.2,0-0.4-0.1-0.6-0.1c-0.6,0-1,0.2-1.3,0.5
		c-0.3,0.4-0.5,0.8-0.5,1.4v3.4h-1.4V20h1.1l0.2,1.1h0.1c0.2-0.4,0.5-0.7,0.8-0.9C85.9,20,86.3,19.9,86.7,19.9z M89.7,26.5h-1.4V20
		h1.4V26.5z M88.2,18.3c0-0.2,0.1-0.4,0.2-0.6c0.1-0.1,0.3-0.2,0.6-0.2c0.2,0,0.4,0.1,0.6,0.2c0.1,0.1,0.2,0.3,0.2,0.6
		c0,0.2-0.1,0.4-0.2,0.6c-0.1,0.1-0.3,0.2-0.6,0.2c-0.3,0-0.4-0.1-0.6-0.2C88.3,18.7,88.2,18.5,88.2,18.3z M94,25.5
		c0.6,0,1-0.2,1.2-0.5c0.3-0.3,0.4-0.8,0.4-1.5v-0.2c0-0.8-0.1-1.4-0.4-1.7C95,21.2,94.5,21,94,21c-0.5,0-0.9,0.2-1.1,0.6
		c-0.3,0.4-0.4,1-0.4,1.7C92.4,24.8,93,25.5,94,25.5z M93.6,26.6c-0.8,0-1.4-0.3-1.9-0.9c-0.5-0.6-0.7-1.4-0.7-2.5
		c0-1.1,0.2-1.9,0.7-2.5c0.5-0.6,1.1-0.9,1.9-0.9c0.4,0,0.8,0.1,1.1,0.2c0.3,0.1,0.6,0.4,0.9,0.7h0l0.2-0.8h1.1v9.4h-1.4v-2.7
		c0-0.2,0-0.4,0-0.5c0-0.2,0-0.3,0-0.4h-0.1C95.1,26.3,94.5,26.6,93.6,26.6z M103.2,26.5l-0.2-0.8H103c-0.2,0.3-0.5,0.5-0.8,0.7
		c-0.4,0.2-0.8,0.3-1.2,0.3c-0.8,0-1.4-0.2-1.8-0.6c-0.4-0.4-0.6-1-0.6-1.8V20h1.4v4c0,0.5,0.1,0.9,0.3,1.1c0.2,0.2,0.5,0.4,1,0.4
		c0.6,0,1-0.2,1.3-0.5c0.3-0.3,0.4-0.9,0.4-1.7V20h1.4v6.5H103.2z M108.9,26.6c-1,0-1.8-0.3-2.4-0.9c-0.6-0.6-0.8-1.4-0.8-2.4
		c0-1.1,0.3-1.9,0.8-2.5c0.5-0.6,1.3-0.9,2.2-0.9c0.9,0,1.5,0.3,2,0.8c0.5,0.5,0.7,1.2,0.7,2.1v0.7h-4.3c0,0.6,0.2,1.1,0.5,1.5
		c0.3,0.3,0.8,0.5,1.4,0.5c0.4,0,0.7,0,1.1-0.1c0.3-0.1,0.7-0.2,1.1-0.4v1.1c-0.3,0.2-0.7,0.3-1,0.3
		C109.7,26.6,109.3,26.6,108.9,26.6z M108.6,20.9c-0.4,0-0.8,0.1-1.1,0.4c-0.3,0.3-0.4,0.7-0.5,1.2h2.9c0-0.5-0.1-0.9-0.4-1.2
		C109.4,21.1,109,20.9,108.6,20.9z M117.1,24.7c0,0.6-0.2,1.1-0.7,1.5c-0.5,0.3-1.1,0.5-2,0.5c-0.9,0-1.6-0.1-2.1-0.4V25
		c0.8,0.4,1.5,0.5,2.1,0.5c0.8,0,1.3-0.3,1.3-0.8c0-0.2,0-0.3-0.1-0.4c-0.1-0.1-0.2-0.2-0.5-0.3c-0.2-0.1-0.5-0.3-0.9-0.4
		c-0.7-0.3-1.3-0.6-1.5-0.9c-0.3-0.3-0.4-0.7-0.4-1.1c0-0.6,0.2-1,0.7-1.3c0.4-0.3,1.1-0.5,1.8-0.5c0.8,0,1.5,0.2,2.2,0.5l-0.4,1
		c-0.7-0.3-1.3-0.4-1.8-0.4c-0.7,0-1.1,0.2-1.1,0.6c0,0.2,0.1,0.4,0.3,0.5c0.2,0.1,0.6,0.3,1.2,0.6c0.5,0.2,0.9,0.4,1.2,0.6
		c0.2,0.2,0.4,0.4,0.5,0.6C117,24.1,117.1,24.3,117.1,24.7z"/>
	<path style="fill:#141446;" d="M123.6,23c0-3.3,2.7-6,6-6c3.3,0,6,2.7,6,6c0,3.3-2.7,6-6,6C126.2,29,123.6,26.3,123.6,23z
		 M127.5,22.4c-0.3,0-0.6,0.3-0.6,0.6c0,0.3,0.2,0.6,0.6,0.6h4.1c0.3,0,0.6-0.2,0.6-0.6c0-0.3-0.3-0.6-0.6-0.6H127.5z"/>
	<path style="fill:#141446;" d="M31.8,4.5c0,0.9-0.3,1.6-0.9,2.1c-0.6,0.5-1.4,0.7-2.5,0.7h-0.9v3.2h-1.4V1.9h2.5
		c1.1,0,1.9,0.2,2.4,0.7C31.5,3,31.8,3.7,31.8,4.5z M27.5,6.1h0.7c0.7,0,1.2-0.1,1.6-0.4c0.3-0.3,0.5-0.6,0.5-1.2
		c0-0.5-0.2-0.9-0.5-1.1c-0.3-0.2-0.8-0.4-1.4-0.4h-1V6.1z M38.9,7.2c0,1.1-0.3,1.9-0.8,2.5c-0.5,0.6-1.3,0.9-2.3,0.9
		c-0.6,0-1.1-0.1-1.6-0.4c-0.5-0.3-0.8-0.7-1.1-1.2s-0.4-1.1-0.4-1.8c0-1.1,0.3-1.9,0.8-2.5c0.5-0.6,1.3-0.9,2.3-0.9
		c0.9,0,1.7,0.3,2.2,0.9C38.6,5.4,38.9,6.2,38.9,7.2z M34.1,7.2c0,1.5,0.6,2.2,1.7,2.2c1.1,0,1.6-0.7,1.6-2.2c0-1.5-0.6-2.2-1.7-2.2
		c-0.6,0-1,0.2-1.3,0.6C34.3,6,34.1,6.5,34.1,7.2z M41.6,10.5h-1.4V4h1.4V10.5z M40.1,2.3c0-0.2,0.1-0.4,0.2-0.6
		c0.1-0.1,0.3-0.2,0.6-0.2c0.2,0,0.4,0.1,0.6,0.2c0.1,0.1,0.2,0.3,0.2,0.6c0,0.2-0.1,0.4-0.2,0.6c-0.1,0.1-0.3,0.2-0.6,0.2
		c-0.3,0-0.4-0.1-0.6-0.2C40.2,2.7,40.1,2.5,40.1,2.3z M49,10.5h-1.4v-4c0-0.5-0.1-0.9-0.3-1.1c-0.2-0.2-0.5-0.4-1-0.4
		c-0.6,0-1,0.2-1.3,0.5c-0.3,0.3-0.4,0.9-0.4,1.7v3.2h-1.4V4h1.1l0.2,0.8h0.1c0.2-0.3,0.5-0.5,0.8-0.7c0.4-0.2,0.8-0.3,1.2-0.3
		c1.6,0,2.3,0.8,2.3,2.4V10.5z M53.1,9.5c0.3,0,0.7-0.1,1-0.2v1c-0.2,0.1-0.3,0.1-0.6,0.2c-0.2,0-0.5,0.1-0.7,0.1
		c-1.3,0-2-0.7-2-2.1V5.1h-0.9V4.5l0.9-0.5l0.5-1.4h0.9V4h1.8v1h-1.8v3.5c0,0.3,0.1,0.6,0.2,0.7C52.6,9.4,52.8,9.5,53.1,9.5z
		 M59.5,8.7c0,0.6-0.2,1.1-0.7,1.5c-0.5,0.3-1.1,0.5-2,0.5c-0.9,0-1.6-0.1-2.1-0.4V9c0.8,0.4,1.5,0.5,2.1,0.5c0.8,0,1.3-0.3,1.3-0.8
		c0-0.2,0-0.3-0.1-0.4C58,8.3,57.8,8.2,57.6,8c-0.2-0.1-0.5-0.3-0.9-0.4c-0.7-0.3-1.3-0.6-1.5-0.9c-0.3-0.3-0.4-0.7-0.4-1.1
		c0-0.6,0.2-1,0.7-1.3c0.4-0.3,1.1-0.5,1.8-0.5c0.8,0,1.5,0.2,2.2,0.5l-0.4,1C58.3,5.1,57.7,5,57.2,5c-0.7,0-1.1,0.2-1.1,0.6
		c0,0.2,0.1,0.4,0.3,0.5c0.2,0.1,0.6,0.3,1.2,0.6c0.5,0.2,0.9,0.4,1.2,0.6c0.2,0.2,0.4,0.4,0.5,0.6C59.5,8.1,59.5,8.3,59.5,8.7z
		 M65.9,10.6c-0.8,0-1.4-0.3-1.9-0.9c-0.5-0.6-0.7-1.4-0.7-2.5c0-1.1,0.2-1.9,0.7-2.5c0.5-0.6,1.1-0.9,1.9-0.9
		c0.9,0,1.5,0.3,1.9,0.9h0.1c-0.1-0.5-0.1-0.8-0.1-1.1V1.4h1.4v9.1h-1.1l-0.2-0.8h-0.1C67.4,10.3,66.7,10.6,65.9,10.6z M66.2,9.5
		c0.6,0,1-0.2,1.2-0.5c0.3-0.3,0.4-0.8,0.4-1.6V7.3c0-0.8-0.1-1.4-0.4-1.7C67.2,5.2,66.8,5,66.2,5c-0.5,0-0.9,0.2-1.1,0.6
		c-0.3,0.4-0.4,0.9-0.4,1.7c0,0.7,0.1,1.3,0.4,1.6C65.3,9.3,65.7,9.5,66.2,9.5z M73.7,10.6c-1,0-1.8-0.3-2.4-0.9
		c-0.6-0.6-0.8-1.4-0.8-2.4c0-1.1,0.3-1.9,0.8-2.5c0.5-0.6,1.3-0.9,2.2-0.9c0.9,0,1.5,0.3,2,0.8c0.5,0.5,0.7,1.2,0.7,2.1v0.7h-4.3
		c0,0.6,0.2,1.1,0.5,1.5c0.3,0.3,0.8,0.5,1.4,0.5c0.4,0,0.7,0,1.1-0.1c0.3-0.1,0.7-0.2,1.1-0.4v1.1c-0.3,0.2-0.7,0.3-1,0.3
		C74.6,10.6,74.2,10.6,73.7,10.6z M73.5,4.9c-0.4,0-0.8,0.1-1.1,0.4C72.2,5.6,72,6,72,6.6h2.9c0-0.5-0.1-0.9-0.4-1.2
		C74.3,5.1,73.9,4.9,73.5,4.9z M83.1,10.6c-1,0-1.7-0.3-2.2-0.9c-0.5-0.6-0.8-1.4-0.8-2.5c0-1.1,0.3-1.9,0.8-2.5
		c0.5-0.6,1.3-0.9,2.3-0.9c0.7,0,1.3,0.1,1.8,0.4l-0.4,1.1c-0.6-0.2-1.1-0.3-1.4-0.3c-1.1,0-1.7,0.7-1.7,2.2c0,0.7,0.1,1.3,0.4,1.6
		c0.3,0.4,0.7,0.5,1.2,0.5c0.6,0,1.2-0.2,1.7-0.5v1.2c-0.2,0.1-0.5,0.2-0.8,0.3C83.8,10.6,83.5,10.6,83.1,10.6z M91.9,10.5h-1.4v-4
		c0-0.5-0.1-0.9-0.3-1.1C90,5.2,89.7,5,89.2,5c-0.6,0-1,0.2-1.3,0.5c-0.3,0.3-0.4,0.9-0.4,1.7v3.2h-1.4V1.4h1.4v2.3
		c0,0.4,0,0.8-0.1,1.2h0.1c0.2-0.3,0.4-0.6,0.8-0.7c0.3-0.2,0.7-0.3,1.2-0.3c1.6,0,2.4,0.8,2.4,2.4V10.5z M97.6,10.5l-0.3-0.9h0
		c-0.3,0.4-0.6,0.7-0.9,0.8c-0.3,0.1-0.7,0.2-1.2,0.2c-0.6,0-1.1-0.2-1.5-0.5c-0.4-0.3-0.5-0.8-0.5-1.5c0-0.7,0.2-1.2,0.7-1.5
		c0.5-0.3,1.3-0.5,2.3-0.6l1.1,0V6.2c0-0.4-0.1-0.7-0.3-0.9C96.7,5.1,96.4,5,96,5c-0.3,0-0.6,0-1,0.1c-0.3,0.1-0.6,0.2-0.9,0.3
		l-0.4-1c0.4-0.2,0.7-0.3,1.2-0.4c0.4-0.1,0.8-0.1,1.2-0.1c0.8,0,1.4,0.2,1.9,0.5c0.4,0.4,0.6,0.9,0.6,1.7v4.4H97.6z M95.5,9.6
		c0.5,0,0.9-0.1,1.2-0.4C97,8.9,97.2,8.5,97.2,8V7.4l-0.8,0c-0.6,0-1.1,0.1-1.4,0.3c-0.3,0.2-0.4,0.5-0.4,0.9c0,0.3,0.1,0.5,0.3,0.7
		C94.9,9.5,95.2,9.6,95.5,9.6z M103.5,3.9c0.3,0,0.5,0,0.7,0.1l-0.1,1.3c-0.2,0-0.4-0.1-0.6-0.1c-0.6,0-1,0.2-1.3,0.5
		c-0.3,0.4-0.5,0.8-0.5,1.4v3.4h-1.4V4h1.1l0.2,1.1h0.1c0.2-0.4,0.5-0.7,0.8-0.9C102.8,4,103.1,3.9,103.5,3.9z M110.7,4v0.8L109.6,5
		c0.1,0.1,0.2,0.3,0.3,0.5c0.1,0.2,0.1,0.4,0.1,0.6c0,0.7-0.2,1.2-0.7,1.6c-0.5,0.4-1.1,0.6-1.9,0.6c-0.2,0-0.4,0-0.6,0
		c-0.3,0.2-0.4,0.4-0.4,0.6c0,0.1,0.1,0.3,0.2,0.3c0.1,0.1,0.4,0.1,0.8,0.1h1.1c0.7,0,1.3,0.2,1.6,0.5c0.4,0.3,0.6,0.7,0.6,1.3
		c0,0.7-0.3,1.3-0.9,1.7c-0.6,0.4-1.5,0.6-2.6,0.6c-0.9,0-1.6-0.2-2-0.5s-0.7-0.8-0.7-1.3c0-0.4,0.1-0.7,0.4-1
		c0.3-0.3,0.6-0.5,1.1-0.6c-0.2-0.1-0.3-0.2-0.5-0.4c-0.1-0.2-0.2-0.4-0.2-0.6c0-0.2,0.1-0.4,0.2-0.6c0.1-0.2,0.3-0.3,0.6-0.5
		c-0.3-0.1-0.6-0.4-0.8-0.7c-0.2-0.3-0.3-0.7-0.3-1.1c0-0.7,0.2-1.2,0.7-1.6c0.4-0.4,1.1-0.6,1.9-0.6c0.2,0,0.4,0,0.6,0
		c0.2,0,0.4,0,0.5,0.1H110.7z M105.6,11.5c0,0.3,0.1,0.5,0.4,0.7c0.3,0.2,0.6,0.2,1.1,0.2c0.8,0,1.3-0.1,1.7-0.3
		c0.4-0.2,0.6-0.5,0.6-0.9c0-0.3-0.1-0.5-0.3-0.6c-0.2-0.1-0.6-0.2-1.1-0.2h-1c-0.4,0-0.7,0.1-0.9,0.3
		C105.7,10.9,105.6,11.2,105.6,11.5z M106.2,6.1c0,0.4,0.1,0.7,0.3,0.9c0.2,0.2,0.5,0.3,0.9,0.3c0.8,0,1.2-0.4,1.2-1.3
		c0-0.4-0.1-0.7-0.3-1c-0.2-0.2-0.5-0.3-0.9-0.3c-0.4,0-0.7,0.1-0.9,0.3C106.3,5.4,106.2,5.7,106.2,6.1z M114.5,10.6
		c-1,0-1.8-0.3-2.4-0.9c-0.6-0.6-0.8-1.4-0.8-2.4c0-1.1,0.3-1.9,0.8-2.5c0.5-0.6,1.3-0.9,2.2-0.9c0.9,0,1.5,0.3,2,0.8
		c0.5,0.5,0.7,1.2,0.7,2.1v0.7h-4.3c0,0.6,0.2,1.1,0.5,1.5c0.3,0.3,0.8,0.5,1.4,0.5c0.4,0,0.7,0,1.1-0.1c0.3-0.1,0.7-0.2,1.1-0.4
		v1.1c-0.3,0.2-0.7,0.3-1,0.3C115.3,10.6,114.9,10.6,114.5,10.6z M114.2,4.9c-0.4,0-0.8,0.1-1.1,0.4c-0.3,0.3-0.4,0.7-0.5,1.2h2.9
		c0-0.5-0.1-0.9-0.4-1.2C115,5.1,114.7,4.9,114.2,4.9z"/>
	<path style="fill:#141446;" d="M123.6,6c0-3.3,2.7-6,6-6c3.3,0,6,2.7,6,6c0,3.3-2.7,6-6,6C126.2,12,123.6,9.3,123.6,6z M129.6,8.6
		c0.3,0,0.6-0.2,0.6-0.6V6.6h1.5c0.3,0,0.6-0.2,0.6-0.6c0-0.3-0.3-0.6-0.6-0.6h-1.5V3.9c0-0.3-0.3-0.6-0.6-0.6
		c-0.3,0-0.6,0.3-0.6,0.6v1.5h-1.5c-0.3,0-0.6,0.3-0.6,0.6c0,0.3,0.2,0.6,0.6,0.6h1.5v1.5C129,8.4,129.2,8.6,129.6,8.6z"/>
	<path style="fill:#141446;" d="M274.6,17.9h1.5l-3,8.6h-1.5l-3-8.6h1.4l1.8,5.3c0.1,0.3,0.2,0.6,0.3,1c0.1,0.4,0.2,0.7,0.2,0.9
		c0.1-0.3,0.1-0.6,0.2-1c0.1-0.4,0.2-0.7,0.3-0.9L274.6,17.9z M279.6,26.6c-1,0-1.8-0.3-2.4-0.9c-0.6-0.6-0.8-1.4-0.8-2.4
		c0-1.1,0.3-1.9,0.8-2.5c0.5-0.6,1.3-0.9,2.2-0.9c0.9,0,1.5,0.3,2,0.8c0.5,0.5,0.7,1.2,0.7,2.1v0.7h-4.3c0,0.6,0.2,1.1,0.5,1.5
		c0.3,0.3,0.8,0.5,1.4,0.5c0.4,0,0.7,0,1.1-0.1c0.3-0.1,0.7-0.2,1.1-0.4v1.1c-0.3,0.2-0.7,0.3-1,0.3C280.4,26.6,280,26.6,279.6,26.6
		z M279.4,20.9c-0.4,0-0.8,0.1-1.1,0.4c-0.3,0.3-0.4,0.7-0.5,1.2h2.9c0-0.5-0.1-0.9-0.4-1.2C280.1,21.1,279.8,20.9,279.4,20.9z
		 M278.5,19.2v-0.1c0.2-0.3,0.5-0.6,0.7-0.9c0.2-0.3,0.4-0.6,0.6-0.9h1.6v0.1c-0.2,0.2-0.5,0.5-0.9,0.9c-0.4,0.4-0.7,0.7-1,0.9
		H278.5z M289.2,26.5h-1.4v-4c0-0.5-0.1-0.9-0.3-1.1c-0.2-0.2-0.5-0.4-1-0.4c-0.6,0-1,0.2-1.3,0.5c-0.3,0.3-0.4,0.9-0.4,1.7v3.2
		h-1.4v-9.1h1.4v2.3c0,0.4,0,0.8-0.1,1.2h0.1c0.2-0.3,0.4-0.6,0.8-0.7c0.3-0.2,0.7-0.3,1.2-0.3c1.6,0,2.4,0.8,2.4,2.4V26.5z
		 M292.2,26.5h-1.4V20h1.4V26.5z M290.7,18.3c0-0.2,0.1-0.4,0.2-0.6c0.1-0.1,0.3-0.2,0.6-0.2c0.2,0,0.4,0.1,0.6,0.2
		c0.1,0.1,0.2,0.3,0.2,0.6c0,0.2-0.1,0.4-0.2,0.6c-0.1,0.1-0.3,0.2-0.6,0.2c-0.3,0-0.4-0.1-0.6-0.2
		C290.8,18.7,290.7,18.5,290.7,18.3z M296.6,26.6c-1,0-1.7-0.3-2.2-0.9c-0.5-0.6-0.8-1.4-0.8-2.5c0-1.1,0.3-1.9,0.8-2.5
		c0.5-0.6,1.3-0.9,2.3-0.9c0.7,0,1.3,0.1,1.8,0.4l-0.4,1.1c-0.6-0.2-1.1-0.3-1.4-0.3c-1.1,0-1.7,0.7-1.7,2.2c0,0.7,0.1,1.3,0.4,1.6
		c0.3,0.4,0.7,0.5,1.2,0.5c0.6,0,1.2-0.2,1.7-0.5v1.2c-0.2,0.1-0.5,0.2-0.8,0.3C297.3,26.6,297,26.6,296.6,26.6z M304.2,26.5
		l-0.2-0.8h-0.1c-0.2,0.3-0.5,0.5-0.8,0.7c-0.4,0.2-0.8,0.3-1.2,0.3c-0.8,0-1.4-0.2-1.8-0.6c-0.4-0.4-0.6-1-0.6-1.8V20h1.4v4
		c0,0.5,0.1,0.9,0.3,1.1c0.2,0.2,0.5,0.4,1,0.4c0.6,0,1-0.2,1.3-0.5c0.3-0.3,0.4-0.9,0.4-1.7V20h1.4v6.5H304.2z M308.4,26.5H307
		v-9.1h1.4V26.5z M313,26.6c-1,0-1.8-0.3-2.4-0.9c-0.6-0.6-0.9-1.4-0.9-2.4c0-1.1,0.3-1.9,0.8-2.5c0.5-0.6,1.3-0.9,2.2-0.9
		c0.9,0,1.5,0.3,2,0.8c0.5,0.5,0.7,1.2,0.7,2.1v0.7h-4.3c0,0.6,0.2,1.1,0.5,1.5c0.3,0.3,0.8,0.5,1.4,0.5c0.4,0,0.7,0,1.1-0.1
		c0.3-0.1,0.7-0.2,1.1-0.4v1.1c-0.3,0.2-0.7,0.3-1,0.3S313.4,26.6,313,26.6z M312.7,20.9c-0.4,0-0.8,0.1-1.1,0.4
		c-0.3,0.3-0.4,0.7-0.5,1.2h2.9c0-0.5-0.1-0.9-0.4-1.2C313.5,21.1,313.1,20.9,312.7,20.9z M321.2,24.7c0,0.6-0.2,1.1-0.7,1.5
		c-0.5,0.3-1.1,0.5-2,0.5c-0.9,0-1.6-0.1-2.1-0.4V25c0.8,0.4,1.5,0.5,2.1,0.5c0.8,0,1.3-0.3,1.3-0.8c0-0.2,0-0.3-0.1-0.4
		c-0.1-0.1-0.2-0.2-0.5-0.3s-0.5-0.3-0.9-0.4c-0.7-0.3-1.3-0.6-1.5-0.9c-0.3-0.3-0.4-0.7-0.4-1.1c0-0.6,0.2-1,0.7-1.3
		c0.4-0.3,1.1-0.5,1.8-0.5c0.8,0,1.5,0.2,2.2,0.5l-0.4,1c-0.7-0.3-1.3-0.4-1.8-0.4c-0.7,0-1.1,0.2-1.1,0.6c0,0.2,0.1,0.4,0.3,0.5
		c0.2,0.1,0.6,0.3,1.2,0.6c0.5,0.2,0.9,0.4,1.2,0.6s0.4,0.4,0.5,0.6C321.1,24.1,321.2,24.3,321.2,24.7z M328.1,26.6
		c-1,0-1.8-0.3-2.4-0.9c-0.6-0.6-0.8-1.4-0.8-2.4c0-1.1,0.3-1.9,0.8-2.5c0.5-0.6,1.3-0.9,2.2-0.9c0.9,0,1.5,0.3,2,0.8
		c0.5,0.5,0.7,1.2,0.7,2.1v0.7h-4.3c0,0.6,0.2,1.1,0.5,1.5c0.3,0.3,0.8,0.5,1.4,0.5c0.4,0,0.7,0,1.1-0.1c0.3-0.1,0.7-0.2,1.1-0.4
		v1.1c-0.3,0.2-0.7,0.3-1,0.3S328.6,26.6,328.1,26.6z M327.9,20.9c-0.4,0-0.8,0.1-1.1,0.4c-0.3,0.3-0.4,0.7-0.5,1.2h2.9
		c0-0.5-0.1-0.9-0.4-1.2C328.6,21.1,328.3,20.9,327.9,20.9z M327,19.2v-0.1c0.2-0.3,0.5-0.6,0.7-0.9c0.2-0.3,0.4-0.6,0.6-0.9h1.6
		v0.1c-0.2,0.2-0.5,0.5-0.9,0.9c-0.4,0.4-0.7,0.7-1,0.9H327z M333.3,26.5H332v-9.1h1.4V26.5z M337.9,26.6c-1,0-1.8-0.3-2.4-0.9
		c-0.6-0.6-0.9-1.4-0.9-2.4c0-1.1,0.3-1.9,0.8-2.5c0.5-0.6,1.3-0.9,2.2-0.9c0.9,0,1.5,0.3,2,0.8c0.5,0.5,0.7,1.2,0.7,2.1v0.7h-4.3
		c0,0.6,0.2,1.1,0.5,1.5c0.3,0.3,0.8,0.5,1.4,0.5c0.4,0,0.7,0,1.1-0.1c0.3-0.1,0.7-0.2,1.1-0.4v1.1c-0.3,0.2-0.7,0.3-1,0.3
		C338.7,26.6,338.3,26.6,337.9,26.6z M337.7,20.9c-0.4,0-0.8,0.1-1.1,0.4c-0.3,0.3-0.4,0.7-0.5,1.2h2.9c0-0.5-0.1-0.9-0.4-1.2
		C338.4,21.1,338.1,20.9,337.7,20.9z M344.4,26.6c-1,0-1.7-0.3-2.2-0.9c-0.5-0.6-0.8-1.4-0.8-2.5c0-1.1,0.3-1.9,0.8-2.5
		c0.5-0.6,1.3-0.9,2.3-0.9c0.7,0,1.3,0.1,1.8,0.4l-0.4,1.1c-0.6-0.2-1.1-0.3-1.4-0.3c-1.1,0-1.7,0.7-1.7,2.2c0,0.7,0.1,1.3,0.4,1.6
		c0.3,0.4,0.7,0.5,1.2,0.5c0.6,0,1.2-0.2,1.7-0.5v1.2c-0.2,0.1-0.5,0.2-0.8,0.3C345.1,26.6,344.8,26.6,344.4,26.6z M349.9,25.5
		c0.3,0,0.7-0.1,1-0.2v1c-0.2,0.1-0.3,0.1-0.6,0.2c-0.2,0-0.5,0.1-0.7,0.1c-1.3,0-2-0.7-2-2.1v-3.5h-0.9v-0.6l0.9-0.5l0.5-1.4h0.9
		V20h1.8v1H349v3.5c0,0.3,0.1,0.6,0.2,0.7C349.4,25.4,349.6,25.5,349.9,25.5z M355.2,19.9c0.3,0,0.5,0,0.7,0.1l-0.1,1.3
		c-0.2,0-0.4-0.1-0.6-0.1c-0.5,0-1,0.2-1.3,0.5c-0.3,0.4-0.5,0.8-0.5,1.4v3.4h-1.4V20h1.1l0.2,1.1h0.1c0.2-0.4,0.5-0.7,0.8-0.9
		C354.4,20,354.8,19.9,355.2,19.9z M358.2,26.5h-1.4V20h1.4V26.5z M356.8,18.3c0-0.2,0.1-0.4,0.2-0.6c0.1-0.1,0.3-0.2,0.6-0.2
		c0.2,0,0.4,0.1,0.6,0.2c0.1,0.1,0.2,0.3,0.2,0.6c0,0.2-0.1,0.4-0.2,0.6c-0.1,0.1-0.3,0.2-0.6,0.2c-0.3,0-0.4-0.1-0.6-0.2
		C356.9,18.7,356.8,18.5,356.8,18.3z M362.5,25.5c0.6,0,1-0.2,1.2-0.5c0.3-0.3,0.4-0.8,0.4-1.5v-0.2c0-0.8-0.1-1.4-0.4-1.7
		c-0.3-0.4-0.7-0.5-1.3-0.5c-0.5,0-0.9,0.2-1.1,0.6c-0.3,0.4-0.4,1-0.4,1.7C361,24.8,361.5,25.5,362.5,25.5z M362.2,26.6
		c-0.8,0-1.4-0.3-1.9-0.9c-0.5-0.6-0.7-1.4-0.7-2.5c0-1.1,0.2-1.9,0.7-2.5c0.5-0.6,1.1-0.9,1.9-0.9c0.4,0,0.8,0.1,1.1,0.2
		c0.3,0.1,0.6,0.4,0.9,0.7h0l0.2-0.8h1.1v9.4h-1.4v-2.7c0-0.2,0-0.4,0-0.5c0-0.2,0-0.3,0-0.4h-0.1C363.7,26.3,363,26.6,362.2,26.6z
		 M371.8,26.5l-0.2-0.8h-0.1c-0.2,0.3-0.5,0.5-0.8,0.7c-0.4,0.2-0.8,0.3-1.2,0.3c-0.8,0-1.4-0.2-1.8-0.6c-0.4-0.4-0.6-1-0.6-1.8V20
		h1.4v4c0,0.5,0.1,0.9,0.3,1.1c0.2,0.2,0.5,0.4,1,0.4c0.6,0,1-0.2,1.3-0.5c0.3-0.3,0.4-0.9,0.4-1.7V20h1.4v6.5H371.8z M377.4,26.6
		c-1,0-1.8-0.3-2.4-0.9c-0.6-0.6-0.9-1.4-0.9-2.4c0-1.1,0.3-1.9,0.8-2.5c0.5-0.6,1.3-0.9,2.2-0.9c0.9,0,1.5,0.3,2,0.8
		c0.5,0.5,0.7,1.2,0.7,2.1v0.7h-4.3c0,0.6,0.2,1.1,0.5,1.5c0.3,0.3,0.8,0.5,1.4,0.5c0.4,0,0.7,0,1.1-0.1c0.3-0.1,0.7-0.2,1.1-0.4
		v1.1c-0.3,0.2-0.7,0.3-1,0.3C378.3,26.6,377.9,26.6,377.4,26.6z M377.2,20.9c-0.4,0-0.8,0.1-1.1,0.4c-0.3,0.3-0.4,0.7-0.5,1.2h2.9
		c0-0.5-0.1-0.9-0.4-1.2C378,21.1,377.6,20.9,377.2,20.9z M385.6,24.7c0,0.6-0.2,1.1-0.7,1.5c-0.5,0.3-1.1,0.5-2,0.5
		c-0.9,0-1.6-0.1-2.1-0.4V25c0.8,0.4,1.5,0.5,2.1,0.5c0.8,0,1.3-0.3,1.3-0.8c0-0.2,0-0.3-0.1-0.4c-0.1-0.1-0.2-0.2-0.5-0.3
		c-0.2-0.1-0.5-0.3-0.9-0.4c-0.7-0.3-1.3-0.6-1.5-0.9c-0.3-0.3-0.4-0.7-0.4-1.1c0-0.6,0.2-1,0.7-1.3c0.4-0.3,1.1-0.5,1.8-0.5
		c0.8,0,1.5,0.2,2.2,0.5l-0.4,1c-0.7-0.3-1.3-0.4-1.8-0.4c-0.7,0-1.1,0.2-1.1,0.6c0,0.2,0.1,0.4,0.3,0.5c0.2,0.1,0.6,0.3,1.2,0.6
		c0.5,0.2,0.9,0.4,1.2,0.6c0.2,0.2,0.4,0.4,0.5,0.6C385.6,24.1,385.6,24.3,385.6,24.7z"/>
	<path style="fill:#141446;" d="M251.6,23c0-3.3,2.7-6,6-6c3.3,0,6,2.7,6,6c0,3.3-2.7,6-6,6C254.2,29,251.6,26.3,251.6,23z
		 M257.6,25.6c0.3,0,0.6-0.2,0.6-0.6v-1.5h1.5c0.3,0,0.6-0.2,0.6-0.6c0-0.3-0.3-0.6-0.6-0.6h-1.5v-1.5c0-0.3-0.3-0.6-0.6-0.6
		c-0.3,0-0.6,0.3-0.6,0.6v1.5h-1.5c-0.3,0-0.6,0.3-0.6,0.6c0,0.3,0.2,0.6,0.6,0.6h1.5v1.5C257,25.4,257.2,25.6,257.6,25.6z"/>
	<path style="fill:#141446;" d="M275.4,4.5c0,0.9-0.3,1.6-0.9,2.1c-0.6,0.5-1.4,0.7-2.5,0.7h-0.9v3.2h-1.4V1.9h2.5
		c1.1,0,1.9,0.2,2.4,0.7C275.1,3,275.4,3.7,275.4,4.5z M271.1,6.1h0.7c0.7,0,1.2-0.1,1.6-0.4s0.5-0.6,0.5-1.2c0-0.5-0.1-0.9-0.5-1.1
		c-0.3-0.2-0.8-0.4-1.4-0.4h-1V6.1z M282.4,7.2c0,1.1-0.3,1.9-0.8,2.5c-0.5,0.6-1.3,0.9-2.3,0.9c-0.6,0-1.1-0.1-1.6-0.4
		c-0.5-0.3-0.8-0.7-1.1-1.2s-0.4-1.1-0.4-1.8c0-1.1,0.3-1.9,0.8-2.5c0.5-0.6,1.3-0.9,2.3-0.9c0.9,0,1.7,0.3,2.2,0.9
		C282.2,5.4,282.4,6.2,282.4,7.2z M277.7,7.2c0,1.5,0.6,2.2,1.7,2.2c1.1,0,1.6-0.7,1.6-2.2c0-1.5-0.6-2.2-1.7-2.2
		c-0.6,0-1,0.2-1.3,0.6C277.9,6,277.7,6.5,277.7,7.2z M285.2,10.5h-1.4V4h1.4V10.5z M283.7,2.3c0-0.2,0.1-0.4,0.2-0.6
		c0.1-0.1,0.3-0.2,0.6-0.2c0.2,0,0.4,0.1,0.6,0.2c0.1,0.1,0.2,0.3,0.2,0.6c0,0.2-0.1,0.4-0.2,0.6c-0.1,0.1-0.3,0.2-0.6,0.2
		c-0.3,0-0.4-0.1-0.6-0.2C283.8,2.7,283.7,2.5,283.7,2.3z M292.6,10.5h-1.4v-4c0-0.5-0.1-0.9-0.3-1.1c-0.2-0.2-0.5-0.4-1-0.4
		c-0.6,0-1,0.2-1.3,0.5c-0.3,0.3-0.4,0.9-0.4,1.7v3.2h-1.4V4h1.1l0.2,0.8h0.1c0.2-0.3,0.5-0.5,0.8-0.7c0.4-0.2,0.8-0.3,1.2-0.3
		c1.6,0,2.3,0.8,2.3,2.4V10.5z M296.7,9.5c0.3,0,0.7-0.1,1-0.2v1c-0.2,0.1-0.4,0.1-0.6,0.2c-0.2,0-0.5,0.1-0.7,0.1
		c-1.3,0-2-0.7-2-2.1V5.1h-0.9V4.5l0.9-0.5l0.5-1.4h0.9V4h1.8v1h-1.8v3.5c0,0.3,0.1,0.6,0.2,0.7C296.2,9.4,296.4,9.5,296.7,9.5z
		 M303.1,8.7c0,0.6-0.2,1.1-0.7,1.5c-0.5,0.3-1.1,0.5-2,0.5c-0.9,0-1.6-0.1-2.1-0.4V9c0.8,0.4,1.5,0.5,2.1,0.5
		c0.8,0,1.3-0.3,1.3-0.8c0-0.2,0-0.3-0.1-0.4c-0.1-0.1-0.2-0.2-0.5-0.3c-0.2-0.1-0.5-0.3-0.9-0.4c-0.7-0.3-1.3-0.6-1.5-0.9
		c-0.3-0.3-0.4-0.7-0.4-1.1c0-0.6,0.2-1,0.7-1.3c0.5-0.3,1.1-0.5,1.8-0.5c0.8,0,1.5,0.2,2.2,0.5l-0.4,1c-0.7-0.3-1.3-0.4-1.8-0.4
		c-0.7,0-1.1,0.2-1.1,0.6c0,0.2,0.1,0.4,0.3,0.5c0.2,0.1,0.6,0.3,1.2,0.6c0.5,0.2,0.9,0.4,1.2,0.6c0.2,0.2,0.4,0.4,0.5,0.6
		C303.1,8.1,303.1,8.3,303.1,8.7z M309.4,10.6c-0.8,0-1.4-0.3-1.9-0.9c-0.5-0.6-0.7-1.4-0.7-2.5c0-1.1,0.2-1.9,0.7-2.5
		c0.5-0.6,1.1-0.9,1.9-0.9c0.9,0,1.5,0.3,1.9,0.9h0.1c-0.1-0.5-0.1-0.8-0.1-1.1V1.4h1.4v9.1h-1.1l-0.2-0.8h-0.1
		C310.9,10.3,310.3,10.6,309.4,10.6z M309.8,9.5c0.6,0,1-0.2,1.2-0.5c0.3-0.3,0.4-0.8,0.4-1.6V7.3c0-0.8-0.1-1.4-0.4-1.7
		c-0.3-0.3-0.7-0.5-1.2-0.5c-0.5,0-0.9,0.2-1.1,0.6c-0.3,0.4-0.4,0.9-0.4,1.7c0,0.7,0.1,1.3,0.4,1.6C308.9,9.3,309.3,9.5,309.8,9.5z
		 M317.3,10.6c-1,0-1.8-0.3-2.4-0.9c-0.6-0.6-0.9-1.4-0.9-2.4c0-1.1,0.3-1.9,0.8-2.5c0.5-0.6,1.3-0.9,2.2-0.9c0.9,0,1.5,0.3,2,0.8
		c0.5,0.5,0.7,1.2,0.7,2.1v0.7h-4.3c0,0.6,0.2,1.1,0.5,1.5c0.3,0.3,0.8,0.5,1.4,0.5c0.4,0,0.7,0,1.1-0.1c0.3-0.1,0.7-0.2,1.1-0.4
		v1.1c-0.3,0.2-0.7,0.3-1,0.3C318.1,10.6,317.8,10.6,317.3,10.6z M317.1,4.9c-0.4,0-0.8,0.1-1.1,0.4c-0.3,0.3-0.4,0.7-0.5,1.2h2.9
		c0-0.5-0.1-0.9-0.4-1.2C317.8,5.1,317.5,4.9,317.1,4.9z M326.6,10.6c-1,0-1.7-0.3-2.2-0.9c-0.5-0.6-0.8-1.4-0.8-2.5
		c0-1.1,0.3-1.9,0.8-2.5c0.5-0.6,1.3-0.9,2.3-0.9c0.7,0,1.3,0.1,1.8,0.4l-0.4,1.1c-0.6-0.2-1.1-0.3-1.4-0.3c-1.1,0-1.7,0.7-1.7,2.2
		c0,0.7,0.1,1.3,0.4,1.6c0.3,0.4,0.7,0.5,1.2,0.5c0.6,0,1.2-0.2,1.7-0.5v1.2c-0.2,0.1-0.5,0.2-0.8,0.3
		C327.4,10.6,327,10.6,326.6,10.6z M335.4,10.5h-1.4v-4c0-0.5-0.1-0.9-0.3-1.1c-0.2-0.2-0.5-0.4-1-0.4c-0.6,0-1,0.2-1.3,0.5
		c-0.3,0.3-0.4,0.9-0.4,1.7v3.2h-1.4V1.4h1.4v2.3c0,0.4,0,0.8-0.1,1.2h0.1c0.2-0.3,0.4-0.6,0.8-0.7c0.3-0.2,0.7-0.3,1.2-0.3
		c1.6,0,2.4,0.8,2.4,2.4V10.5z M341.2,10.5l-0.3-0.9h0c-0.3,0.4-0.6,0.7-0.9,0.8c-0.3,0.1-0.7,0.2-1.2,0.2c-0.6,0-1.1-0.2-1.5-0.5
		c-0.4-0.3-0.5-0.8-0.5-1.5c0-0.7,0.2-1.2,0.7-1.5c0.5-0.3,1.3-0.5,2.3-0.6l1.1,0V6.2c0-0.4-0.1-0.7-0.3-0.9
		C340.3,5.1,340,5,339.6,5c-0.3,0-0.6,0-1,0.1c-0.3,0.1-0.6,0.2-0.9,0.3l-0.4-1c0.4-0.2,0.7-0.3,1.2-0.4c0.4-0.1,0.8-0.1,1.2-0.1
		c0.8,0,1.4,0.2,1.9,0.5c0.4,0.4,0.6,0.9,0.6,1.7v4.4H341.2z M339.1,9.6c0.5,0,0.9-0.1,1.2-0.4c0.3-0.3,0.5-0.7,0.5-1.2V7.4l-0.8,0
		c-0.6,0-1.1,0.1-1.4,0.3c-0.3,0.2-0.4,0.5-0.4,0.9c0,0.3,0.1,0.5,0.3,0.7C338.5,9.5,338.8,9.6,339.1,9.6z M347.1,3.9
		c0.3,0,0.5,0,0.7,0.1l-0.1,1.3c-0.2,0-0.4-0.1-0.6-0.1c-0.6,0-1,0.2-1.3,0.5c-0.3,0.4-0.5,0.8-0.5,1.4v3.4h-1.4V4h1.1l0.2,1.1h0.1
		c0.2-0.4,0.5-0.7,0.8-0.9C346.3,4,346.7,3.9,347.1,3.9z M354.2,4v0.8L353.1,5c0.1,0.1,0.2,0.3,0.3,0.5c0.1,0.2,0.1,0.4,0.1,0.6
		c0,0.7-0.2,1.2-0.7,1.6c-0.5,0.4-1.1,0.6-1.9,0.6c-0.2,0-0.4,0-0.6,0c-0.3,0.2-0.4,0.4-0.4,0.6c0,0.1,0.1,0.3,0.2,0.3
		c0.1,0.1,0.4,0.1,0.8,0.1h1.1c0.7,0,1.3,0.2,1.6,0.5c0.4,0.3,0.6,0.7,0.6,1.3c0,0.7-0.3,1.3-0.9,1.7c-0.6,0.4-1.5,0.6-2.6,0.6
		c-0.9,0-1.6-0.2-2-0.5c-0.5-0.3-0.7-0.8-0.7-1.3c0-0.4,0.1-0.7,0.4-1c0.3-0.3,0.6-0.5,1.1-0.6c-0.2-0.1-0.3-0.2-0.5-0.4
		c-0.1-0.2-0.2-0.4-0.2-0.6c0-0.2,0.1-0.4,0.2-0.6c0.1-0.2,0.3-0.3,0.6-0.5c-0.3-0.1-0.6-0.4-0.8-0.7c-0.2-0.3-0.3-0.7-0.3-1.1
		c0-0.7,0.2-1.2,0.7-1.6c0.4-0.4,1.1-0.6,1.9-0.6c0.2,0,0.4,0,0.6,0c0.2,0,0.4,0,0.5,0.1H354.2z M349.2,11.5c0,0.3,0.1,0.5,0.4,0.7
		c0.3,0.2,0.6,0.2,1.1,0.2c0.8,0,1.3-0.1,1.7-0.3c0.4-0.2,0.6-0.5,0.6-0.9c0-0.3-0.1-0.5-0.3-0.6c-0.2-0.1-0.6-0.2-1.1-0.2h-1
		c-0.4,0-0.7,0.1-0.9,0.3C349.3,10.9,349.2,11.2,349.2,11.5z M349.7,6.1c0,0.4,0.1,0.7,0.3,0.9c0.2,0.2,0.5,0.3,0.9,0.3
		c0.8,0,1.2-0.4,1.2-1.3c0-0.4-0.1-0.7-0.3-1c-0.2-0.2-0.5-0.3-0.9-0.3c-0.4,0-0.7,0.1-0.9,0.3C349.8,5.4,349.7,5.7,349.7,6.1z
		 M358,10.6c-1,0-1.8-0.3-2.4-0.9c-0.6-0.6-0.9-1.4-0.9-2.4c0-1.1,0.3-1.9,0.8-2.5c0.5-0.6,1.3-0.9,2.2-0.9c0.9,0,1.5,0.3,2,0.8
		c0.5,0.5,0.7,1.2,0.7,2.1v0.7h-4.3c0,0.6,0.2,1.1,0.5,1.5c0.3,0.3,0.8,0.5,1.4,0.5c0.4,0,0.7,0,1.1-0.1c0.3-0.1,0.7-0.2,1.1-0.4
		v1.1c-0.3,0.2-0.7,0.3-1,0.3C358.9,10.6,358.5,10.6,358,10.6z M357.8,4.9c-0.4,0-0.8,0.1-1.1,0.4c-0.3,0.3-0.4,0.7-0.5,1.2h2.9
		c0-0.5-0.1-0.9-0.4-1.2C358.6,5.1,358.2,4.9,357.8,4.9z"/>
	<path style="fill:#141446;" d="M251.6,6c0-3.3,2.7-6,6-6c3.3,0,6,2.7,6,6c0,3.3-2.7,6-6,6C254.2,12,251.6,9.3,251.6,6z M257.6,8.6
		c0.3,0,0.6-0.2,0.6-0.6V6.6h1.5c0.3,0,0.6-0.2,0.6-0.6c0-0.3-0.3-0.6-0.6-0.6h-1.5V3.9c0-0.3-0.3-0.6-0.6-0.6
		c-0.3,0-0.6,0.3-0.6,0.6v1.5h-1.5c-0.3,0-0.6,0.3-0.6,0.6c0,0.3,0.2,0.6,0.6,0.6h1.5v1.5C257,8.4,257.2,8.6,257.6,8.6z"/>
	<path style="fill:#141446;" d="M274.6,62.9h1.5l-3,8.6h-1.5l-3-8.6h1.4l1.8,5.3c0.1,0.3,0.2,0.6,0.3,1c0.1,0.4,0.2,0.7,0.2,0.9
		c0.1-0.3,0.1-0.6,0.2-1c0.1-0.4,0.2-0.7,0.3-0.9L274.6,62.9z M279.6,71.6c-1,0-1.8-0.3-2.4-0.9c-0.6-0.6-0.8-1.4-0.8-2.4
		c0-1.1,0.3-1.9,0.8-2.5c0.5-0.6,1.3-0.9,2.2-0.9c0.9,0,1.5,0.3,2,0.8c0.5,0.5,0.7,1.2,0.7,2.1v0.7h-4.3c0,0.6,0.2,1.1,0.5,1.5
		c0.3,0.3,0.8,0.5,1.4,0.5c0.4,0,0.7,0,1.1-0.1c0.3-0.1,0.7-0.2,1.1-0.4v1.1c-0.3,0.2-0.7,0.3-1,0.3C280.4,71.6,280,71.6,279.6,71.6
		z M279.4,65.9c-0.4,0-0.8,0.1-1.1,0.4c-0.3,0.3-0.4,0.7-0.5,1.2h2.9c0-0.5-0.1-0.9-0.4-1.2C280.1,66.1,279.8,65.9,279.4,65.9z
		 M278.5,64.2v-0.1c0.2-0.3,0.5-0.6,0.7-0.9c0.2-0.3,0.4-0.6,0.6-0.9h1.6v0.1c-0.2,0.2-0.5,0.5-0.9,0.9c-0.4,0.4-0.7,0.7-1,0.9
		H278.5z M289.2,71.5h-1.4v-4c0-0.5-0.1-0.9-0.3-1.1c-0.2-0.2-0.5-0.4-1-0.4c-0.6,0-1,0.2-1.3,0.5c-0.3,0.3-0.4,0.9-0.4,1.7v3.2
		h-1.4v-9.1h1.4v2.3c0,0.4,0,0.8-0.1,1.2h0.1c0.2-0.3,0.4-0.6,0.8-0.7c0.3-0.2,0.7-0.3,1.2-0.3c1.6,0,2.4,0.8,2.4,2.4V71.5z
		 M292.2,71.5h-1.4V65h1.4V71.5z M290.7,63.3c0-0.2,0.1-0.4,0.2-0.6c0.1-0.1,0.3-0.2,0.6-0.2c0.2,0,0.4,0.1,0.6,0.2
		c0.1,0.1,0.2,0.3,0.2,0.6c0,0.2-0.1,0.4-0.2,0.6c-0.1,0.1-0.3,0.2-0.6,0.2c-0.3,0-0.4-0.1-0.6-0.2
		C290.8,63.7,290.7,63.5,290.7,63.3z M296.6,71.6c-1,0-1.7-0.3-2.2-0.9c-0.5-0.6-0.8-1.4-0.8-2.5c0-1.1,0.3-1.9,0.8-2.5
		c0.5-0.6,1.3-0.9,2.3-0.9c0.7,0,1.3,0.1,1.8,0.4l-0.4,1.1c-0.6-0.2-1.1-0.3-1.4-0.3c-1.1,0-1.7,0.7-1.7,2.2c0,0.7,0.1,1.3,0.4,1.6
		c0.3,0.4,0.7,0.5,1.2,0.5c0.6,0,1.2-0.2,1.7-0.5v1.2c-0.2,0.1-0.5,0.2-0.8,0.3C297.3,71.6,297,71.6,296.6,71.6z M304.2,71.5
		l-0.2-0.8h-0.1c-0.2,0.3-0.5,0.5-0.8,0.7c-0.4,0.2-0.8,0.3-1.2,0.3c-0.8,0-1.4-0.2-1.8-0.6c-0.4-0.4-0.6-1-0.6-1.8V65h1.4v4
		c0,0.5,0.1,0.9,0.3,1.1c0.2,0.2,0.5,0.4,1,0.4c0.6,0,1-0.2,1.3-0.5c0.3-0.3,0.4-0.9,0.4-1.7V65h1.4v6.5H304.2z M308.4,71.5H307
		v-9.1h1.4V71.5z M313,71.6c-1,0-1.8-0.3-2.4-0.9c-0.6-0.6-0.9-1.4-0.9-2.4c0-1.1,0.3-1.9,0.8-2.5c0.5-0.6,1.3-0.9,2.2-0.9
		c0.9,0,1.5,0.3,2,0.8c0.5,0.5,0.7,1.2,0.7,2.1v0.7h-4.3c0,0.6,0.2,1.1,0.5,1.5c0.3,0.3,0.8,0.5,1.4,0.5c0.4,0,0.7,0,1.1-0.1
		c0.3-0.1,0.7-0.2,1.1-0.4v1.1c-0.3,0.2-0.7,0.3-1,0.3C313.8,71.6,313.4,71.6,313,71.6z M312.7,65.9c-0.4,0-0.8,0.1-1.1,0.4
		c-0.3,0.3-0.4,0.7-0.5,1.2h2.9c0-0.5-0.1-0.9-0.4-1.2C313.5,66.1,313.1,65.9,312.7,65.9z M321.2,69.7c0,0.6-0.2,1.1-0.7,1.5
		c-0.5,0.3-1.1,0.5-2,0.5c-0.9,0-1.6-0.1-2.1-0.4V70c0.8,0.4,1.5,0.5,2.1,0.5c0.8,0,1.3-0.3,1.3-0.8c0-0.2,0-0.3-0.1-0.4
		c-0.1-0.1-0.2-0.2-0.5-0.3c-0.2-0.1-0.5-0.3-0.9-0.4c-0.7-0.3-1.3-0.6-1.5-0.9c-0.3-0.3-0.4-0.7-0.4-1.1c0-0.6,0.2-1,0.7-1.3
		c0.4-0.3,1.1-0.5,1.8-0.5c0.8,0,1.5,0.2,2.2,0.5l-0.4,1c-0.7-0.3-1.3-0.4-1.8-0.4c-0.7,0-1.1,0.2-1.1,0.6c0,0.2,0.1,0.4,0.3,0.5
		c0.2,0.1,0.6,0.3,1.2,0.6c0.5,0.2,0.9,0.4,1.2,0.6c0.2,0.2,0.4,0.4,0.5,0.6C321.1,69.1,321.2,69.3,321.2,69.7z M328.1,71.6
		c-1,0-1.8-0.3-2.4-0.9c-0.6-0.6-0.8-1.4-0.8-2.4c0-1.1,0.3-1.9,0.8-2.5c0.5-0.6,1.3-0.9,2.2-0.9c0.9,0,1.5,0.3,2,0.8
		c0.5,0.5,0.7,1.2,0.7,2.1v0.7h-4.3c0,0.6,0.2,1.1,0.5,1.5c0.3,0.3,0.8,0.5,1.4,0.5c0.4,0,0.7,0,1.1-0.1c0.3-0.1,0.7-0.2,1.1-0.4
		v1.1c-0.3,0.2-0.7,0.3-1,0.3C329,71.6,328.6,71.6,328.1,71.6z M327.9,65.9c-0.4,0-0.8,0.1-1.1,0.4c-0.3,0.3-0.4,0.7-0.5,1.2h2.9
		c0-0.5-0.1-0.9-0.4-1.2C328.6,66.1,328.3,65.9,327.9,65.9z M327,64.2v-0.1c0.2-0.3,0.5-0.6,0.7-0.9c0.2-0.3,0.4-0.6,0.6-0.9h1.6
		v0.1c-0.2,0.2-0.5,0.5-0.9,0.9c-0.4,0.4-0.7,0.7-1,0.9H327z M333.3,71.5H332v-9.1h1.4V71.5z M337.9,71.6c-1,0-1.8-0.3-2.4-0.9
		c-0.6-0.6-0.9-1.4-0.9-2.4c0-1.1,0.3-1.9,0.8-2.5c0.5-0.6,1.3-0.9,2.2-0.9c0.9,0,1.5,0.3,2,0.8c0.5,0.5,0.7,1.2,0.7,2.1v0.7h-4.3
		c0,0.6,0.2,1.1,0.5,1.5c0.3,0.3,0.8,0.5,1.4,0.5c0.4,0,0.7,0,1.1-0.1c0.3-0.1,0.7-0.2,1.1-0.4v1.1c-0.3,0.2-0.7,0.3-1,0.3
		C338.7,71.6,338.3,71.6,337.9,71.6z M337.7,65.9c-0.4,0-0.8,0.1-1.1,0.4c-0.3,0.3-0.4,0.7-0.5,1.2h2.9c0-0.5-0.1-0.9-0.4-1.2
		C338.4,66.1,338.1,65.9,337.7,65.9z M344.4,71.6c-1,0-1.7-0.3-2.2-0.9c-0.5-0.6-0.8-1.4-0.8-2.5c0-1.1,0.3-1.9,0.8-2.5
		c0.5-0.6,1.3-0.9,2.3-0.9c0.7,0,1.3,0.1,1.8,0.4l-0.4,1.1c-0.6-0.2-1.1-0.3-1.4-0.3c-1.1,0-1.7,0.7-1.7,2.2c0,0.7,0.1,1.3,0.4,1.6
		c0.3,0.4,0.7,0.5,1.2,0.5c0.6,0,1.2-0.2,1.7-0.5v1.2c-0.2,0.1-0.5,0.2-0.8,0.3C345.1,71.6,344.8,71.6,344.4,71.6z M349.9,70.5
		c0.3,0,0.7-0.1,1-0.2v1c-0.2,0.1-0.3,0.1-0.6,0.2c-0.2,0-0.5,0.1-0.7,0.1c-1.3,0-2-0.7-2-2.1v-3.5h-0.9v-0.6l0.9-0.5l0.5-1.4h0.9
		V65h1.8v1H349v3.5c0,0.3,0.1,0.6,0.2,0.7C349.4,70.4,349.6,70.5,349.9,70.5z M355.2,64.9c0.3,0,0.5,0,0.7,0.1l-0.1,1.3
		c-0.2,0-0.4-0.1-0.6-0.1c-0.5,0-1,0.2-1.3,0.5c-0.3,0.4-0.5,0.8-0.5,1.4v3.4h-1.4V65h1.1l0.2,1.1h0.1c0.2-0.4,0.5-0.7,0.8-0.9
		C354.4,65,354.8,64.9,355.2,64.9z M358.2,71.5h-1.4V65h1.4V71.5z M356.8,63.3c0-0.2,0.1-0.4,0.2-0.6c0.1-0.1,0.3-0.2,0.6-0.2
		c0.2,0,0.4,0.1,0.6,0.2c0.1,0.1,0.2,0.3,0.2,0.6c0,0.2-0.1,0.4-0.2,0.6c-0.1,0.1-0.3,0.2-0.6,0.2c-0.3,0-0.4-0.1-0.6-0.2
		C356.9,63.7,356.8,63.5,356.8,63.3z M362.5,70.5c0.6,0,1-0.2,1.2-0.5c0.3-0.3,0.4-0.8,0.4-1.5v-0.2c0-0.8-0.1-1.4-0.4-1.7
		c-0.3-0.4-0.7-0.5-1.3-0.5c-0.5,0-0.9,0.2-1.1,0.6c-0.3,0.4-0.4,1-0.4,1.7C361,69.8,361.5,70.5,362.5,70.5z M362.2,71.6
		c-0.8,0-1.4-0.3-1.9-0.9c-0.5-0.6-0.7-1.4-0.7-2.5c0-1.1,0.2-1.9,0.7-2.5c0.5-0.6,1.1-0.9,1.9-0.9c0.4,0,0.8,0.1,1.1,0.2
		c0.3,0.1,0.6,0.4,0.9,0.7h0l0.2-0.8h1.1v9.4h-1.4v-2.7c0-0.2,0-0.4,0-0.5c0-0.2,0-0.3,0-0.4h-0.1C363.7,71.3,363,71.6,362.2,71.6z
		 M371.8,71.5l-0.2-0.8h-0.1c-0.2,0.3-0.5,0.5-0.8,0.7c-0.4,0.2-0.8,0.3-1.2,0.3c-0.8,0-1.4-0.2-1.8-0.6c-0.4-0.4-0.6-1-0.6-1.8V65
		h1.4v4c0,0.5,0.1,0.9,0.3,1.1c0.2,0.2,0.5,0.4,1,0.4c0.6,0,1-0.2,1.3-0.5c0.3-0.3,0.4-0.9,0.4-1.7V65h1.4v6.5H371.8z M377.4,71.6
		c-1,0-1.8-0.3-2.4-0.9c-0.6-0.6-0.9-1.4-0.9-2.4c0-1.1,0.3-1.9,0.8-2.5c0.5-0.6,1.3-0.9,2.2-0.9c0.9,0,1.5,0.3,2,0.8
		c0.5,0.5,0.7,1.2,0.7,2.1v0.7h-4.3c0,0.6,0.2,1.1,0.5,1.5c0.3,0.3,0.8,0.5,1.4,0.5c0.4,0,0.7,0,1.1-0.1c0.3-0.1,0.7-0.2,1.1-0.4
		v1.1c-0.3,0.2-0.7,0.3-1,0.3C378.3,71.6,377.9,71.6,377.4,71.6z M377.2,65.9c-0.4,0-0.8,0.1-1.1,0.4c-0.3,0.3-0.4,0.7-0.5,1.2h2.9
		c0-0.5-0.1-0.9-0.4-1.2C378,66.1,377.6,65.9,377.2,65.9z M385.6,69.7c0,0.6-0.2,1.1-0.7,1.5c-0.5,0.3-1.1,0.5-2,0.5
		c-0.9,0-1.6-0.1-2.1-0.4V70c0.8,0.4,1.5,0.5,2.1,0.5c0.8,0,1.3-0.3,1.3-0.8c0-0.2,0-0.3-0.1-0.4c-0.1-0.1-0.2-0.2-0.5-0.3
		c-0.2-0.1-0.5-0.3-0.9-0.4c-0.7-0.3-1.3-0.6-1.5-0.9c-0.3-0.3-0.4-0.7-0.4-1.1c0-0.6,0.2-1,0.7-1.3c0.4-0.3,1.1-0.5,1.8-0.5
		c0.8,0,1.5,0.2,2.2,0.5l-0.4,1c-0.7-0.3-1.3-0.4-1.8-0.4c-0.7,0-1.1,0.2-1.1,0.6c0,0.2,0.1,0.4,0.3,0.5c0.2,0.1,0.6,0.3,1.2,0.6
		c0.5,0.2,0.9,0.4,1.2,0.6c0.2,0.2,0.4,0.4,0.5,0.6C385.6,69.1,385.6,69.3,385.6,69.7z"/>
	<path style="fill:#141446;" d="M251.6,68c0-3.3,2.7-6,6-6c3.3,0,6,2.7,6,6c0,3.3-2.7,6-6,6C254.2,74,251.6,71.3,251.6,68z
		 M257.6,70.6c0.3,0,0.6-0.2,0.6-0.6v-1.5h1.5c0.3,0,0.6-0.2,0.6-0.6c0-0.3-0.3-0.6-0.6-0.6h-1.5v-1.5c0-0.3-0.3-0.6-0.6-0.6
		c-0.3,0-0.6,0.3-0.6,0.6v1.5h-1.5c-0.3,0-0.6,0.3-0.6,0.6c0,0.3,0.2,0.6,0.6,0.6h1.5v1.5C257,70.4,257.2,70.6,257.6,70.6z"/>
	<path style="fill:#141446;" d="M275.4,49.5c0,0.9-0.3,1.6-0.9,2.1c-0.6,0.5-1.4,0.7-2.5,0.7h-0.9v3.2h-1.4v-8.6h2.5
		c1.1,0,1.9,0.2,2.4,0.7C275.1,48,275.4,48.7,275.4,49.5z M271.1,51.1h0.7c0.7,0,1.2-0.1,1.6-0.4s0.5-0.6,0.5-1.2
		c0-0.5-0.1-0.9-0.5-1.1c-0.3-0.2-0.8-0.4-1.4-0.4h-1V51.1z M282.4,52.2c0,1.1-0.3,1.9-0.8,2.5c-0.5,0.6-1.3,0.9-2.3,0.9
		c-0.6,0-1.1-0.1-1.6-0.4c-0.5-0.3-0.8-0.7-1.1-1.2c-0.3-0.5-0.4-1.1-0.4-1.8c0-1.1,0.3-1.9,0.8-2.5c0.5-0.6,1.3-0.9,2.3-0.9
		c0.9,0,1.7,0.3,2.2,0.9C282.2,50.4,282.4,51.2,282.4,52.2z M277.7,52.2c0,1.5,0.6,2.2,1.7,2.2c1.1,0,1.6-0.7,1.6-2.2
		c0-1.5-0.6-2.2-1.7-2.2c-0.6,0-1,0.2-1.3,0.6C277.9,51,277.7,51.5,277.7,52.2z M285.2,55.5h-1.4V49h1.4V55.5z M283.7,47.3
		c0-0.2,0.1-0.4,0.2-0.6c0.1-0.1,0.3-0.2,0.6-0.2c0.2,0,0.4,0.1,0.6,0.2c0.1,0.1,0.2,0.3,0.2,0.6c0,0.2-0.1,0.4-0.2,0.6
		c-0.1,0.1-0.3,0.2-0.6,0.2c-0.3,0-0.4-0.1-0.6-0.2C283.8,47.7,283.7,47.5,283.7,47.3z M292.6,55.5h-1.4v-4c0-0.5-0.1-0.9-0.3-1.1
		c-0.2-0.2-0.5-0.4-1-0.4c-0.6,0-1,0.2-1.3,0.5c-0.3,0.3-0.4,0.9-0.4,1.7v3.2h-1.4V49h1.1l0.2,0.8h0.1c0.2-0.3,0.5-0.5,0.8-0.7
		c0.4-0.2,0.8-0.3,1.2-0.3c1.6,0,2.3,0.8,2.3,2.4V55.5z M296.7,54.5c0.3,0,0.7-0.1,1-0.2v1c-0.2,0.1-0.4,0.1-0.6,0.2
		c-0.2,0-0.5,0.1-0.7,0.1c-1.3,0-2-0.7-2-2.1v-3.5h-0.9v-0.6l0.9-0.5l0.5-1.4h0.9V49h1.8v1h-1.8v3.5c0,0.3,0.1,0.6,0.2,0.7
		C296.2,54.4,296.4,54.5,296.7,54.5z M303.1,53.7c0,0.6-0.2,1.1-0.7,1.5c-0.5,0.3-1.1,0.5-2,0.5c-0.9,0-1.6-0.1-2.1-0.4V54
		c0.8,0.4,1.5,0.5,2.1,0.5c0.8,0,1.3-0.3,1.3-0.8c0-0.2,0-0.3-0.1-0.4c-0.1-0.1-0.2-0.2-0.5-0.3s-0.5-0.3-0.9-0.4
		c-0.7-0.3-1.3-0.6-1.5-0.9c-0.3-0.3-0.4-0.7-0.4-1.1c0-0.6,0.2-1,0.7-1.3c0.5-0.3,1.1-0.5,1.8-0.5c0.8,0,1.5,0.2,2.2,0.5l-0.4,1
		c-0.7-0.3-1.3-0.4-1.8-0.4c-0.7,0-1.1,0.2-1.1,0.6c0,0.2,0.1,0.4,0.3,0.5c0.2,0.1,0.6,0.3,1.2,0.6c0.5,0.2,0.9,0.4,1.2,0.6
		s0.4,0.4,0.5,0.6C303.1,53.1,303.1,53.3,303.1,53.7z M309.4,55.6c-0.8,0-1.4-0.3-1.9-0.9c-0.5-0.6-0.7-1.4-0.7-2.5
		c0-1.1,0.2-1.9,0.7-2.5c0.5-0.6,1.1-0.9,1.9-0.9c0.9,0,1.5,0.3,1.9,0.9h0.1c-0.1-0.5-0.1-0.8-0.1-1.1v-2.4h1.4v9.1h-1.1l-0.2-0.8
		h-0.1C310.9,55.3,310.3,55.6,309.4,55.6z M309.8,54.5c0.6,0,1-0.2,1.2-0.5c0.3-0.3,0.4-0.8,0.4-1.6v-0.2c0-0.8-0.1-1.4-0.4-1.7
		c-0.3-0.3-0.7-0.5-1.2-0.5c-0.5,0-0.9,0.2-1.1,0.6c-0.3,0.4-0.4,0.9-0.4,1.7c0,0.7,0.1,1.3,0.4,1.6
		C308.9,54.3,309.3,54.5,309.8,54.5z M317.3,55.6c-1,0-1.8-0.3-2.4-0.9c-0.6-0.6-0.9-1.4-0.9-2.4c0-1.1,0.3-1.9,0.8-2.5
		c0.5-0.6,1.3-0.9,2.2-0.9c0.9,0,1.5,0.3,2,0.8c0.5,0.5,0.7,1.2,0.7,2.1v0.7h-4.3c0,0.6,0.2,1.1,0.5,1.5c0.3,0.3,0.8,0.5,1.4,0.5
		c0.4,0,0.7,0,1.1-0.1c0.3-0.1,0.7-0.2,1.1-0.4v1.1c-0.3,0.2-0.7,0.3-1,0.3C318.1,55.6,317.8,55.6,317.3,55.6z M317.1,49.9
		c-0.4,0-0.8,0.1-1.1,0.4c-0.3,0.3-0.4,0.7-0.5,1.2h2.9c0-0.5-0.1-0.9-0.4-1.2C317.8,50.1,317.5,49.9,317.1,49.9z M326.6,55.6
		c-1,0-1.7-0.3-2.2-0.9c-0.5-0.6-0.8-1.4-0.8-2.5c0-1.1,0.3-1.9,0.8-2.5c0.5-0.6,1.3-0.9,2.3-0.9c0.7,0,1.3,0.1,1.8,0.4l-0.4,1.1
		c-0.6-0.2-1.1-0.3-1.4-0.3c-1.1,0-1.7,0.7-1.7,2.2c0,0.7,0.1,1.3,0.4,1.6c0.3,0.4,0.7,0.5,1.2,0.5c0.6,0,1.2-0.2,1.7-0.5v1.2
		c-0.2,0.1-0.5,0.2-0.8,0.3C327.4,55.6,327,55.6,326.6,55.6z M335.4,55.5h-1.4v-4c0-0.5-0.1-0.9-0.3-1.1c-0.2-0.2-0.5-0.4-1-0.4
		c-0.6,0-1,0.2-1.3,0.5c-0.3,0.3-0.4,0.9-0.4,1.7v3.2h-1.4v-9.1h1.4v2.3c0,0.4,0,0.8-0.1,1.2h0.1c0.2-0.3,0.4-0.6,0.8-0.7
		c0.3-0.2,0.7-0.3,1.2-0.3c1.6,0,2.4,0.8,2.4,2.4V55.5z M341.2,55.5l-0.3-0.9h0c-0.3,0.4-0.6,0.7-0.9,0.8c-0.3,0.1-0.7,0.2-1.2,0.2
		c-0.6,0-1.1-0.2-1.5-0.5c-0.4-0.3-0.5-0.8-0.5-1.5c0-0.7,0.2-1.2,0.7-1.5c0.5-0.3,1.3-0.5,2.3-0.6l1.1,0v-0.3
		c0-0.4-0.1-0.7-0.3-0.9c-0.2-0.2-0.5-0.3-0.9-0.3c-0.3,0-0.6,0-1,0.1c-0.3,0.1-0.6,0.2-0.9,0.3l-0.4-1c0.4-0.2,0.7-0.3,1.2-0.4
		c0.4-0.1,0.8-0.1,1.2-0.1c0.8,0,1.4,0.2,1.9,0.5c0.4,0.4,0.6,0.9,0.6,1.7v4.4H341.2z M339.1,54.6c0.5,0,0.9-0.1,1.2-0.4
		c0.3-0.3,0.5-0.7,0.5-1.2v-0.6l-0.8,0c-0.6,0-1.1,0.1-1.4,0.3c-0.3,0.2-0.4,0.5-0.4,0.9c0,0.3,0.1,0.5,0.3,0.7
		C338.5,54.5,338.8,54.6,339.1,54.6z M347.1,48.9c0.3,0,0.5,0,0.7,0.1l-0.1,1.3c-0.2,0-0.4-0.1-0.6-0.1c-0.6,0-1,0.2-1.3,0.5
		c-0.3,0.4-0.5,0.8-0.5,1.4v3.4h-1.4V49h1.1l0.2,1.1h0.1c0.2-0.4,0.5-0.7,0.8-0.9C346.3,49,346.7,48.9,347.1,48.9z M354.2,49v0.8
		l-1.1,0.2c0.1,0.1,0.2,0.3,0.3,0.5c0.1,0.2,0.1,0.4,0.1,0.6c0,0.7-0.2,1.2-0.7,1.6c-0.5,0.4-1.1,0.6-1.9,0.6c-0.2,0-0.4,0-0.6,0
		c-0.3,0.2-0.4,0.4-0.4,0.6c0,0.1,0.1,0.3,0.2,0.3c0.1,0.1,0.4,0.1,0.8,0.1h1.1c0.7,0,1.3,0.2,1.6,0.5s0.6,0.7,0.6,1.3
		c0,0.7-0.3,1.3-0.9,1.7c-0.6,0.4-1.5,0.6-2.6,0.6c-0.9,0-1.6-0.2-2-0.5c-0.5-0.3-0.7-0.8-0.7-1.3c0-0.4,0.1-0.7,0.4-1
		c0.3-0.3,0.6-0.5,1.1-0.6c-0.2-0.1-0.3-0.2-0.5-0.4c-0.1-0.2-0.2-0.4-0.2-0.6c0-0.2,0.1-0.4,0.2-0.6c0.1-0.2,0.3-0.3,0.6-0.5
		c-0.3-0.1-0.6-0.4-0.8-0.7c-0.2-0.3-0.3-0.7-0.3-1.1c0-0.7,0.2-1.2,0.7-1.6c0.4-0.4,1.1-0.6,1.9-0.6c0.2,0,0.4,0,0.6,0
		c0.2,0,0.4,0,0.5,0.1H354.2z M349.2,56.5c0,0.3,0.1,0.5,0.4,0.7c0.3,0.2,0.6,0.2,1.1,0.2c0.8,0,1.3-0.1,1.7-0.3
		c0.4-0.2,0.6-0.5,0.6-0.9c0-0.3-0.1-0.5-0.3-0.6c-0.2-0.1-0.6-0.2-1.1-0.2h-1c-0.4,0-0.7,0.1-0.9,0.3
		C349.3,55.9,349.2,56.2,349.2,56.5z M349.7,51.1c0,0.4,0.1,0.7,0.3,0.9c0.2,0.2,0.5,0.3,0.9,0.3c0.8,0,1.2-0.4,1.2-1.3
		c0-0.4-0.1-0.7-0.3-1c-0.2-0.2-0.5-0.3-0.9-0.3c-0.4,0-0.7,0.1-0.9,0.3C349.8,50.4,349.7,50.7,349.7,51.1z M358,55.6
		c-1,0-1.8-0.3-2.4-0.9c-0.6-0.6-0.9-1.4-0.9-2.4c0-1.1,0.3-1.9,0.8-2.5c0.5-0.6,1.3-0.9,2.2-0.9c0.9,0,1.5,0.3,2,0.8
		c0.5,0.5,0.7,1.2,0.7,2.1v0.7h-4.3c0,0.6,0.2,1.1,0.5,1.5c0.3,0.3,0.8,0.5,1.4,0.5c0.4,0,0.7,0,1.1-0.1c0.3-0.1,0.7-0.2,1.1-0.4
		v1.1c-0.3,0.2-0.7,0.3-1,0.3S358.5,55.6,358,55.6z M357.8,49.9c-0.4,0-0.8,0.1-1.1,0.4c-0.3,0.3-0.4,0.7-0.5,1.2h2.9
		c0-0.5-0.1-0.9-0.4-1.2C358.6,50.1,358.2,49.9,357.8,49.9z"/>
	<path style="fill:#141446;" d="M251.6,51c0-3.3,2.7-6,6-6c3.3,0,6,2.7,6,6c0,3.3-2.7,6-6,6C254.2,57,251.6,54.3,251.6,51z
		 M255.5,50.4c-0.3,0-0.6,0.3-0.6,0.6c0,0.3,0.2,0.6,0.6,0.6h4.1c0.3,0,0.6-0.2,0.6-0.6c0-0.3-0.3-0.6-0.6-0.6H255.5z"/>
	<path style="fill:#141446;" d="M6,62.9h1.5l-3,8.6H3l-3-8.6h1.4l1.8,5.3c0.1,0.3,0.2,0.6,0.3,1c0.1,0.4,0.2,0.7,0.2,0.9
		c0.1-0.3,0.1-0.6,0.2-1c0.1-0.4,0.2-0.7,0.3-0.9L6,62.9z M11,71.6c-1,0-1.8-0.3-2.4-0.9c-0.6-0.6-0.8-1.4-0.8-2.4
		c0-1.1,0.3-1.9,0.8-2.5c0.5-0.6,1.3-0.9,2.2-0.9c0.9,0,1.5,0.3,2,0.8c0.5,0.5,0.7,1.2,0.7,2.1v0.7H9.2c0,0.6,0.2,1.1,0.5,1.5
		c0.3,0.3,0.8,0.5,1.4,0.5c0.4,0,0.7,0,1.1-0.1c0.3-0.1,0.7-0.2,1.1-0.4v1.1c-0.3,0.2-0.7,0.3-1,0.3C11.9,71.6,11.5,71.6,11,71.6z
		 M10.8,65.9c-0.4,0-0.8,0.1-1.1,0.4c-0.3,0.3-0.4,0.7-0.5,1.2h2.9c0-0.5-0.1-0.9-0.4-1.2C11.6,66.1,11.2,65.9,10.8,65.9z M9.9,64.2
		v-0.1c0.2-0.3,0.5-0.6,0.7-0.9c0.2-0.3,0.4-0.6,0.6-0.9h1.6v0.1c-0.2,0.2-0.5,0.5-0.9,0.9c-0.4,0.4-0.7,0.7-1,0.9H9.9z M20.6,71.5
		h-1.4v-4c0-0.5-0.1-0.9-0.3-1.1c-0.2-0.2-0.5-0.4-1-0.4c-0.6,0-1,0.2-1.3,0.5c-0.3,0.3-0.4,0.9-0.4,1.7v3.2h-1.4v-9.1h1.4v2.3
		c0,0.4,0,0.8-0.1,1.2h0.1c0.2-0.3,0.4-0.6,0.8-0.7c0.3-0.2,0.7-0.3,1.2-0.3c1.6,0,2.4,0.8,2.4,2.4V71.5z M23.6,71.5h-1.4V65h1.4
		V71.5z M22.2,63.3c0-0.2,0.1-0.4,0.2-0.6c0.1-0.1,0.3-0.2,0.6-0.2c0.2,0,0.4,0.1,0.6,0.2c0.1,0.1,0.2,0.3,0.2,0.6
		c0,0.2-0.1,0.4-0.2,0.6c-0.1,0.1-0.3,0.2-0.6,0.2c-0.3,0-0.4-0.1-0.6-0.2C22.2,63.7,22.2,63.5,22.2,63.3z M28,71.6
		c-1,0-1.7-0.3-2.2-0.9c-0.5-0.6-0.8-1.4-0.8-2.5c0-1.1,0.3-1.9,0.8-2.5c0.5-0.6,1.3-0.9,2.3-0.9c0.7,0,1.3,0.1,1.8,0.4l-0.4,1.1
		c-0.6-0.2-1.1-0.3-1.4-0.3c-1.1,0-1.7,0.7-1.7,2.2c0,0.7,0.1,1.3,0.4,1.6c0.3,0.4,0.7,0.5,1.2,0.5c0.6,0,1.2-0.2,1.7-0.5v1.2
		c-0.2,0.1-0.5,0.2-0.8,0.3C28.7,71.6,28.4,71.6,28,71.6z M35.6,71.5l-0.2-0.8h-0.1c-0.2,0.3-0.5,0.5-0.8,0.7
		c-0.4,0.2-0.8,0.3-1.2,0.3c-0.8,0-1.4-0.2-1.8-0.6c-0.4-0.4-0.6-1-0.6-1.8V65h1.4v4c0,0.5,0.1,0.9,0.3,1.1c0.2,0.2,0.5,0.4,1,0.4
		c0.6,0,1-0.2,1.3-0.5c0.3-0.3,0.4-0.9,0.4-1.7V65h1.4v6.5H35.6z M39.8,71.5h-1.4v-9.1h1.4V71.5z M44.4,71.6c-1,0-1.8-0.3-2.4-0.9
		c-0.6-0.6-0.8-1.4-0.8-2.4c0-1.1,0.3-1.9,0.8-2.5c0.5-0.6,1.3-0.9,2.2-0.9c0.9,0,1.5,0.3,2,0.8c0.5,0.5,0.7,1.2,0.7,2.1v0.7h-4.3
		c0,0.6,0.2,1.1,0.5,1.5c0.3,0.3,0.8,0.5,1.4,0.5c0.4,0,0.7,0,1.1-0.1c0.3-0.1,0.7-0.2,1.1-0.4v1.1c-0.3,0.2-0.7,0.3-1,0.3
		C45.2,71.6,44.8,71.6,44.4,71.6z M44.1,65.9c-0.4,0-0.8,0.1-1.1,0.4c-0.3,0.3-0.4,0.7-0.5,1.2h2.9c0-0.5-0.1-0.9-0.4-1.2
		C44.9,66.1,44.6,65.9,44.1,65.9z M52.6,69.7c0,0.6-0.2,1.1-0.7,1.5c-0.5,0.3-1.1,0.5-2,0.5c-0.9,0-1.6-0.1-2.1-0.4V70
		c0.8,0.4,1.5,0.5,2.1,0.5c0.8,0,1.3-0.3,1.3-0.8c0-0.2,0-0.3-0.1-0.4c-0.1-0.1-0.2-0.2-0.5-0.3c-0.2-0.1-0.5-0.3-0.9-0.4
		c-0.7-0.3-1.3-0.6-1.5-0.9c-0.3-0.3-0.4-0.7-0.4-1.1c0-0.6,0.2-1,0.7-1.3c0.4-0.3,1.1-0.5,1.8-0.5c0.8,0,1.5,0.2,2.2,0.5l-0.4,1
		c-0.7-0.3-1.3-0.4-1.8-0.4c-0.7,0-1.1,0.2-1.1,0.6c0,0.2,0.1,0.4,0.3,0.5c0.2,0.1,0.6,0.3,1.2,0.6c0.5,0.2,0.9,0.4,1.2,0.6
		c0.2,0.2,0.4,0.4,0.5,0.6C52.5,69.1,52.6,69.3,52.6,69.7z M59.6,71.6c-1,0-1.8-0.3-2.4-0.9c-0.6-0.6-0.8-1.4-0.8-2.4
		c0-1.1,0.3-1.9,0.8-2.5c0.5-0.6,1.3-0.9,2.2-0.9c0.9,0,1.5,0.3,2,0.8c0.5,0.5,0.7,1.2,0.7,2.1v0.7h-4.3c0,0.6,0.2,1.1,0.5,1.5
		c0.3,0.3,0.8,0.5,1.4,0.5c0.4,0,0.7,0,1.1-0.1c0.3-0.1,0.7-0.2,1.1-0.4v1.1c-0.3,0.2-0.7,0.3-1,0.3C60.4,71.6,60,71.6,59.6,71.6z
		 M59.3,65.9c-0.4,0-0.8,0.1-1.1,0.4c-0.3,0.3-0.4,0.7-0.5,1.2h2.9c0-0.5-0.1-0.9-0.4-1.2C60.1,66.1,59.7,65.9,59.3,65.9z
		 M58.4,64.2v-0.1c0.2-0.3,0.5-0.6,0.7-0.9c0.2-0.3,0.4-0.6,0.6-0.9h1.6v0.1c-0.2,0.2-0.5,0.5-0.9,0.9c-0.4,0.4-0.7,0.7-1,0.9H58.4z
		 M64.8,71.5h-1.4v-9.1h1.4V71.5z M69.3,71.6c-1,0-1.8-0.3-2.4-0.9c-0.6-0.6-0.8-1.4-0.8-2.4c0-1.1,0.3-1.9,0.8-2.5
		c0.5-0.6,1.3-0.9,2.2-0.9c0.9,0,1.5,0.3,2,0.8c0.5,0.5,0.7,1.2,0.7,2.1v0.7h-4.3c0,0.6,0.2,1.1,0.5,1.5c0.3,0.3,0.8,0.5,1.4,0.5
		c0.4,0,0.7,0,1.1-0.1c0.3-0.1,0.7-0.2,1.1-0.4v1.1c-0.3,0.2-0.7,0.3-1,0.3C70.2,71.6,69.8,71.6,69.3,71.6z M69.1,65.9
		c-0.4,0-0.8,0.1-1.1,0.4c-0.3,0.3-0.4,0.7-0.5,1.2h2.9c0-0.5-0.1-0.9-0.4-1.2C69.9,66.1,69.5,65.9,69.1,65.9z M75.8,71.6
		c-1,0-1.7-0.3-2.2-0.9c-0.5-0.6-0.8-1.4-0.8-2.5c0-1.1,0.3-1.9,0.8-2.5c0.5-0.6,1.3-0.9,2.3-0.9c0.7,0,1.3,0.1,1.8,0.4l-0.4,1.1
		c-0.6-0.2-1.1-0.3-1.4-0.3c-1.1,0-1.7,0.7-1.7,2.2c0,0.7,0.1,1.3,0.4,1.6c0.3,0.4,0.7,0.5,1.2,0.5c0.6,0,1.2-0.2,1.7-0.5v1.2
		c-0.2,0.1-0.5,0.2-0.8,0.3C76.5,71.6,76.2,71.6,75.8,71.6z M81.3,70.5c0.3,0,0.7-0.1,1-0.2v1c-0.2,0.1-0.4,0.1-0.6,0.2
		c-0.2,0-0.5,0.1-0.7,0.1c-1.3,0-2-0.7-2-2.1v-3.5h-0.9v-0.6l0.9-0.5l0.5-1.4h0.8V65h1.8v1h-1.8v3.5c0,0.3,0.1,0.6,0.2,0.7
		C80.8,70.4,81,70.5,81.3,70.5z M86.7,64.9c0.3,0,0.5,0,0.7,0.1l-0.1,1.3c-0.2,0-0.4-0.1-0.6-0.1c-0.6,0-1,0.2-1.3,0.5
		c-0.3,0.4-0.5,0.8-0.5,1.4v3.4h-1.4V65h1.1l0.2,1.1h0.1c0.2-0.4,0.5-0.7,0.8-0.9C85.9,65,86.3,64.9,86.7,64.9z M89.7,71.5h-1.4V65
		h1.4V71.5z M88.2,63.3c0-0.2,0.1-0.4,0.2-0.6c0.1-0.1,0.3-0.2,0.6-0.2c0.2,0,0.4,0.1,0.6,0.2c0.1,0.1,0.2,0.3,0.2,0.6
		c0,0.2-0.1,0.4-0.2,0.6c-0.1,0.1-0.3,0.2-0.6,0.2c-0.3,0-0.4-0.1-0.6-0.2C88.3,63.7,88.2,63.5,88.2,63.3z M94,70.5
		c0.6,0,1-0.2,1.2-0.5c0.3-0.3,0.4-0.8,0.4-1.5v-0.2c0-0.8-0.1-1.4-0.4-1.7C95,66.2,94.5,66,94,66c-0.5,0-0.9,0.2-1.1,0.6
		c-0.3,0.4-0.4,1-0.4,1.7C92.4,69.8,93,70.5,94,70.5z M93.6,71.6c-0.8,0-1.4-0.3-1.9-0.9c-0.5-0.6-0.7-1.4-0.7-2.5
		c0-1.1,0.2-1.9,0.7-2.5c0.5-0.6,1.1-0.9,1.9-0.9c0.4,0,0.8,0.1,1.1,0.2c0.3,0.1,0.6,0.4,0.9,0.7h0l0.2-0.8h1.1v9.4h-1.4v-2.7
		c0-0.2,0-0.4,0-0.5c0-0.2,0-0.3,0-0.4h-0.1C95.1,71.3,94.5,71.6,93.6,71.6z M103.2,71.5l-0.2-0.8H103c-0.2,0.3-0.5,0.5-0.8,0.7
		c-0.4,0.2-0.8,0.3-1.2,0.3c-0.8,0-1.4-0.2-1.8-0.6c-0.4-0.4-0.6-1-0.6-1.8V65h1.4v4c0,0.5,0.1,0.9,0.3,1.1c0.2,0.2,0.5,0.4,1,0.4
		c0.6,0,1-0.2,1.3-0.5c0.3-0.3,0.4-0.9,0.4-1.7V65h1.4v6.5H103.2z M108.9,71.6c-1,0-1.8-0.3-2.4-0.9c-0.6-0.6-0.8-1.4-0.8-2.4
		c0-1.1,0.3-1.9,0.8-2.5c0.5-0.6,1.3-0.9,2.2-0.9c0.9,0,1.5,0.3,2,0.8c0.5,0.5,0.7,1.2,0.7,2.1v0.7h-4.3c0,0.6,0.2,1.1,0.5,1.5
		c0.3,0.3,0.8,0.5,1.4,0.5c0.4,0,0.7,0,1.1-0.1c0.3-0.1,0.7-0.2,1.1-0.4v1.1c-0.3,0.2-0.7,0.3-1,0.3
		C109.7,71.6,109.3,71.6,108.9,71.6z M108.6,65.9c-0.4,0-0.8,0.1-1.1,0.4c-0.3,0.3-0.4,0.7-0.5,1.2h2.9c0-0.5-0.1-0.9-0.4-1.2
		C109.4,66.1,109,65.9,108.6,65.9z M117.1,69.7c0,0.6-0.2,1.1-0.7,1.5c-0.5,0.3-1.1,0.5-2,0.5c-0.9,0-1.6-0.1-2.1-0.4V70
		c0.8,0.4,1.5,0.5,2.1,0.5c0.8,0,1.3-0.3,1.3-0.8c0-0.2,0-0.3-0.1-0.4c-0.1-0.1-0.2-0.2-0.5-0.3c-0.2-0.1-0.5-0.3-0.9-0.4
		c-0.7-0.3-1.3-0.6-1.5-0.9c-0.3-0.3-0.4-0.7-0.4-1.1c0-0.6,0.2-1,0.7-1.3c0.4-0.3,1.1-0.5,1.8-0.5c0.8,0,1.5,0.2,2.2,0.5l-0.4,1
		c-0.7-0.3-1.3-0.4-1.8-0.4c-0.7,0-1.1,0.2-1.1,0.6c0,0.2,0.1,0.4,0.3,0.5c0.2,0.1,0.6,0.3,1.2,0.6c0.5,0.2,0.9,0.4,1.2,0.6
		c0.2,0.2,0.4,0.4,0.5,0.6C117,69.1,117.1,69.3,117.1,69.7z"/>
	<path style="fill:#141446;" d="M123.6,68c0-3.3,2.7-6,6-6c3.3,0,6,2.7,6,6c0,3.3-2.7,6-6,6C126.2,74,123.6,71.3,123.6,68z
		 M127.5,67.4c-0.3,0-0.6,0.3-0.6,0.6c0,0.3,0.2,0.6,0.6,0.6h4.1c0.3,0,0.6-0.2,0.6-0.6c0-0.3-0.3-0.6-0.6-0.6H127.5z"/>
	<path style="fill:#141446;" d="M31.8,49.5c0,0.9-0.3,1.6-0.9,2.1c-0.6,0.5-1.4,0.7-2.5,0.7h-0.9v3.2h-1.4v-8.6h2.5
		c1.1,0,1.9,0.2,2.4,0.7C31.5,48,31.8,48.7,31.8,49.5z M27.5,51.1h0.7c0.7,0,1.2-0.1,1.6-0.4c0.3-0.3,0.5-0.6,0.5-1.2
		c0-0.5-0.2-0.9-0.5-1.1c-0.3-0.2-0.8-0.4-1.4-0.4h-1V51.1z M38.9,52.2c0,1.1-0.3,1.9-0.8,2.5c-0.5,0.6-1.3,0.9-2.3,0.9
		c-0.6,0-1.1-0.1-1.6-0.4c-0.5-0.3-0.8-0.7-1.1-1.2c-0.3-0.5-0.4-1.1-0.4-1.8c0-1.1,0.3-1.9,0.8-2.5c0.5-0.6,1.3-0.9,2.3-0.9
		c0.9,0,1.7,0.3,2.2,0.9C38.6,50.4,38.9,51.2,38.9,52.2z M34.1,52.2c0,1.5,0.6,2.2,1.7,2.2c1.1,0,1.6-0.7,1.6-2.2
		c0-1.5-0.6-2.2-1.7-2.2c-0.6,0-1,0.2-1.3,0.6C34.3,51,34.1,51.5,34.1,52.2z M41.6,55.5h-1.4V49h1.4V55.5z M40.1,47.3
		c0-0.2,0.1-0.4,0.2-0.6c0.1-0.1,0.3-0.2,0.6-0.2c0.2,0,0.4,0.1,0.6,0.2c0.1,0.1,0.2,0.3,0.2,0.6c0,0.2-0.1,0.4-0.2,0.6
		c-0.1,0.1-0.3,0.2-0.6,0.2c-0.3,0-0.4-0.1-0.6-0.2C40.2,47.7,40.1,47.5,40.1,47.3z M49,55.5h-1.4v-4c0-0.5-0.1-0.9-0.3-1.1
		c-0.2-0.2-0.5-0.4-1-0.4c-0.6,0-1,0.2-1.3,0.5c-0.3,0.3-0.4,0.9-0.4,1.7v3.2h-1.4V49h1.1l0.2,0.8h0.1c0.2-0.3,0.5-0.5,0.8-0.7
		c0.4-0.2,0.8-0.3,1.2-0.3c1.6,0,2.3,0.8,2.3,2.4V55.5z M53.1,54.5c0.3,0,0.7-0.1,1-0.2v1c-0.2,0.1-0.3,0.1-0.6,0.2
		c-0.2,0-0.5,0.1-0.7,0.1c-1.3,0-2-0.7-2-2.1v-3.5h-0.9v-0.6l0.9-0.5l0.5-1.4h0.9V49h1.8v1h-1.8v3.5c0,0.3,0.1,0.6,0.2,0.7
		C52.6,54.4,52.8,54.5,53.1,54.5z M59.5,53.7c0,0.6-0.2,1.1-0.7,1.5c-0.5,0.3-1.1,0.5-2,0.5c-0.9,0-1.6-0.1-2.1-0.4V54
		c0.8,0.4,1.5,0.5,2.1,0.5c0.8,0,1.3-0.3,1.3-0.8c0-0.2,0-0.3-0.1-0.4c-0.1-0.1-0.2-0.2-0.5-0.3c-0.2-0.1-0.5-0.3-0.9-0.4
		c-0.7-0.3-1.3-0.6-1.5-0.9c-0.3-0.3-0.4-0.7-0.4-1.1c0-0.6,0.2-1,0.7-1.3c0.4-0.3,1.1-0.5,1.8-0.5c0.8,0,1.5,0.2,2.2,0.5l-0.4,1
		c-0.7-0.3-1.3-0.4-1.8-0.4c-0.7,0-1.1,0.2-1.1,0.6c0,0.2,0.1,0.4,0.3,0.5c0.2,0.1,0.6,0.3,1.2,0.6c0.5,0.2,0.9,0.4,1.2,0.6
		c0.2,0.2,0.4,0.4,0.5,0.6C59.5,53.1,59.5,53.3,59.5,53.7z M65.9,55.6c-0.8,0-1.4-0.3-1.9-0.9c-0.5-0.6-0.7-1.4-0.7-2.5
		c0-1.1,0.2-1.9,0.7-2.5c0.5-0.6,1.1-0.9,1.9-0.9c0.9,0,1.5,0.3,1.9,0.9h0.1c-0.1-0.5-0.1-0.8-0.1-1.1v-2.4h1.4v9.1h-1.1l-0.2-0.8
		h-0.1C67.4,55.3,66.7,55.6,65.9,55.6z M66.2,54.5c0.6,0,1-0.2,1.2-0.5c0.3-0.3,0.4-0.8,0.4-1.6v-0.2c0-0.8-0.1-1.4-0.4-1.7
		c-0.3-0.3-0.7-0.5-1.2-0.5c-0.5,0-0.9,0.2-1.1,0.6c-0.3,0.4-0.4,0.9-0.4,1.7c0,0.7,0.1,1.3,0.4,1.6C65.3,54.3,65.7,54.5,66.2,54.5z
		 M73.7,55.6c-1,0-1.8-0.3-2.4-0.9c-0.6-0.6-0.8-1.4-0.8-2.4c0-1.1,0.3-1.9,0.8-2.5c0.5-0.6,1.3-0.9,2.2-0.9c0.9,0,1.5,0.3,2,0.8
		c0.5,0.5,0.7,1.2,0.7,2.1v0.7h-4.3c0,0.6,0.2,1.1,0.5,1.5c0.3,0.3,0.8,0.5,1.4,0.5c0.4,0,0.7,0,1.1-0.1c0.3-0.1,0.7-0.2,1.1-0.4
		v1.1c-0.3,0.2-0.7,0.3-1,0.3C74.6,55.6,74.2,55.6,73.7,55.6z M73.5,49.9c-0.4,0-0.8,0.1-1.1,0.4C72.2,50.6,72,51,72,51.6h2.9
		c0-0.5-0.1-0.9-0.4-1.2C74.3,50.1,73.9,49.9,73.5,49.9z M83.1,55.6c-1,0-1.7-0.3-2.2-0.9c-0.5-0.6-0.8-1.4-0.8-2.5
		c0-1.1,0.3-1.9,0.8-2.5c0.5-0.6,1.3-0.9,2.3-0.9c0.7,0,1.3,0.1,1.8,0.4l-0.4,1.1c-0.6-0.2-1.1-0.3-1.4-0.3c-1.1,0-1.7,0.7-1.7,2.2
		c0,0.7,0.1,1.3,0.4,1.6c0.3,0.4,0.7,0.5,1.2,0.5c0.6,0,1.2-0.2,1.7-0.5v1.2c-0.2,0.1-0.5,0.2-0.8,0.3
		C83.8,55.6,83.5,55.6,83.1,55.6z M91.9,55.5h-1.4v-4c0-0.5-0.1-0.9-0.3-1.1c-0.2-0.2-0.5-0.4-1-0.4c-0.6,0-1,0.2-1.3,0.5
		c-0.3,0.3-0.4,0.9-0.4,1.7v3.2h-1.4v-9.1h1.4v2.3c0,0.4,0,0.8-0.1,1.2h0.1c0.2-0.3,0.4-0.6,0.8-0.7c0.3-0.2,0.7-0.3,1.2-0.3
		c1.6,0,2.4,0.8,2.4,2.4V55.5z M97.6,55.5l-0.3-0.9h0c-0.3,0.4-0.6,0.7-0.9,0.8c-0.3,0.1-0.7,0.2-1.2,0.2c-0.6,0-1.1-0.2-1.5-0.5
		c-0.4-0.3-0.5-0.8-0.5-1.5c0-0.7,0.2-1.2,0.7-1.5c0.5-0.3,1.3-0.5,2.3-0.6l1.1,0v-0.3c0-0.4-0.1-0.7-0.3-0.9
		C96.7,50.1,96.4,50,96,50c-0.3,0-0.6,0-1,0.1c-0.3,0.1-0.6,0.2-0.9,0.3l-0.4-1c0.4-0.2,0.7-0.3,1.2-0.4c0.4-0.1,0.8-0.1,1.2-0.1
		c0.8,0,1.4,0.2,1.9,0.5c0.4,0.4,0.6,0.9,0.6,1.7v4.4H97.6z M95.5,54.6c0.5,0,0.9-0.1,1.2-0.4c0.3-0.3,0.5-0.7,0.5-1.2v-0.6l-0.8,0
		c-0.6,0-1.1,0.1-1.4,0.3c-0.3,0.2-0.4,0.5-0.4,0.9c0,0.3,0.1,0.5,0.3,0.7C94.9,54.5,95.2,54.6,95.5,54.6z M103.5,48.9
		c0.3,0,0.5,0,0.7,0.1l-0.1,1.3c-0.2,0-0.4-0.1-0.6-0.1c-0.6,0-1,0.2-1.3,0.5c-0.3,0.4-0.5,0.8-0.5,1.4v3.4h-1.4V49h1.1l0.2,1.1h0.1
		c0.2-0.4,0.5-0.7,0.8-0.9C102.8,49,103.1,48.9,103.5,48.9z M110.7,49v0.8l-1.1,0.2c0.1,0.1,0.2,0.3,0.3,0.5
		c0.1,0.2,0.1,0.4,0.1,0.6c0,0.7-0.2,1.2-0.7,1.6c-0.5,0.4-1.1,0.6-1.9,0.6c-0.2,0-0.4,0-0.6,0c-0.3,0.2-0.4,0.4-0.4,0.6
		c0,0.1,0.1,0.3,0.2,0.3c0.1,0.1,0.4,0.1,0.8,0.1h1.1c0.7,0,1.3,0.2,1.6,0.5s0.6,0.7,0.6,1.3c0,0.7-0.3,1.3-0.9,1.7
		c-0.6,0.4-1.5,0.6-2.6,0.6c-0.9,0-1.6-0.2-2-0.5s-0.7-0.8-0.7-1.3c0-0.4,0.1-0.7,0.4-1c0.3-0.3,0.6-0.5,1.1-0.6
		c-0.2-0.1-0.3-0.2-0.5-0.4c-0.1-0.2-0.2-0.4-0.2-0.6c0-0.2,0.1-0.4,0.2-0.6c0.1-0.2,0.3-0.3,0.6-0.5c-0.3-0.1-0.6-0.4-0.8-0.7
		c-0.2-0.3-0.3-0.7-0.3-1.1c0-0.7,0.2-1.2,0.7-1.6c0.4-0.4,1.1-0.6,1.9-0.6c0.2,0,0.4,0,0.6,0c0.2,0,0.4,0,0.5,0.1H110.7z
		 M105.6,56.5c0,0.3,0.1,0.5,0.4,0.7c0.3,0.2,0.6,0.2,1.1,0.2c0.8,0,1.3-0.1,1.7-0.3c0.4-0.2,0.6-0.5,0.6-0.9c0-0.3-0.1-0.5-0.3-0.6
		c-0.2-0.1-0.6-0.2-1.1-0.2h-1c-0.4,0-0.7,0.1-0.9,0.3C105.7,55.9,105.6,56.2,105.6,56.5z M106.2,51.1c0,0.4,0.1,0.7,0.3,0.9
		c0.2,0.2,0.5,0.3,0.9,0.3c0.8,0,1.2-0.4,1.2-1.3c0-0.4-0.1-0.7-0.3-1c-0.2-0.2-0.5-0.3-0.9-0.3c-0.4,0-0.7,0.1-0.9,0.3
		C106.3,50.4,106.2,50.7,106.2,51.1z M114.5,55.6c-1,0-1.8-0.3-2.4-0.9c-0.6-0.6-0.8-1.4-0.8-2.4c0-1.1,0.3-1.9,0.8-2.5
		c0.5-0.6,1.3-0.9,2.2-0.9c0.9,0,1.5,0.3,2,0.8c0.5,0.5,0.7,1.2,0.7,2.1v0.7h-4.3c0,0.6,0.2,1.1,0.5,1.5c0.3,0.3,0.8,0.5,1.4,0.5
		c0.4,0,0.7,0,1.1-0.1c0.3-0.1,0.7-0.2,1.1-0.4v1.1c-0.3,0.2-0.7,0.3-1,0.3C115.3,55.6,114.9,55.6,114.5,55.6z M114.2,49.9
		c-0.4,0-0.8,0.1-1.1,0.4c-0.3,0.3-0.4,0.7-0.5,1.2h2.9c0-0.5-0.1-0.9-0.4-1.2C115,50.1,114.7,49.9,114.2,49.9z"/>
	<path style="fill:#141446;" d="M123.6,51c0-3.3,2.7-6,6-6c3.3,0,6,2.7,6,6c0,3.3-2.7,6-6,6C126.2,57,123.6,54.3,123.6,51z
		 M127.5,50.4c-0.3,0-0.6,0.3-0.6,0.6c0,0.3,0.2,0.6,0.6,0.6h4.1c0.3,0,0.6-0.2,0.6-0.6c0-0.3-0.3-0.6-0.6-0.6H127.5z"/>
</g>
</svg>
