<svg width="32" height="32" viewBox="0 0 32 32" fill="none" xmlns="http://www.w3.org/2000/svg">
<g clip-path="url(#clip0_374_5123)">
<path d="M9.00573 5.26495L6.89057 0.639658C6.86267 0.569353 6.80688 0.569353 6.78046 0.639658L4.76182 5.26495L3.00708 0.818752H0.366699L4.30524 10.4049C4.34855 10.5015 4.43003 10.5015 4.47261 10.4049L6.79368 5.31897L9.14263 10.4049C9.19842 10.52 9.26669 10.52 9.30963 10.4049L13.1957 0.818752H10.6783L9.00573 5.26495Z" fill="white"/>
<path d="M15.8672 6.67643H19.1759V4.82631H15.8672V2.94955H19.853V0.818954H13.3516V10.2956H20.0472V8.16281H15.8672V6.67643Z" fill="white"/>
<path d="M3.63355 21.9102H0V31.3869H3.63355C6.34292 31.3869 8.38909 29.5882 8.38909 26.6488C8.38909 23.7093 6.34292 21.9102 3.63355 21.9102ZM3.35755 29.2411H2.51338V24.059H3.35755C4.87777 24.059 5.81661 25.0717 5.81661 26.6491C5.81661 28.2265 4.8774 29.2411 3.35755 29.2411Z" fill="white"/>
<path d="M24.1901 21.847H15.7485V24.0671H18.6847V31.4676H21.2539V24.0671H24.1901V21.847Z" fill="white"/>
<path d="M12.5646 21.7401L7.99072 31.387H10.3397L10.7801 30.3579H14.3502L14.8049 31.387H17.29L12.7305 21.7401C12.6886 21.6413 12.6057 21.6413 12.5646 21.7401ZM11.5722 28.5075L12.5374 26.2533L13.5332 28.5075H11.5722Z" fill="white"/>
<path d="M29.4358 31.3867H31.9216L27.3621 21.7398C27.3199 21.6414 27.2365 21.6414 27.1954 21.7398L22.6216 31.3867H24.9705L25.411 30.3577H28.981L29.4358 31.3867ZM26.203 28.5076L27.1683 26.2534L28.1637 28.5076H26.203Z" fill="white"/>
<path d="M24.1931 11.259C21.8412 11.259 19.7712 12.7657 19.2677 15.0332C18.8272 12.7358 16.9726 11.37 14.6116 11.37H10.978V20.8467H14.6116C16.9723 20.8467 18.8283 19.4806 19.2677 17.1835C19.7708 19.4554 21.8412 20.9703 24.1935 20.9703C26.904 20.9703 29.2394 18.9651 29.2394 16.1067C29.2394 13.2483 26.9036 11.259 24.1931 11.259ZM14.3345 18.7024H13.4925V13.5202H14.3345C15.8562 13.5202 16.7957 14.533 16.7957 16.1104C16.7957 17.6878 15.8558 18.7024 14.3345 18.7024ZM24.1931 18.7727C22.6193 18.7727 21.7205 17.6034 21.7205 16.1085C21.7205 14.6136 22.6193 13.461 24.1931 13.461C25.7669 13.461 26.6691 14.6173 26.6691 16.1085C26.6691 17.5997 25.7706 18.7727 24.1931 18.7727Z" fill="white"/>
</g>
<defs>
<clipPath id="clip0_374_5123">
<rect width="32" height="30.9895" fill="white" transform="translate(0 0.505264)"/>
</clipPath>
</defs>
</svg>
