<svg width="150" height="62" viewBox="0 0 150 62" fill="none" xmlns="http://www.w3.org/2000/svg">
<g clip-path="url(#clip0_374_5118)">
<path d="M42.5889 22.9489C45.6578 22.9489 48.2257 25.3288 48.2257 28.1472V46.3727C48.2257 46.9363 48.7267 47.3747 49.2904 47.3121H53.1109C53.6745 47.3121 54.1756 46.9363 54.1756 46.3727V28.1472C54.113 22.2599 48.9773 17.5 42.5889 17.5H30.3134C29.7497 17.5 29.3113 18.001 29.3739 18.5647V46.31C29.3739 46.8737 29.7497 47.3747 30.3134 47.3747H34.3844C34.948 47.3747 35.3864 46.8737 35.3238 46.31V22.9489H42.5889ZM9.2069 22.9489H24.8645C25.4282 22.9489 25.8666 22.5731 25.9292 22.0094V18.4395C25.9292 17.8758 25.4282 17.5 24.9272 17.5H9.08164C4.69751 17.5 1.06494 20.7568 1.06494 24.8278V39.9843C1.06494 44.0553 4.63488 47.3747 9.08164 47.3747H24.8645C25.4282 47.3747 25.8666 46.999 25.9292 46.4353V42.8653C25.9292 42.3017 25.4282 41.9259 24.8645 41.9259H9.2069C8.07956 41.9259 7.1401 41.0491 7.07747 39.9217V35.7255H16.472C17.0357 35.7255 17.4741 35.3497 17.5368 34.786V31.2787C17.5368 30.715 17.0357 30.3392 16.472 30.3392H7.07747V24.8278C7.07747 23.8257 8.07956 22.9489 9.2069 22.9489ZM148.873 37.0407V36.1639C148.56 32.8445 145.115 30.3392 141.545 30.3392H132.401C130.898 30.2766 129.708 29.024 129.771 27.5209V25.5167C129.833 24.0136 131.086 22.8236 132.589 22.8862H145.052C145.491 22.8862 145.867 22.6357 146.055 22.2599C146.117 22.1347 146.117 22.072 146.117 21.9468V18.4395C146.117 17.8758 145.616 17.4374 145.052 17.5H131.148C127.077 17.5 123.758 20.5689 123.758 24.3267V28.5856C123.758 32.6566 126.827 35.9134 130.585 35.9134H140.292C141.796 35.976 142.923 37.2286 142.86 38.7317V39.4207C142.798 40.9238 141.545 42.1138 140.042 42.0511H124.823C124.384 42.0511 124.009 42.3017 123.821 42.7401C123.758 42.8653 123.758 42.928 123.758 43.0532V46.5605C123.758 47.1242 124.259 47.5626 124.823 47.5H141.545C145.616 47.5 148.873 44.4311 148.873 40.6733V37.0407ZM100.209 17.5H87.2445C86.6808 17.5626 86.2424 18.001 86.305 18.5647V36.1013C86.305 36.6649 86.6808 37.166 87.2445 37.166H91.3155C91.8791 37.166 92.3176 36.6649 92.2549 36.1013V22.9489H99.5827C102.652 22.9489 105.219 25.2662 105.219 28.1472V37.7296C105.219 40.6106 102.714 41.9259 99.5827 41.9259H86.3677V47.3747H99.5827C105.971 47.3747 111.107 43.6169 111.107 37.7923V28.0846C110.981 22.1973 106.159 17.4374 100.209 17.5Z" fill="white"/>
<path d="M69.0188 41.9259C65.95 41.9259 63.3821 39.6086 63.3821 36.7276V35.7881H75.3445C79.4781 35.7881 82.8602 32.6566 82.8602 28.8361V24.3894C82.8602 20.6315 79.5408 17.5 75.4072 17.5H65.0105C64.4468 17.5 63.8205 17.5 63.2568 17.6253C59.9374 18.2516 57.5575 21.1326 57.4948 24.452V27.0825C57.4948 27.6461 57.8706 28.1472 58.4343 28.1472H62.5053C63.069 28.0846 63.5074 27.6461 63.4447 27.0825V25.4541C63.5074 24.0762 64.6973 22.9489 66.0752 23.0115H74.2798C75.6577 22.9489 76.8477 24.0136 76.9103 25.4541V28.0846C76.8477 29.4624 75.6577 30.5898 74.2798 30.5271H54.1128V35.976H57.5575V36.9154C57.5575 42.8027 62.7558 47.5 69.0815 47.5H86.3049V42.0511L69.0188 41.9259Z" fill="white"/>
<path d="M120.438 36.2891V26.3309C120.438 25.7672 120.063 25.2662 119.499 25.2662H115.428C114.864 25.2662 114.426 25.7672 114.488 26.3309V46.31C114.488 46.8737 114.864 47.3747 115.428 47.3747H119.499C120.063 47.3747 120.501 46.8737 120.438 46.31V36.2891ZM120.438 19.7547V18.5647C120.438 18.001 120.063 17.5 119.499 17.5H115.428C114.864 17.5 114.426 18.001 114.488 18.5647V21.8841C114.488 22.4478 114.864 22.9489 115.428 22.9489H119.499C120.063 22.9489 120.501 22.4478 120.438 21.8841V19.7547Z" fill="white"/>
</g>
<defs>
<clipPath id="clip0_374_5118">
<rect width="149" height="30" fill="white" transform="translate(0.5 17.5)"/>
</clipPath>
</defs>
</svg>
