<?xml version="1.0" standalone="no"?>
<!DOCTYPE svg PUBLIC "-//W3C//DTD SVG 20010904//EN"
 "http://www.w3.org/TR/2001/REC-SVG-20010904/DTD/svg10.dtd">
<svg version="1.0" xmlns="http://www.w3.org/2000/svg"
 width="336.000000pt" height="137.000000pt" viewBox="0 0 336.000000 137.000000"
 preserveAspectRatio="xMidYMid meet">

<g transform="translate(0.000000,137.000000) scale(0.100000,-0.100000)"
fill="#000000" stroke="none">
<path d="M1342 1179 c2 -6 8 -10 13 -10 5 0 11 4 13 10 2 6 -4 11 -13 11 -9 0
-15 -5 -13 -11z"/>
<path d="M1722 1179 c2 -6 8 -10 13 -10 5 0 11 4 13 10 2 6 -4 11 -13 11 -9 0
-15 -5 -13 -11z"/>
<path d="M1540 1150 c0 -5 5 -10 10 -10 6 0 10 5 10 10 0 6 -4 10 -10 10 -5 0
-10 -4 -10 -10z"/>
<path d="M1620 1105 c0 -8 5 -15 10 -15 6 0 10 7 10 15 0 8 -4 15 -10 15 -5 0
-10 -7 -10 -15z"/>
<path d="M1160 980 c0 -5 5 -10 10 -10 6 0 10 5 10 10 0 6 -4 10 -10 10 -5 0
-10 -4 -10 -10z"/>
<path d="M1900 910 c0 -5 5 -10 10 -10 6 0 10 5 10 10 0 6 -4 10 -10 10 -5 0
-10 -4 -10 -10z"/>
<path d="M460 658 c-107 -54 -118 -218 -20 -288 97 -69 271 -4 270 100 -1 21
-3 19 -14 -13 -18 -50 -34 -67 -81 -88 -51 -24 -89 -23 -142 1 -58 26 -83 69
-83 143 0 76 20 114 73 138 53 24 111 24 164 0 41 -19 58 -40 74 -90 6 -21 7
-22 8 -6 2 35 -37 85 -82 105 -56 26 -113 25 -167 -2z"/>
<path d="M762 513 l2 -168 6 155 5 155 78 -155 c43 -85 80 -156 82 -159 3 -2
40 68 82 155 l78 159 5 -160 6 -160 2 173 c1 94 -1 172 -6 172 -4 0 -41 -68
-82 -151 -41 -83 -78 -153 -82 -155 -4 -3 -42 65 -85 151 -42 85 -80 155 -85
155 -4 0 -7 -75 -6 -167z"/>
<path d="M1172 513 l2 -168 3 159 4 159 21 -19 22 -19 -20 27 c-10 15 -22 28
-26 28 -5 0 -7 -75 -6 -167z"/>
<path d="M1440 526 l-5 -160 -103 127 c-57 70 -105 127 -108 127 -3 0 20 -33
51 -72 32 -40 80 -103 108 -140 28 -37 55 -64 59 -60 5 5 7 82 6 173 l-3 164
-5 -159z"/>
<path d="M1572 513 l-2 -173 110 0 c67 0 110 4 110 10 0 6 -40 10 -99 10 l-98
0 -10 163 -10 162 -1 -172z"/>
<path d="M1821 656 c8 -12 41 -50 72 -85 l56 -64 4 -81 3 -81 2 84 2 84 57 66
c90 105 93 112 11 26 l-77 -80 -73 76 c-40 41 -66 66 -57 55z"/>
<path d="M2140 667 c0 -10 4 -16 8 -13 5 3 64 -67 132 -154 67 -88 127 -157
131 -154 5 3 8 51 7 107 l-2 102 -3 -87 c-2 -49 -8 -88 -13 -88 -5 0 -53 55
-107 122 -138 172 -152 187 -153 165z"/>
<path d="M2140 608 c0 -18 -3 -84 -7 -145 -4 -82 -3 -113 6 -113 8 0 11 43 11
145 0 80 -2 145 -5 145 -3 0 -5 -15 -5 -32z"/>
<path d="M1514 450 c0 -58 1 -81 3 -52 2 28 2 76 0 105 -2 28 -3 5 -3 -53z"/>
<path d="M1262 265 c0 -16 2 -22 5 -12 2 9 2 23 0 30 -3 6 -5 -1 -5 -18z"/>
<path d="M1702 265 c0 -16 2 -22 5 -12 2 9 2 23 0 30 -3 6 -5 -1 -5 -18z"/>
<path d="M2052 265 c0 -16 2 -22 5 -12 2 9 2 23 0 30 -3 6 -5 -1 -5 -18z"/>
</g>
</svg>
