<svg width="99" height="62" viewBox="0 0 99 62" fill="none" xmlns="http://www.w3.org/2000/svg">
<path d="M27.6974 59.2397C27.7276 59.5852 27.6763 59.9328 27.5474 60.2547C27.4536 60.4168 27.3149 60.5482 27.1482 60.6334C26.9814 60.7185 26.7937 60.7537 26.6074 60.7348C26.0799 60.7348 25.7924 60.5147 25.6549 60.2547C25.5226 59.9267 25.4695 59.5721 25.4999 59.2198V57.1648H24.9749V59.2847C24.9361 59.7418 25.028 60.2004 25.2399 60.6072C25.393 60.8166 25.5967 60.9837 25.8319 61.093C26.0671 61.2023 26.3262 61.2502 26.5849 61.2323C26.8451 61.25 27.1055 61.2021 27.3423 61.0929C27.5791 60.9837 27.7846 60.8167 27.9399 60.6072C28.1724 60.2522 28.2049 59.8047 28.2049 59.2222V57.1648H27.7049L27.6974 59.2397Z" fill="white"/>
<path d="M50.9199 55.8647H50.3624L49.9374 56.7722H50.3124L50.9199 55.8647Z" fill="white"/>
<path d="M22.4924 59.3172H24.0599V58.8597H22.4924V57.6397H24.2799V57.1647H21.9674V61.1722H24.3299V60.6947H22.4924V59.3172Z" fill="white"/>
<path d="M33.9099 58.9073C33.4224 58.7698 32.9599 58.6872 32.9599 58.1872C32.9599 57.7772 33.2749 57.5847 33.7099 57.5847C34.125 57.5934 34.5287 57.7219 34.8724 57.9547V57.4022C34.5227 57.2019 34.1255 57.0991 33.7224 57.1047C32.9399 57.1047 32.4274 57.5122 32.4274 58.2222C32.4274 58.9322 32.9724 59.1848 33.5374 59.3448C34.1024 59.5048 34.5374 59.5823 34.5374 60.0948C34.5374 60.5323 34.1999 60.7472 33.7249 60.7472C33.2944 60.7411 32.8762 60.6023 32.5274 60.3497V60.9247C32.8925 61.1238 33.3016 61.2286 33.7174 61.2297C34.5199 61.2297 35.0574 60.7972 35.0574 60.0672C35.0574 59.3372 34.4824 59.0672 33.8999 58.9047" fill="white"/>
<path d="M78.3849 55.8647H77.8249L77.3999 56.7722H77.7749L78.3849 55.8647Z" fill="white"/>
<path d="M31.3099 59.2397C31.4707 59.1423 31.6029 59.0039 31.6929 58.8388C31.7829 58.6737 31.8276 58.4877 31.8224 58.2997C31.8282 58.1073 31.7794 57.9171 31.6816 57.7512C31.5839 57.5853 31.4411 57.4504 31.2699 57.3622C30.9199 57.2035 30.5356 57.1356 30.1524 57.1648H29.0599V61.1648H29.5849V59.4497H30.2674L31.4899 61.1648H32.1249L30.8424 59.3998C31.0076 59.3791 31.1667 59.3247 31.3099 59.2397ZM29.5924 59.0248V57.6397H30.1149C30.4073 57.6131 30.7017 57.6586 30.9724 57.7722C31.0743 57.8276 31.1587 57.9102 31.2161 58.011C31.2735 58.1117 31.3017 58.2264 31.2974 58.3422C31.3001 58.4397 31.2787 58.5364 31.2351 58.6236C31.1915 58.7108 31.127 58.7859 31.0474 58.8422C30.8125 58.9867 30.537 59.0508 30.2624 59.0248H29.5924Z" fill="white"/>
<path d="M7.30991 57.3748C6.93985 57.2059 6.53299 57.1336 6.12741 57.1648H5.08492V61.1648H5.60992V59.5823H6.02741C6.53991 59.5823 7.00491 59.5648 7.35491 59.3573C7.52534 59.2531 7.66525 59.1057 7.76051 58.9301C7.85576 58.7545 7.90299 58.5569 7.89742 58.3573C7.90581 58.1524 7.85542 57.9494 7.75221 57.7722C7.649 57.595 7.49727 57.451 7.31491 57.3573M7.05991 58.9898C6.83991 59.1223 6.57242 59.1398 6.10242 59.1398H5.60992V57.6398H6.08741C6.39732 57.6119 6.7095 57.6555 6.99992 57.7672C7.11005 57.8241 7.20331 57.9089 7.27036 58.0132C7.33742 58.1174 7.37591 58.2374 7.38198 58.3612C7.38806 58.485 7.36151 58.6082 7.30499 58.7185C7.24846 58.8289 7.16395 58.9224 7.05991 58.9898Z" fill="white"/>
<path d="M13.8099 59.2398C13.9714 59.1428 14.1041 59.0046 14.1946 58.8395C14.2851 58.6743 14.3301 58.488 14.3249 58.2997C14.3301 58.1074 14.2811 57.9174 14.1833 57.7516C14.0856 57.5858 13.9432 57.4509 13.7724 57.3622C13.4224 57.2037 13.0381 57.1358 12.6549 57.1648H11.5699V61.1648H12.0949V59.4497H12.7749L13.9974 61.1648H14.6349L13.3499 59.3998C13.5126 59.3786 13.6692 59.3241 13.8099 59.2398ZM12.0949 59.0248V57.6398H12.6149C12.9073 57.6128 13.2018 57.6583 13.4724 57.7723C13.5746 57.8275 13.6593 57.91 13.7172 58.0107C13.775 58.1114 13.8037 58.2262 13.7999 58.3423C13.8036 58.4386 13.7839 58.5343 13.7426 58.6214C13.7012 58.7085 13.6394 58.7842 13.5624 58.8423C13.3267 58.9871 13.0503 59.0511 12.7749 59.0248H12.0949Z" fill="white"/>
<path d="M2.37992 57.1022C1.97027 57.0963 1.56812 57.2123 1.2246 57.4356C0.881094 57.6588 0.611752 57.9792 0.450847 58.356C0.289942 58.7328 0.244744 59.1489 0.321002 59.5514C0.39726 59.9539 0.591535 60.3247 0.8791 60.6165C1.16666 60.9083 1.53453 61.108 1.93589 61.1901C2.33726 61.2722 2.75399 61.2331 3.13307 61.0778C3.51216 60.9224 3.83645 60.6578 4.06471 60.3176C4.29297 59.9774 4.41488 59.5769 4.41492 59.1672C4.42165 58.8968 4.37383 58.6277 4.27433 58.3761C4.17482 58.1245 4.02566 57.8955 3.83575 57.7028C3.64584 57.5101 3.41905 57.3576 3.16893 57.2544C2.91881 57.1512 2.65047 57.0995 2.37992 57.1022ZM2.37992 60.7447C2.0644 60.7607 1.75133 60.6818 1.48114 60.5181C1.21094 60.3543 0.99603 60.1134 0.864154 59.8263C0.732278 59.5392 0.689491 59.2192 0.741321 58.9076C0.79315 58.5959 0.937221 58.307 1.15492 58.078C1.37261 57.8491 1.65394 57.6906 1.96258 57.6232C2.27122 57.5557 2.593 57.5824 2.88636 57.6996C3.17971 57.8169 3.43118 58.0194 3.60829 58.281C3.7854 58.5426 3.88001 58.8513 3.87992 59.1672C3.8883 59.3701 3.85581 59.5726 3.78438 59.7627C3.71295 59.9528 3.60404 60.1266 3.46411 60.2738C3.32418 60.4209 3.15609 60.5385 2.96984 60.6194C2.78359 60.7003 2.58297 60.7429 2.37992 60.7447Z" fill="white"/>
<path d="M9.05241 59.3172H10.6174V58.8597H9.05241V57.6397H10.8399V57.1647H8.52741V61.1722H10.8874V60.6947H9.05241V59.3172Z" fill="white"/>
<path d="M16.4074 57.1648L14.7599 61.1648H15.2949L15.7499 60.0473H17.5599L18.0074 61.1648H18.5599L16.9049 57.1648H16.4074ZM17.3699 59.5948H15.9324L16.2574 58.7797C16.3974 58.4372 16.5299 58.0997 16.6499 57.7797H16.6624C16.7849 58.1072 16.9124 58.4497 17.0424 58.7797L17.3699 59.5948Z" fill="white"/>
<path d="M10.3399 55.8647H9.78241L9.35741 56.7722H9.73241L10.3399 55.8647Z" fill="white"/>
<path d="M18.1949 57.6397H19.5374V61.1722H20.0649V57.6397H21.4074V57.1647H18.1949V57.6397Z" fill="white"/>
<path d="M84.4174 59.3172H85.9824V58.8597H84.4174V57.6397H86.2049V57.1647H83.8899V61.1722H86.2524V60.6947H84.4174V59.3172Z" fill="white"/>
<path d="M77.0949 59.3172H78.6599V58.8597H77.0949V57.6397H78.8824V57.1647H76.5699V61.1722H78.9324V60.6947H77.0949V59.3172Z" fill="white"/>
<path d="M73.6374 57.4897C73.2034 57.2542 72.7132 57.1418 72.2199 57.1648H71.1199V61.1648H72.0874C72.7799 61.1648 73.3124 61.0597 73.7374 60.7622C73.9907 60.5773 74.1955 60.3338 74.3344 60.0526C74.4732 59.7714 74.542 59.4608 74.5349 59.1472C74.5438 58.8158 74.4656 58.4879 74.3081 58.1962C74.1506 57.9044 73.9194 57.6591 73.6374 57.4848M73.3624 60.4247C72.9988 60.6264 72.5847 60.7184 72.1699 60.6897H71.6449V57.6397H72.1599C72.581 57.6107 73.0012 57.7073 73.3674 57.9172C73.5671 58.0602 73.7299 58.2488 73.8422 58.4673C73.9545 58.6858 74.0131 58.9279 74.0131 59.1735C74.0131 59.4191 73.9545 59.6612 73.8422 59.8797C73.7299 60.0982 73.5671 60.2868 73.3674 60.4298" fill="white"/>
<path d="M74.9874 58.5547H75.3249L75.7774 57.0672H75.2924L74.9874 58.5547Z" fill="white"/>
<path d="M89.1824 59.2397C89.3439 59.1428 89.4766 59.0046 89.5671 58.8394C89.6576 58.6743 89.7026 58.488 89.6974 58.2997C89.7032 58.1073 89.6544 57.9171 89.5566 57.7512C89.4589 57.5853 89.3161 57.4504 89.1449 57.3622C88.7941 57.2035 88.4089 57.1356 88.0249 57.1647H86.9424V61.1648H87.4674V59.4497H88.1474L89.3699 61.1648H90.0074L88.7224 59.3998C88.8855 59.377 89.0421 59.3208 89.1824 59.2347M87.4674 59.0197V57.6397H87.9874C88.2798 57.6128 88.5743 57.6583 88.8449 57.7722C88.9471 57.8275 89.0318 57.91 89.0897 58.0107C89.1475 58.1114 89.1762 58.2262 89.1724 58.3422C89.1749 58.4397 89.1534 58.5363 89.1098 58.6234C89.0662 58.7106 89.0019 58.7858 88.9224 58.8422C88.6876 58.987 88.412 59.0511 88.1374 59.0247L87.4674 59.0197Z" fill="white"/>
<path d="M82.4874 59.1798C82.4874 59.5648 82.4874 59.9697 82.4874 60.3172C82.2599 59.9997 82.0274 59.6848 81.7949 59.3823L80.1174 57.1573H79.6174V61.1573H80.1174V59.1447C80.1174 58.7572 80.1174 58.3522 80.1174 58.0047C80.3449 58.3197 80.5774 58.6348 80.8099 58.9373L82.4874 61.1623H82.9874V57.1622H82.4874V59.1798Z" fill="white"/>
<path d="M39.5949 57.4897C39.1608 57.2544 38.6707 57.142 38.1774 57.1648H37.0774V61.1648H38.0449C38.7349 61.1648 39.2674 61.0598 39.6949 60.7623C39.9477 60.577 40.1521 60.3335 40.2905 60.0523C40.4289 59.7711 40.4973 59.4606 40.4899 59.1473C40.4993 58.816 40.4216 58.4882 40.2645 58.1964C40.1075 57.9047 39.8766 57.6593 39.5949 57.4848M39.3099 60.4298C38.9474 60.6317 38.5339 60.7238 38.1199 60.6948H37.5949V57.6398H38.1074C38.5285 57.6104 38.9489 57.707 39.3149 57.9172C39.5147 58.0602 39.6774 58.2488 39.7897 58.4673C39.902 58.6858 39.9605 58.9279 39.9605 59.1735C39.9605 59.4191 39.902 59.6612 39.7897 59.8797C39.6774 60.0982 39.5147 60.2868 39.3149 60.4298" fill="white"/>
<path d="M96.5299 60.6947V59.3172H98.0949V58.8597H96.5299V57.6397H98.3174V57.1647H96.0049V61.1722H98.3674V60.6947H96.5299Z" fill="white"/>
<path d="M95.1074 57.1647H94.5824V61.1697H95.1074V57.1647Z" fill="white"/>
<path d="M92.3374 59.6323H93.2349V60.5672C92.9805 60.6944 92.6993 60.7587 92.4149 60.7547C92.2071 60.7559 92.0011 60.7161 91.8086 60.6376C91.6162 60.5592 91.4411 60.4436 91.2934 60.2974C91.1456 60.1513 91.0281 59.9775 90.9475 59.7859C90.8669 59.5944 90.8248 59.3888 90.8237 59.181C90.8225 58.9732 90.8623 58.7672 90.9408 58.5747C91.0192 58.3823 91.1348 58.2072 91.281 58.0594C91.4271 57.9117 91.6009 57.7941 91.7925 57.7136C91.984 57.633 92.1896 57.5909 92.3974 57.5897C92.8528 57.588 93.2946 57.7444 93.6474 58.0323V57.4347C93.276 57.2148 92.8515 57.1007 92.4199 57.1047C92.1423 57.0927 91.8652 57.1378 91.6058 57.2373C91.3464 57.3367 91.1102 57.4885 90.9119 57.6831C90.7136 57.8776 90.5574 58.1109 90.4529 58.3683C90.3485 58.6258 90.2981 58.902 90.3049 59.1798C90.2975 59.4532 90.3463 59.7253 90.4483 59.9791C90.5502 60.233 90.7032 60.4632 90.8977 60.6556C91.0922 60.848 91.3241 60.9984 91.579 61.0976C91.834 61.1968 92.1066 61.2426 92.3799 61.2323C92.872 61.2352 93.3542 61.0944 93.7674 60.8273V59.1747H92.3474L92.3374 59.6323Z" fill="white"/>
<path d="M49.6299 59.3172H51.1974V58.8597H49.6299V57.6397H51.4174V57.1647H49.1049V61.1722H51.4674V60.6947H49.6299V59.3172Z" fill="white"/>
<path d="M53.4349 58.9073C52.9349 58.7698 52.4824 58.6872 52.4824 58.1872C52.4824 57.7772 52.7974 57.5847 53.2324 57.5847C53.6475 57.5934 54.0512 57.7219 54.3949 57.9547V57.4022C54.0452 57.2019 53.648 57.0991 53.2449 57.1047C52.4624 57.1047 51.9499 57.5122 51.9499 58.2222C51.9499 58.9322 52.4974 59.1848 53.0624 59.3448C53.5874 59.4948 54.0624 59.5823 54.0624 60.0948C54.0624 60.5323 53.7249 60.7472 53.2499 60.7472C52.8201 60.7411 52.4027 60.6023 52.0549 60.3497V60.9247C52.42 61.1238 52.8291 61.2286 53.2449 61.2297C54.0449 61.2297 54.5824 60.7972 54.5824 60.0672C54.5824 59.3372 54.0074 59.0672 53.4274 58.9047" fill="white"/>
<path d="M69.1649 57.1648H68.5799L67.9699 58.0447C67.8324 58.2422 67.6874 58.4598 67.5399 58.6873C67.3949 58.4648 67.2499 58.2547 67.1074 58.0497L66.4924 57.1648H65.8674L67.1849 59.0473L65.6849 61.1698H66.2774L67.0574 60.0597C67.2074 59.8472 67.3549 59.6272 67.4999 59.4122C67.6449 59.6272 67.7949 59.8472 67.9549 60.0747L68.7224 61.1698H69.3549L67.8549 59.0473L69.1649 57.1648Z" fill="white"/>
<path d="M41.6674 59.3172H43.2324V58.8597H41.6674V57.6397H43.4549V57.1647H41.1424V61.1722H43.5049V60.6947H41.6674V59.3172Z" fill="white"/>
<path d="M47.7724 59.2398C47.9339 59.1428 48.0666 59.0046 48.1571 58.8395C48.2476 58.6743 48.2926 58.488 48.2874 58.2997C48.2926 58.1074 48.2436 57.9174 48.1459 57.7516C48.0481 57.5858 47.9057 57.4509 47.7349 57.3622C47.3849 57.2037 47.0006 57.1358 46.6174 57.1648H45.5324V61.1648H46.0599V59.4497H46.7399L47.9624 61.1648H48.5999L47.3099 59.4048C47.473 59.382 47.6296 59.3259 47.7699 59.2398M46.0549 59.0248V57.6398H46.5749C46.8673 57.6128 47.1618 57.6583 47.4324 57.7723C47.5346 57.8275 47.6193 57.91 47.6772 58.0107C47.735 58.1114 47.7637 58.2262 47.7599 58.3423C47.7631 58.4398 47.7418 58.5366 47.6982 58.6239C47.6545 58.7112 47.5898 58.7862 47.5099 58.8423C47.2756 58.9881 46.9995 59.0523 46.7249 59.0248H46.0549Z" fill="white"/>
<path d="M64.7724 59.2397C64.8026 59.5852 64.7513 59.9328 64.6224 60.2547C64.5288 60.417 64.3902 60.5486 64.2234 60.6338C64.0566 60.719 63.8687 60.754 63.6824 60.7348C63.4945 60.7528 63.3054 60.7173 63.1368 60.6323C62.9683 60.5474 62.8272 60.4165 62.7299 60.2547C62.5991 59.9263 62.5461 59.5721 62.5749 59.2198V57.1648H62.0599V59.2847C62.0211 59.7418 62.113 60.2004 62.3249 60.6072C62.4785 60.8161 62.6823 60.9828 62.9174 61.092C63.1524 61.2012 63.4113 61.2495 63.6699 61.2323C63.9304 61.25 64.1912 61.2021 64.4284 61.0929C64.6656 60.9837 64.8715 60.8167 65.0274 60.6072C65.2574 60.2522 65.2924 59.8047 65.2924 59.2222V57.1648H64.7924L64.7724 59.2397Z" fill="white"/>
<path d="M59.5374 57.1648L57.8899 61.1648H58.4249L58.8799 60.0473H60.6824L61.1324 61.1648H61.6949L60.0399 57.1648H59.5374ZM60.4999 59.5948H59.0599L59.3849 58.7797C59.5249 58.4372 59.6574 58.0997 59.7799 57.7797C59.9024 58.1072 60.0299 58.4497 60.1624 58.7797L60.4999 59.5948Z" fill="white"/>
<path d="M55.7849 59.3172H57.3499V58.8597H55.7849V57.6397H57.5724V57.1647H55.2599V61.1722H57.6224V60.6947H55.7849V59.3172Z" fill="white"/>
<path d="M29.8849 18.0175H33.4925V14.41H29.8849V18.0175ZM8.67995 32.8075C8.67995 30.6813 9.31043 28.6029 10.4917 26.8351C11.6729 25.0673 13.3518 23.6894 15.3161 22.8758C17.2804 22.0621 19.4419 21.8492 21.5272 22.264C23.6125 22.6788 25.5279 23.7027 27.0313 25.2061C28.5348 26.7095 29.5586 28.6249 29.9734 30.7102C30.3882 32.7955 30.1753 34.957 29.3617 36.9213C28.548 38.8856 27.1702 40.5645 25.4023 41.7458C23.6345 42.927 21.5561 43.5575 19.43 43.5575C16.5789 43.5575 13.8446 42.4249 11.8286 40.4089C9.81254 38.3928 8.67995 35.6585 8.67995 32.8075ZM49.1375 20.99H52.3699C58.6199 20.99 60.845 22.4225 60.845 25.76C60.845 29.31 58.1425 30.5275 53.375 30.5275H49.125L49.1375 20.99ZM37.0999 13.6275V18.0225H33.4925V21.63H29.8849V18.025H24.475V14.305C20.2814 13.1573 15.8225 13.4675 11.8283 15.1848C7.83409 16.902 4.54128 19.9245 2.48904 23.7574C0.436796 27.5903 -0.253257 32.0064 0.531868 36.2826C1.31699 40.5588 3.53077 44.4418 6.81071 47.2957C10.0906 50.1496 14.2424 51.8052 18.5861 51.9916C22.9298 52.178 27.2081 50.884 30.7205 48.3216C34.2328 45.7591 36.771 42.0801 37.9196 37.8868C39.0681 33.6935 38.7588 29.2345 37.0424 25.24H38.91V21.625H37.0999V18.025H40.7124V51.99H49.1375V36.84H52.8999L62.59 51.99H72.285L61.4799 35.78C66.5675 34.1375 69.2675 30.1125 69.2675 25.185C69.2675 16.02 61.4799 13.6375 52.7399 13.6375L37.0999 13.6275ZM74.3999 13.6275V51.99H98.3674V44.62H82.825V35.5075H95.9624V28.5075H82.825V20.99H98.3674V13.63L74.3999 13.6275ZM25.9125 12.8H30.3299V8.38746H25.9125V12.8ZM33.9799 10.5925H37.5874V6.98996H33.9799V10.5925ZM38.685 5.71496H41.06V3.33496H38.685V5.71496Z" fill="white"/>
<path d="M52.3326 1.12978L48.8101 9.80729H50.7651L51.4701 7.98478H54.9701L55.6651 9.80729H57.7026L54.1801 1.12978H52.3326ZM52.0601 6.48978L52.4076 5.56728C52.6826 4.83728 52.9951 3.97478 53.2226 3.31728H53.2476C53.4751 3.97728 53.7851 4.83979 54.0376 5.52229L54.3976 6.49228L52.0601 6.48978Z" fill="white"/>
<path d="M62.4951 6.77479H63.9951V8.07979C63.6555 8.21085 63.294 8.27618 62.9301 8.27229C61.1426 8.27229 60.0626 7.00228 60.0626 5.49228C60.0626 3.98228 61.1901 2.71229 62.9401 2.71229C63.8812 2.73332 64.7949 3.03352 65.5651 3.57478V1.65728C64.7514 1.21679 63.8403 0.987298 62.9151 0.989785C60.1451 0.989785 58.1651 2.92979 58.1651 5.48979C58.1651 8.04979 60.1201 9.92228 62.9001 9.92228C63.9262 9.92576 64.9378 9.67951 65.8476 9.20479V5.19228H62.4951V6.77479Z" fill="white"/>
<path d="M69.4601 6.08228H72.4326V4.49978H69.4601V2.79728H72.9126V1.13228H67.5526V9.80728H73.0426V8.14228H69.4601V6.08228Z" fill="white"/>
<path d="M80.9776 4.35479C80.9776 5.19479 80.9901 6.03229 81.0026 6.85479L80.9776 6.86728C80.4376 6.11728 79.9126 5.37978 79.3476 4.61728L76.7476 1.11728H74.9501V9.79478H76.7826V6.56979C76.7826 5.73229 76.7826 4.89479 76.7601 4.06979L76.7826 4.05729C77.3226 4.80729 77.8501 5.54229 78.4126 6.30729L81.0151 9.80729H82.8101V1.12978H80.9751L80.9776 4.35479Z" fill="white"/>
<path d="M86.0201 5.45478C86.0201 3.88728 87.1701 2.70478 88.8501 2.70478C89.7048 2.71835 90.5374 2.97882 91.2476 3.45478V1.52728C90.4944 1.17039 89.6709 0.98673 88.8376 0.989784C86.0451 0.989784 84.1151 2.95478 84.1151 5.46978C84.1151 7.98478 86.0451 9.92728 88.8376 9.92728C89.7175 9.93876 90.5877 9.74262 91.3776 9.35478V7.40978C90.6587 7.9206 89.8018 8.2013 88.9201 8.21478C87.1351 8.21478 86.0201 6.99229 86.0201 5.44479" fill="white"/>
<path d="M94.7851 8.14228V6.08228H97.7551V4.49978H94.7851V2.79728H98.2351V1.13228H92.8776V9.80728H98.3676V8.14228H94.7851Z" fill="white"/>
</svg>
