<svg width="172" height="80" viewBox="0 0 172 80" fill="none" xmlns="http://www.w3.org/2000/svg">
<path d="M14.0916 66.7444C14.0916 68.0981 14.6293 69.3965 15.5866 70.3537C16.5439 71.311 17.8422 71.8487 19.196 71.8487H155.449V39.7126H14.0916V66.7444Z" fill="#1A5270"/>
<path d="M169.084 52.0622C168.749 47.9564 165.889 42.2529 163.061 39.2813C158.164 34.2088 149.425 28.705 132.706 28.705C116.554 28.705 106.402 1.89697 61.2129 1.89697C27.0159 1.89697 2.44448 23.4089 2.44448 49.9454C2.44051 53.1535 3.08765 56.329 4.34674 59.2797C5.60584 62.2304 7.45068 64.8949 9.76956 67.1118C10.3565 67.7074 11.1155 68.1037 11.9397 68.2449C12.7638 68.3861 13.6115 68.2651 14.3633 67.899C15.115 67.5328 15.7328 66.9399 16.1297 66.204C16.5266 65.468 16.6825 64.626 16.5754 63.7968C16.2066 60.8356 16.5189 57.8294 17.4885 55.0073C18.4582 52.1852 20.0596 49.6219 22.1705 47.5128C24.2815 45.4037 26.8463 43.8047 29.6692 42.8375C32.4922 41.8704 35.4987 41.5608 38.4595 41.9323C41.4203 42.3038 44.2571 43.3466 46.7536 44.9812C49.2501 46.6158 51.3403 48.799 52.8648 51.3642C54.3892 53.9294 55.3077 56.809 55.55 59.7831C55.7924 62.7573 55.3523 65.7475 54.2633 68.5257C54.0288 69.1069 53.9417 69.7371 54.0097 70.3601C54.0776 70.9832 54.2985 71.5798 54.6527 72.0968C55.0069 72.6138 55.4833 73.0353 56.0398 73.3237C56.5962 73.6122 57.2153 73.7586 57.8419 73.7499H110.987C111.802 73.7541 112.606 73.5679 113.337 73.2061C114.067 72.8442 114.703 72.3168 115.193 71.6659C115.683 71.0149 116.015 70.2584 116.161 69.4567C116.307 68.6549 116.264 67.8301 116.035 67.0479C115.135 64.0583 114.962 60.8969 115.53 57.8268C116.099 54.7568 117.393 51.8671 119.305 49.3985C121.217 46.9299 123.69 44.9539 126.521 43.6351C129.351 42.3163 132.455 41.6928 135.575 41.8167C138.694 41.9406 141.74 42.8082 144.456 44.3473C147.173 45.8863 149.482 48.0523 151.192 50.6646C152.902 53.277 153.963 56.2602 154.287 59.3657C154.61 62.4712 154.187 65.609 153.052 68.5177C152.846 69.0378 152.797 69.6066 152.91 70.1544C153.022 70.7023 153.292 71.2053 153.686 71.6021C154.081 71.9988 154.582 72.272 155.129 72.3882C155.676 72.5043 156.245 72.4585 156.767 72.2562C160.703 70.6414 164.021 67.8116 166.237 64.1791C168.453 60.5466 169.45 56.3014 169.084 52.0622Z" fill="#439CCC"/>
<path d="M84.9265 40.2346C84.5793 39.9218 84.1328 39.9218 83.7856 40.2346C78.5277 45.448 74.8571 52.2255 74.8571 56.2398C74.8571 62.8087 78.7757 66.6667 84.3809 66.6667C89.986 66.6667 93.9047 62.8087 93.9047 56.2398C93.9047 52.1733 90.1844 45.448 84.9265 40.2346ZM84.3809 64.4007C81.5535 64.4007 79.619 62.4717 79.619 59.6565C79.619 58.9787 79.8174 56.737 83.736 52.2013C84.0832 51.8363 84.6289 51.8363 84.9761 52.2013C88.8948 56.737 89.1428 58.9787 89.1428 59.6565C89.1428 62.4717 87.1586 64.4007 84.3809 64.4007Z" fill="white"/>
<path d="M36.0502 78.1034C45.3016 78.1034 52.8013 70.6037 52.8013 61.3524C52.8013 52.101 45.3016 44.6013 36.0502 44.6013C26.7989 44.6013 19.2992 52.101 19.2992 61.3524C19.2992 70.6037 26.7989 78.1034 36.0502 78.1034Z" fill="#141446"/>
<path d="M36.0504 69.7082C40.665 69.7082 44.4059 65.9673 44.4059 61.3526C44.4059 56.738 40.665 52.9971 36.0504 52.9971C31.4357 52.9971 27.6948 56.738 27.6948 61.3526C27.6948 65.9673 31.4357 69.7082 36.0504 69.7082Z" fill="#9FCBE9"/>
<path d="M134.791 78.1034C144.042 78.1034 151.542 70.6037 151.542 61.3524C151.542 52.101 144.042 44.6013 134.791 44.6013C125.539 44.6013 118.04 52.101 118.04 61.3524C118.04 70.6037 125.539 78.1034 134.791 78.1034Z" fill="#141446"/>
<path d="M134.791 69.7082C139.406 69.7082 143.147 65.9673 143.147 61.3526C143.147 56.738 139.406 52.9971 134.791 52.9971C130.176 52.9971 126.436 56.738 126.436 61.3526C126.436 65.9673 130.176 69.7082 134.791 69.7082Z" fill="#9FCBE9"/>
<path d="M7.02175 44.6972C6.87346 44.6962 6.72708 44.6637 6.59231 44.6018C6.45754 44.54 6.33746 44.4502 6.24002 44.3384C6.14259 44.2266 6.07002 44.0954 6.02713 43.9534C5.98425 43.8114 5.97203 43.662 5.99127 43.515C6.27086 41.3342 7.30133 39.7126 8.5315 39.7126C9.76166 39.7126 10.7921 41.3102 11.0717 43.515C11.091 43.662 11.0787 43.8114 11.0358 43.9534C10.993 44.0954 10.9204 44.2266 10.823 44.3384C10.7255 44.4502 10.6055 44.54 10.4707 44.6018C10.3359 44.6637 10.1895 44.6962 10.0412 44.6972H7.02175Z" fill="#EB674C"/>
<path d="M156.831 48.7856C156.46 48.7873 156.096 48.6839 155.781 48.4872C155.466 48.2906 155.214 48.0088 155.052 47.6744C154.891 47.3401 154.828 46.9669 154.87 46.598C154.912 46.2292 155.057 45.8798 155.29 45.5903C155.758 45.0326 156.343 44.5842 157.004 44.2766C157.664 43.969 158.384 43.8096 159.112 43.8096C159.84 43.8096 160.56 43.969 161.22 44.2766C161.881 44.5842 162.466 45.0326 162.934 45.5903C163.167 45.8798 163.312 46.2292 163.354 46.598C163.396 46.9669 163.333 47.3401 163.172 47.6744C163.01 48.0088 162.758 48.2906 162.443 48.4872C162.128 48.6839 161.764 48.7873 161.393 48.7856H156.831Z" fill="#FDCC44"/>
<path d="M25.594 31.1172H55.5653C57.3449 31.1172 59.0517 30.4103 60.31 29.1519C61.5684 27.8936 62.2753 26.1869 62.2753 24.4072V13.8949C62.2787 12.941 62.0782 11.9973 61.6872 11.1272C61.2962 10.2571 60.7237 9.48059 60.0082 8.84974C59.2926 8.21889 58.4504 7.74826 57.5382 7.4694C56.6259 7.19054 55.6646 7.10989 54.7186 7.23284C40.2442 9.19791 29.2366 16.491 22.3668 22.5061C21.6146 23.1637 21.0808 24.0351 20.8366 25.0039C20.5924 25.9727 20.6494 26.993 21.0001 27.9286C21.3507 28.8642 21.9783 29.6706 22.7991 30.2403C23.6198 30.81 24.5948 31.116 25.594 31.1172Z" fill="#9FCBE9"/>
<path d="M76.4625 7.76805C89.8425 9.81301 104.261 16.8186 110.012 24.4712C110.469 25.095 110.744 25.8334 110.806 26.6041C110.868 27.3748 110.715 28.1476 110.364 28.8365C110.013 29.5254 109.478 30.1033 108.818 30.506C108.158 30.9087 107.399 31.1203 106.625 31.1173H73.6586C72.4277 31.1173 71.2473 30.6283 70.3769 29.7579C69.5065 28.8876 69.0175 27.7071 69.0175 26.4762V13.4556C68.9776 9.4775 72.5323 7.16895 76.4625 7.76805Z" fill="#9FCBE9"/>
<path d="M106.729 25.5498C106.728 25.3551 106.772 25.1627 106.858 24.988C106.944 24.8133 107.07 24.6611 107.225 24.5432C107.38 24.4254 107.56 24.3453 107.751 24.3093C107.943 24.2732 108.14 24.2822 108.327 24.3356C110.851 25.0226 114.574 26.9876 114.574 29.3121C114.574 31.6367 110.851 33.6097 108.327 34.2967C108.14 34.35 107.943 34.3591 107.751 34.323C107.56 34.287 107.38 34.2068 107.225 34.089C107.07 33.9712 106.944 33.8189 106.858 33.6442C106.772 33.4695 106.728 33.2772 106.729 33.0825V25.5498Z" fill="#1A5270"/>
</svg>
