<svg width="172" height="80" viewBox="0 0 172 80" fill="none" xmlns="http://www.w3.org/2000/svg">
<path d="M14.0913 66.7444C14.0913 68.0981 14.6291 69.3965 15.5864 70.3537C16.5436 71.311 17.8419 71.8487 19.1957 71.8487H155.449V39.7126H14.0913V66.7444Z" fill="#1A5270"/>
<path d="M169.084 52.0622C168.749 47.9564 165.889 42.2529 163.061 39.2813C158.164 34.2088 149.425 28.705 132.706 28.705C116.554 28.705 106.401 1.89697 61.2128 1.89697C27.0157 1.89697 2.44435 23.4089 2.44435 49.9454C2.44039 53.1535 3.08753 56.329 4.34662 59.2797C5.60571 62.2304 7.45056 64.8949 9.76944 67.1118C10.3564 67.7074 11.1154 68.1037 11.9396 68.2449C12.7637 68.3861 13.6114 68.2651 14.3631 67.899C15.1149 67.5328 15.7327 66.9399 16.1296 66.204C16.5265 65.468 16.6824 64.626 16.5753 63.7968C16.2064 60.8356 16.5188 57.8294 17.4884 55.0073C18.4581 52.1852 20.0595 49.6219 22.1704 47.5128C24.2814 45.4037 26.8462 43.8047 29.6691 42.8375C32.4921 41.8704 35.4986 41.5608 38.4594 41.9323C41.4202 42.3038 44.257 43.3466 46.7535 44.9812C49.25 46.6158 51.3402 48.799 52.8646 51.3642C54.3891 53.9294 55.3075 56.809 55.5499 59.7831C55.7923 62.7573 55.3521 65.7475 54.2631 68.5257C54.0287 69.1069 53.9416 69.7371 54.0095 70.3601C54.0775 70.9832 54.2984 71.5798 54.6525 72.0968C55.0067 72.6138 55.4832 73.0353 56.0396 73.3237C56.5961 73.6122 57.2152 73.7586 57.8418 73.7499H110.987C111.802 73.7541 112.606 73.5679 113.337 73.2061C114.067 72.8442 114.702 72.3168 115.193 71.6659C115.683 71.0149 116.015 70.2584 116.161 69.4567C116.307 68.6549 116.264 67.8301 116.035 67.0479C115.135 64.0583 114.961 60.8969 115.53 57.8268C116.099 54.7568 117.393 51.8671 119.305 49.3985C121.216 46.9299 123.69 44.9539 126.52 43.6351C129.35 42.3163 132.455 41.6928 135.575 41.8167C138.694 41.9406 141.739 42.8082 144.456 44.3473C147.173 45.8863 149.482 48.0523 151.192 50.6646C152.902 53.277 153.963 56.2602 154.286 59.3657C154.61 62.4712 154.187 65.609 153.052 68.5177C152.846 69.0378 152.797 69.6066 152.909 70.1544C153.022 70.7023 153.292 71.2053 153.686 71.6021C154.08 71.9988 154.582 72.272 155.129 72.3882C155.676 72.5043 156.245 72.4585 156.766 72.2562C160.703 70.6414 164.021 67.8116 166.237 64.1791C168.452 60.5466 169.45 56.3014 169.084 52.0622Z" fill="#439CCC"/>
<path d="M73.9916 52.0579H78.6544C79.1956 52.0579 79.6952 52.4374 79.8617 52.9434C80.0698 53.4915 79.945 54.0817 79.5286 54.4612L68.8709 63.9056C68.3713 64.2851 67.7052 64.3272 67.2056 63.9478C66.7061 63.6105 66.4979 62.9359 66.7477 62.3456L69.9533 54.7563H65.2906C64.7494 54.7563 64.2498 54.419 64.0833 53.9131C63.8751 53.365 64 52.7747 64.4163 52.3952L75.074 42.9508C75.5736 42.5714 76.2397 42.5292 76.7393 42.9087C77.2389 43.246 77.447 43.9206 77.1973 44.5109L73.9916 52.0579Z" fill="white"/>
<path d="M86.1019 44.5414C86.1019 43.0671 87.2814 41.8455 88.7979 41.8455H95.5378C97.0122 41.8455 98.2338 43.0671 98.2338 44.5414V52.6294H98.5708C100.593 52.6294 102.278 54.3144 102.278 56.3364V57.6844C102.278 58.2741 102.699 58.6954 103.289 58.6954C103.836 58.6954 104.3 58.2741 104.3 57.6844V51.1972C103.12 50.9023 102.278 49.8492 102.278 48.5854V45.8894L100.93 44.5414C100.551 44.2044 100.551 43.5726 100.93 43.1935C101.267 42.8565 101.899 42.8565 102.278 43.1935L105.521 46.4792C106.027 46.9847 106.322 47.6587 106.322 48.3748V57.6844C106.322 59.3693 104.932 60.7173 103.289 60.7173C101.604 60.7173 100.256 59.3693 100.256 57.6844V56.3364C100.256 55.4096 99.4976 54.6514 98.5708 54.6514H98.2338V60.7173C98.9499 60.7173 99.5818 61.3492 99.5818 62.0653C99.5818 62.8236 98.9499 63.4133 98.2338 63.4133H86.1019C85.3437 63.4133 84.7539 62.8236 84.7539 62.0653C84.7539 61.3492 85.3437 60.7173 86.1019 60.7173V44.5414ZM88.7979 49.2594C88.7979 49.6385 89.0928 49.9334 89.4719 49.9334H94.8638C95.2008 49.9334 95.5378 49.6385 95.5378 49.2594V45.2154C95.5378 44.8784 95.2008 44.5414 94.8638 44.5414H89.4719C89.0928 44.5414 88.7979 44.8784 88.7979 45.2154V49.2594Z" fill="white"/>
<path d="M36.0499 78.1034C45.3012 78.1034 52.8009 70.6037 52.8009 61.3524C52.8009 52.101 45.3012 44.6013 36.0499 44.6013C26.7985 44.6013 19.2988 52.101 19.2988 61.3524C19.2988 70.6037 26.7985 78.1034 36.0499 78.1034Z" fill="#141446"/>
<path d="M36.0499 69.7082C40.6645 69.7082 44.4054 65.9673 44.4054 61.3526C44.4054 56.738 40.6645 52.9971 36.0499 52.9971C31.4352 52.9971 27.6943 56.738 27.6943 61.3526C27.6943 65.9673 31.4352 69.7082 36.0499 69.7082Z" fill="#9FCBE9"/>
<path d="M134.791 78.1034C144.042 78.1034 151.542 70.6037 151.542 61.3524C151.542 52.101 144.042 44.6013 134.791 44.6013C125.539 44.6013 118.04 52.101 118.04 61.3524C118.04 70.6037 125.539 78.1034 134.791 78.1034Z" fill="#141446"/>
<path d="M134.791 69.7082C139.405 69.7082 143.146 65.9673 143.146 61.3526C143.146 56.738 139.405 52.9971 134.791 52.9971C130.176 52.9971 126.435 56.738 126.435 61.3526C126.435 65.9673 130.176 69.7082 134.791 69.7082Z" fill="#9FCBE9"/>
<path d="M7.02175 44.6972C6.87346 44.6962 6.72708 44.6637 6.59231 44.6018C6.45754 44.54 6.33746 44.4502 6.24002 44.3384C6.14259 44.2266 6.07002 44.0954 6.02713 43.9534C5.98425 43.8114 5.97203 43.662 5.99127 43.515C6.27086 41.3342 7.30133 39.7126 8.5315 39.7126C9.76166 39.7126 10.7921 41.3102 11.0717 43.515C11.091 43.662 11.0787 43.8114 11.0358 43.9534C10.993 44.0954 10.9204 44.2266 10.823 44.3384C10.7255 44.4502 10.6055 44.54 10.4707 44.6018C10.3359 44.6637 10.1895 44.6962 10.0412 44.6972H7.02175Z" fill="#EB674C"/>
<path d="M156.831 48.7856C156.46 48.7873 156.096 48.6839 155.781 48.4872C155.466 48.2906 155.214 48.0088 155.052 47.6744C154.891 47.3401 154.828 46.9669 154.87 46.598C154.912 46.2292 155.057 45.8798 155.29 45.5903C155.758 45.0326 156.343 44.5842 157.004 44.2766C157.664 43.969 158.384 43.8096 159.112 43.8096C159.84 43.8096 160.56 43.969 161.22 44.2766C161.881 44.5842 162.466 45.0326 162.934 45.5903C163.167 45.8798 163.312 46.2292 163.354 46.598C163.396 46.9669 163.333 47.3401 163.172 47.6744C163.01 48.0088 162.758 48.2906 162.443 48.4872C162.128 48.6839 161.764 48.7873 161.393 48.7856H156.831Z" fill="#FDCC44"/>
<path d="M25.5939 31.1172H55.5652C57.3448 31.1172 59.0515 30.4103 60.3099 29.1519C61.5683 27.8936 62.2752 26.1869 62.2752 24.4072V13.8949C62.2786 12.941 62.0781 11.9973 61.6871 11.1272C61.2961 10.2571 60.7236 9.48059 60.008 8.84974C59.2925 8.21889 58.4503 7.74826 57.5381 7.4694C56.6258 7.19054 55.6645 7.10989 54.7185 7.23284C40.244 9.19791 29.2364 16.491 22.3667 22.5061C21.6145 23.1637 21.0807 24.0351 20.8365 25.0039C20.5923 25.9727 20.6493 26.993 20.9999 27.9286C21.3506 28.8642 21.9781 29.6706 22.7989 30.2403C23.6197 30.81 24.5947 31.116 25.5939 31.1172Z" fill="#9FCBE9"/>
<path d="M76.4623 7.76805C89.8424 9.81301 104.261 16.8186 110.012 24.4712C110.469 25.095 110.744 25.8334 110.806 26.6041C110.868 27.3748 110.715 28.1476 110.364 28.8365C110.013 29.5254 109.478 30.1033 108.818 30.506C108.157 30.9087 107.399 31.1203 106.625 31.1173H73.6585C72.4276 31.1173 71.2471 30.6283 70.3768 29.7579C69.5064 28.8876 69.0174 27.7071 69.0174 26.4762V13.4556C68.9775 9.4775 72.5322 7.16895 76.4623 7.76805Z" fill="#9FCBE9"/>
<path d="M106.729 25.5498C106.728 25.3551 106.772 25.1627 106.858 24.988C106.944 24.8133 107.069 24.6611 107.224 24.5432C107.379 24.4254 107.56 24.3453 107.751 24.3093C107.942 24.2732 108.139 24.2822 108.327 24.3356C110.851 25.0226 114.573 26.9876 114.573 29.3121C114.573 31.6367 110.851 33.6097 108.327 34.2967C108.139 34.35 107.942 34.3591 107.751 34.323C107.56 34.287 107.379 34.2068 107.224 34.089C107.069 33.9712 106.944 33.8189 106.858 33.6442C106.772 33.4695 106.728 33.2772 106.729 33.0825V25.5498Z" fill="#1A5270"/>
</svg>
