<svg width="860" height="341" viewBox="0 0 860 341" fill="none" xmlns="http://www.w3.org/2000/svg">
<path d="M469.667 185.382C475.77 185.382 480.717 190.329 480.717 196.432V224.057C480.717 245.416 498.032 262.732 519.392 262.732C540.752 262.732 558.067 245.416 558.067 224.057V112.333H528.6V224.057C528.6 229.142 524.478 233.265 519.392 233.265C514.306 233.265 510.184 229.142 510.184 224.057V196.432C510.184 174.055 492.044 155.915 469.667 155.915V185.382Z" fill="#E9E9F1"/>
<path d="M299.667 57.3684C299.667 32.3314 319.963 12.035 345 12.035H424.334C449.371 12.035 469.667 32.3315 469.667 57.3684V284.035H299.667V57.3684Z" fill="#E9E9F1"/>
<path fill-rule="evenodd" clip-rule="evenodd" d="M422.747 192.343H396.947L414.684 151.099C416.066 147.873 414.915 144.187 412.15 142.343C409.386 140.27 405.7 140.5 402.936 142.574L343.964 194.187C341.661 196.26 340.97 199.486 342.121 202.482C343.043 205.247 345.807 207.09 348.802 207.09H374.602L356.864 248.564C355.482 251.79 356.634 255.477 359.398 257.32C362.163 259.394 365.848 259.164 368.613 257.09L427.584 205.477C429.888 203.403 430.579 200.177 429.427 197.182C428.506 194.417 425.741 192.343 422.747 192.343Z" fill="white"/>
<path d="M348.541 116.868C343.362 116.868 339.333 112.84 339.333 107.66V52.41C339.333 47.8058 343.362 43.2017 348.541 43.2017H422.208C426.812 43.2017 431.416 47.8058 431.416 52.41V107.66C431.416 112.84 426.812 116.868 422.208 116.868H348.541Z" fill="white"/>
<rect x="277" y="284.035" width="215.333" height="45.3333" rx="22.6667" fill="#E9E9F1"/>
<path d="M566 39.6025C566 36.8959 563.971 34.7017 561.467 34.7017C558.963 34.7017 556.934 36.8959 556.934 39.6025V68.7017H566V39.6025Z" fill="#E9E9F1"/>
<path d="M529.734 39.6025C529.734 36.8959 527.704 34.7017 525.2 34.7017C522.697 34.7017 520.667 36.8959 520.667 39.6025V68.7017H529.734V39.6025Z" fill="#E9E9F1"/>
<path d="M509.333 68.7017H577.333V97.035C577.333 115.813 562.111 131.035 543.333 131.035C524.555 131.035 509.333 115.813 509.333 97.035V68.7017Z" fill="#E9E9F1"/>
</svg>
