<svg width="972" height="368" viewBox="0 0 972 368" fill="none" xmlns="http://www.w3.org/2000/svg">
<path d="M194.212 330.619L194.972 330.779H195.748H927.761C947.551 330.779 963.594 314.735 963.594 294.945V122.303C963.594 99.3829 945.014 80.8027 922.094 80.8027H123.094C106.434 80.8027 92.9277 94.3088 92.9277 110.969V275.707C92.9277 295.35 106.699 312.303 125.926 316.327L194.212 330.619Z" fill="#E9E9F1" stroke="white" stroke-width="15"/>
<path d="M202.4 297.676C202.4 272.639 222.697 252.343 247.734 252.343H361.008C386.045 252.343 406.342 272.639 406.342 297.676V323.279H202.4V297.676Z" fill="white"/>
<path d="M118.164 78.7012V88.3022H229.002L217.551 73.0345C212.2 65.9 203.802 61.7012 194.884 61.7012H135.164C125.775 61.7012 118.164 69.3123 118.164 78.7012Z" fill="#E9E9F1"/>
<rect x="268.9" y="75.002" width="101.971" height="13.3005" fill="#E9E9F1"/>
<path d="M845.257 114.903H956.094V270.074C921.343 270.074 879.588 241.126 856.588 219.423C848.871 212.142 845.257 201.764 845.257 191.154V114.903Z" fill="white"/>
<path d="M149.197 114.903H805.356V212.44H149.197V114.903Z" fill="#E9E9F1"/>
<path d="M149.197 114.903H268.902V212.44H149.197V114.903Z" fill="white"/>
<path d="M277.769 114.903H397.473V212.44H277.769V114.903Z" fill="white"/>
<path d="M406.339 114.903H526.044V212.44H406.339V114.903Z" fill="white"/>
<path d="M534.913 114.903H654.618V212.44H534.913V114.903Z" fill="white"/>
<path d="M663.483 114.903H783.188V212.44H663.483V114.903Z" fill="white"/>
<path d="M938.361 278.942H956.095V298.893C949.002 298.893 941.317 295.937 938.361 294.46V278.942Z" fill="white"/>
<path d="M100.428 230.174H118.162V265.642C118.162 275.436 110.222 283.376 100.428 283.376V230.174Z" fill="white"/>
<path d="M348.696 329.865C362.129 329.865 373.019 318.975 373.019 305.541C373.019 292.108 362.129 281.218 348.696 281.218C335.262 281.218 324.372 292.108 324.372 305.541C324.372 318.975 335.262 329.865 348.696 329.865Z" fill="white"/>
<path d="M260.021 329.865C273.454 329.865 284.344 318.975 284.344 305.541C284.344 292.108 273.454 281.218 260.021 281.218C246.587 281.218 235.697 292.108 235.697 305.541C235.697 318.975 246.587 329.865 260.021 329.865Z" fill="white"/>
<path d="M815.02 359.313C844.715 359.313 868.788 335.24 868.788 305.544C868.788 275.848 844.715 251.775 815.02 251.775C785.324 251.775 761.251 275.848 761.251 305.544C761.251 335.24 785.324 359.313 815.02 359.313Z" fill="#E9E9F1" stroke="white" stroke-width="10"/>
<path d="M815.012 329.866C828.446 329.866 839.336 318.976 839.336 305.542C839.336 292.109 828.446 281.219 815.012 281.219C801.579 281.219 790.688 292.109 790.688 305.542C790.688 318.976 801.579 329.866 815.012 329.866Z" fill="white"/>
<path d="M65.4268 260.537H115.783C106.875 272.357 101.972 286.827 101.957 301.805L101.95 309.312H109.457H136.269H143.763L143.769 301.819C143.775 294.743 146.582 287.962 151.569 282.964C154.741 279.786 158.629 277.493 162.852 276.244V283.178V290.678H170.352H194.438C196.056 294.151 196.904 297.95 196.905 301.814L196.907 309.312H204.405H231.216H238.726L238.716 301.803C238.711 298.069 238.4 294.349 237.788 290.678H482.596V326.701V334.201H490.096H587.096H594.596V326.701V290.678H649.147V322.907V330.407H656.647H711.925H715.295L717.533 327.888L730.953 312.778L732.846 310.647V307.797V242.993C733.676 242.369 734.463 241.685 735.2 240.947L729.89 235.65L735.2 240.947C737.238 238.904 738.853 236.481 739.955 233.814C741.057 231.148 741.624 228.291 741.624 225.405V176.64C741.624 176.314 741.615 175.989 741.596 175.665V172.162C741.596 164.651 736.761 158.871 730.518 156.313L717.608 80.0932C717.607 80.0911 717.607 80.0889 717.607 80.0867C716.859 75.631 714.562 71.5835 711.12 68.6595C707.675 65.7334 703.304 64.1208 698.782 64.114H698.77H696.032L688.031 46.6199L687.909 46.3525L687.766 46.0956C685.199 41.4771 681.447 37.629 676.894 34.95C672.343 32.2718 667.158 30.86 661.878 30.8629C661.877 30.8629 661.876 30.8629 661.876 30.8629H556.851C551.871 30.8629 547.096 32.8447 543.577 36.371C540.059 39.8968 538.088 44.675 538.088 49.6508V65.7361C536.113 66.6322 534.296 67.8833 532.734 69.4486C532.667 69.5159 532.452 69.732 532.183 70.0032L532.124 70.0628L532.118 70.0573L532.001 70.1725C531.089 71.0673 529.617 72.5119 528.394 74.1602C527.715 75.0753 526.873 76.3631 526.26 77.957V37.8402C526.26 30.1253 523.607 22.5504 518.627 16.8182C513.618 11.0527 506.579 7.56696 498.975 7.56696H92.7123V7.53711H85.2123C77.608 7.53711 70.5692 11.0229 65.5601 16.7884C60.58 22.5205 57.9268 30.0955 57.9268 37.8104V253.037V260.537H65.4268Z" fill="#E9E9F1" stroke="white" stroke-width="15"/>
<rect x="110.763" y="264.034" width="11.3333" height="22.6667" rx="5.66667" fill="white"/>
<path d="M622.902 359.862C651.893 359.862 675.375 336.311 675.375 307.282C675.375 278.253 651.893 254.701 622.902 254.701C593.911 254.701 570.428 278.253 570.428 307.282C570.428 336.311 593.911 359.862 622.902 359.862Z" fill="#E9E9F1" stroke="white" stroke-width="10"/>
<path d="M622.887 330.846C635.964 330.846 646.565 320.221 646.565 307.115C646.565 294.009 635.964 283.384 622.887 283.384C609.81 283.384 599.209 294.009 599.209 307.115C599.209 320.221 609.81 330.846 622.887 330.846Z" fill="white"/>
<path d="M268.64 354.695C294.859 354.695 316.114 333.393 316.114 307.115C316.114 280.837 294.859 259.534 268.64 259.534C242.421 259.534 221.166 280.837 221.166 307.115C221.166 333.393 242.421 354.695 268.64 354.695Z" fill="#E9E9F1"/>
<path d="M268.64 330.846C281.717 330.846 292.318 320.221 292.318 307.115C292.318 294.009 281.717 283.384 268.64 283.384C255.563 283.384 244.962 294.009 244.962 307.115C244.962 320.221 255.563 330.846 268.64 330.846Z" fill="white"/>
<path d="M170.351 354.695C196.57 354.695 217.825 333.393 217.825 307.115C217.825 280.837 196.57 259.534 170.351 259.534C144.132 259.534 122.877 280.837 122.877 307.115C122.877 333.393 144.132 354.695 170.351 354.695Z" fill="#E9E9F1"/>
<path d="M170.351 330.846C183.428 330.846 194.028 320.221 194.028 307.115C194.028 294.009 183.428 283.384 170.351 283.384C157.274 283.384 146.673 294.009 146.673 307.115C146.673 320.221 157.274 330.846 170.351 330.846Z" fill="white"/>
<path d="M726.912 302.017L711.748 307.143V281.575H726.765C727.902 281.575 728.992 282.028 729.796 282.834C730.6 283.639 731.052 284.732 731.052 285.872V296.27C731.072 297.547 730.68 298.797 729.935 299.833C729.189 300.869 728.128 301.634 726.912 302.017Z" fill="white"/>
<path d="M463.368 269.698H358.824C353.267 269.698 348.763 273.94 348.763 279.173V299.89C348.763 305.123 353.267 309.365 358.824 309.365H463.368C468.925 309.365 473.429 305.123 473.429 299.89V279.173C473.429 273.94 468.925 269.698 463.368 269.698Z" fill="#E9E9F1"/>
<path d="M498.93 309.365C509.884 309.365 518.763 300.485 518.763 289.532C518.763 278.578 509.884 269.698 498.93 269.698C487.976 269.698 479.097 278.578 479.097 289.532C479.097 300.485 487.976 309.365 498.93 309.365Z" fill="#E9E9F1"/>
<path d="M600.906 92.3682H561.287C559.709 92.3682 558.43 93.5235 558.43 94.9487V140.788C558.43 142.213 559.709 143.368 561.287 143.368H600.906C602.484 143.368 603.763 142.213 603.763 140.788V94.9487C603.763 93.5235 602.484 92.3682 600.906 92.3682Z" fill="white"/>
<path d="M700.096 166.035H637.763V98.0348C637.763 94.9052 640.3 92.3682 643.429 92.3682H681.733C684.464 92.3682 686.807 94.3167 687.305 97.0024L700.096 166.035Z" fill="white"/>
<path d="M49.6475 323.265C49.6475 327.293 51.2474 331.155 54.0952 334.003C56.9431 336.851 60.8056 338.451 64.8331 338.451H470.186V242.846H49.6475V323.265Z" fill="white"/>
<path d="M498.268 236.392L498.249 236.372L498.231 236.353C482.166 219.711 454.179 202.598 402.529 202.598C392.679 202.598 383.269 198.545 371.97 191.318C366.341 187.718 360.483 183.492 353.968 178.794L353.949 178.78C347.482 174.116 340.441 169.039 332.694 163.952C301.388 143.393 258.819 122.844 189.836 122.844C85.2861 122.844 7.50288 188.985 7.50005 273.283C7.48763 283.841 9.61758 294.291 13.7611 304.001C17.892 313.682 23.9385 322.427 31.5365 329.709C34.3727 332.551 38.0224 334.443 41.9817 335.121C45.9811 335.806 50.0948 335.219 53.7427 333.442C57.3907 331.665 60.389 328.788 62.315 325.217C64.2379 321.651 64.995 317.572 64.4803 313.554C63.5269 305.883 64.3371 298.095 66.8491 290.784C69.3627 283.469 73.5139 276.824 78.986 271.357C84.4581 265.889 91.1067 261.744 98.4245 259.237C105.742 256.73 113.536 255.927 121.211 256.89C128.886 257.854 136.24 260.557 142.711 264.794C149.183 269.031 154.601 274.691 158.553 281.34C162.505 287.99 164.886 295.454 165.514 303.164C166.141 310.864 165.004 318.605 162.189 325.799C161.042 328.663 160.616 331.767 160.951 334.835C161.287 337.917 162.38 340.869 164.132 343.427C165.884 345.985 168.242 348.07 170.995 349.497C173.73 350.915 176.772 351.639 179.852 351.606H337.898C341.483 351.621 345.022 350.8 348.234 349.209C351.453 347.614 354.255 345.289 356.417 342.419C358.579 339.549 360.04 336.214 360.685 332.68C361.33 329.145 361.14 325.509 360.13 322.061L360.122 322.033L360.114 322.005C357.779 314.255 357.33 306.059 358.805 298.101C360.279 290.143 363.634 282.652 368.589 276.253C373.545 269.854 379.958 264.731 387.294 261.313C394.63 257.894 402.677 256.278 410.765 256.599C418.852 256.92 426.746 259.169 433.788 263.159C440.83 267.148 446.816 272.763 451.249 279.535C455.682 286.307 458.432 294.04 459.271 302.09C460.109 310.135 459.014 318.264 456.076 325.8C454.934 328.699 454.66 331.868 455.287 334.92C455.916 337.979 457.423 340.788 459.624 343.003C461.825 345.218 464.624 346.743 467.678 347.391C470.733 348.04 473.91 347.784 476.821 346.654L476.888 346.628L476.954 346.601C490.144 341.191 501.261 331.71 508.685 319.539C516.105 307.374 519.448 293.159 518.227 278.962C517.624 271.612 514.859 263.394 511.334 256.06C507.79 248.684 503.15 241.523 498.268 236.392Z" fill="#E9E9F1" stroke="white" stroke-width="15"/>
<path d="M262.362 235.493C261.177 234.437 259.654 234.437 258.469 235.493C240.526 253.088 228 275.962 228 289.511C228 311.681 241.372 324.701 260.5 324.701C279.628 324.701 293 311.681 293 289.511C293 275.786 280.305 253.088 262.362 235.493ZM260.5 317.053C250.852 317.053 244.25 310.543 244.25 301.042C244.25 298.754 244.927 291.188 258.299 275.88C259.484 274.649 261.346 274.649 262.531 275.88C275.904 291.188 276.75 298.754 276.75 301.042C276.75 310.543 269.979 317.053 260.5 317.053Z" fill="white"/>
<path d="M114.977 362.057C145.261 362.057 169.811 337.507 169.811 307.223C169.811 276.939 145.261 252.389 114.977 252.389C84.6928 252.389 60.1426 276.939 60.1426 307.223C60.1426 337.507 84.6927 362.057 114.977 362.057Z" fill="#E9E9F1" stroke="white" stroke-width="10"/>
<path d="M114.977 332.081C128.705 332.081 139.835 320.952 139.835 307.223C139.835 293.494 128.705 282.365 114.977 282.365C101.248 282.365 90.1191 293.494 90.1191 307.223C90.1191 320.952 101.248 332.081 114.977 332.081Z" fill="white"/>
<path d="M408.73 362.057C439.014 362.057 463.564 337.507 463.564 307.223C463.564 276.939 439.014 252.389 408.73 252.389C378.446 252.389 353.896 276.939 353.896 307.223C353.896 337.507 378.446 362.057 408.73 362.057Z" fill="#E9E9F1" stroke="white" stroke-width="10"/>
<path d="M408.731 332.081C422.459 332.081 433.589 320.952 433.589 307.223C433.589 293.494 422.459 282.365 408.731 282.365C395.002 282.365 383.873 293.494 383.873 307.223C383.873 320.952 395.002 332.081 408.731 332.081Z" fill="white"/>
<path d="M28.6174 257.675C28.1762 257.672 27.7407 257.575 27.3398 257.391C26.9389 257.207 26.5816 256.94 26.2918 256.607C26.0019 256.275 25.786 255.884 25.6584 255.462C25.5308 255.04 25.4945 254.595 25.5517 254.158C26.3835 247.67 29.4491 242.846 33.1089 242.846C36.7686 242.846 39.8342 247.599 40.666 254.158C40.7233 254.595 40.6869 255.04 40.5593 255.462C40.4317 255.884 40.2159 256.275 39.926 256.607C39.6361 256.94 39.2789 257.207 38.878 257.391C38.477 257.575 38.0415 257.672 37.6004 257.675H28.6174Z" fill="white"/>
<path d="M474.302 269.838C473.197 269.843 472.114 269.535 471.177 268.95C470.24 268.365 469.489 267.527 469.009 266.532C468.529 265.537 468.34 264.427 468.465 263.33C468.59 262.233 469.024 261.193 469.715 260.332C471.109 258.673 472.85 257.339 474.814 256.424C476.778 255.508 478.919 255.034 481.086 255.034C483.254 255.034 485.394 255.508 487.359 256.424C489.323 257.339 491.064 258.673 492.458 260.332C493.149 261.193 493.582 262.233 493.708 263.33C493.833 264.427 493.644 265.537 493.164 266.532C492.684 267.527 491.932 268.365 490.996 268.95C490.059 269.535 488.976 269.843 487.871 269.838H474.302Z" fill="white"/>
<path d="M83.8699 217.275H173.035C178.329 217.275 183.406 215.172 187.15 211.428C190.894 207.685 192.997 202.607 192.997 197.313V166.038C193.007 163.201 192.41 160.393 191.247 157.805C190.084 155.216 188.381 152.906 186.252 151.029C184.123 149.152 181.618 147.752 178.904 146.923C176.19 146.093 173.33 145.853 170.516 146.219C127.454 152.065 94.7065 173.762 74.269 191.657C72.0312 193.613 70.4431 196.205 69.7167 199.088C68.9902 201.97 69.1598 205.005 70.2029 207.789C71.2461 210.572 73.1131 212.971 75.5549 214.666C77.9968 216.361 80.8974 217.271 83.8699 217.275Z" fill="white"/>
<path d="M235.203 147.81C275.009 153.894 317.904 174.735 335.015 197.502C336.374 199.357 337.191 201.554 337.376 203.847C337.56 206.14 337.105 208.439 336.061 210.488C335.016 212.538 333.424 214.257 331.46 215.455C329.496 216.653 327.239 217.283 324.938 217.274H226.862C223.2 217.274 219.688 215.819 217.099 213.23C214.509 210.64 213.055 207.128 213.055 203.467V164.73C212.936 152.895 223.511 146.028 235.203 147.81Z" fill="white"/>
</svg>
