<svg width="94" height="56" viewBox="0 0 94 56" fill="none" xmlns="http://www.w3.org/2000/svg">
<path d="M27.2588 29.9892C28.0857 29.9892 28.7561 30.6596 28.7561 31.4865V35.2298C28.7561 38.1241 31.1024 40.4704 33.9967 40.4704C36.8911 40.4704 39.2374 38.1241 39.2374 35.2298V20.0909H35.2445V35.2298C35.2445 35.9189 34.6859 36.4776 33.9967 36.4776C33.3076 36.4776 32.749 35.9189 32.749 35.2298V31.4865C32.749 28.4544 30.2909 25.9963 27.2588 25.9963V29.9892Z" fill="white" stroke="#98B5E1"/>
<path d="M4.22314 10.5C4.22314 8.29086 6.01401 6.5 8.22314 6.5H23.2589C25.468 6.5 27.2589 8.29086 27.2589 10.5V43.3571H4.22314V10.5Z" fill="white" stroke="#98B5E1"/>
<path fill-rule="evenodd" clip-rule="evenodd" d="M20.2525 31.047H17.0421L19.2492 25.7982C19.4212 25.3876 19.2779 24.9185 18.9339 24.6839C18.59 24.42 18.1313 24.4493 17.7874 24.7132L10.4493 31.2816C10.1626 31.5455 10.0766 31.956 10.2199 32.3372C10.3346 32.6891 10.6786 32.9237 11.0512 32.9237H14.2616L12.0545 38.2018C11.8825 38.6124 12.0258 39.0815 12.3698 39.3161C12.7137 39.58 13.1724 39.5507 13.5164 39.2868L20.8545 32.7184C21.1411 32.4545 21.2271 32.044 21.0838 31.6628C20.9691 31.3109 20.6251 31.047 20.2525 31.047Z" fill="#98B5E1"/>
<path d="M10.8459 20.7053C10.144 20.7053 9.59814 20.1594 9.59814 19.4576V11.971C9.59814 11.3471 10.144 10.7232 10.8459 10.7232H20.8281C21.4519 10.7232 22.0758 11.3471 22.0758 11.971V19.4576C22.0758 20.1594 21.4519 20.7053 20.8281 20.7053H10.8459Z" fill="white" stroke="#98B5E1"/>
<rect x="1.15186" y="43.3571" width="29.1786" height="6.14286" rx="3.07143" fill="white" stroke="#98B5E1"/>
<path d="M40.3128 10.2355C40.3128 9.86876 40.0378 9.57144 39.6985 9.57144C39.3592 9.57144 39.0842 9.86876 39.0842 10.2355V14.1786H40.3128V10.2355Z" fill="#98B5E1"/>
<path d="M35.3985 10.2355C35.3985 9.86876 35.1235 9.57144 34.7842 9.57144C34.4449 9.57144 34.1699 9.86876 34.1699 10.2355V14.1786H35.3985V10.2355Z" fill="#98B5E1"/>
<path d="M33.1338 14.6786H41.3481V18.0178C41.3481 20.2862 39.5092 22.125 37.2409 22.125C34.9726 22.125 33.1338 20.2862 33.1338 18.0178V14.6786Z" fill="white" stroke="#98B5E1"/>
<path d="M91.8481 48H51.8481" stroke="#98B5E1" stroke-width="2" stroke-linecap="round"/>
<path d="M91.8481 38H51.8481" stroke="#98B5E1" stroke-linecap="round"/>
<path d="M91.8481 28L51.8481 28" stroke="#98B5E1" stroke-linecap="round"/>
<path d="M91.8481 18L51.8481 18" stroke="#98B5E1" stroke-linecap="round"/>
<path d="M91.8481 8L51.8481 8" stroke="#98B5E1" stroke-linecap="round"/>
<path d="M51.8481 8V48M51.8481 8L55.8481 12M51.8481 8L47.8481 12" stroke="#141446" stroke-width="3" stroke-linecap="round" stroke-linejoin="round"/>
<path d="M61.8481 8V48" stroke="#98B5E1" stroke-linecap="round"/>
<path d="M71.8481 8V48" stroke="#98B5E1" stroke-linecap="round"/>
<path d="M81.8481 8V48" stroke="#98B5E1" stroke-linecap="round"/>
<path d="M91.8481 8V48" stroke="#98B5E1" stroke-linecap="round"/>
</svg>
