<svg width="133" height="56" viewBox="0 0 133 56" fill="none" xmlns="http://www.w3.org/2000/svg">
<path d="M77.5743 27.655C78.9312 29.081 80.3035 31.8179 80.4645 33.7881C80.6401 35.8224 80.1614 37.8595 79.0982 39.6026C78.5524 40.4972 77.8674 41.2904 77.0744 41.9554C75.5784 43.2099 73.5493 43.4785 71.5969 43.4785H69.5318L10.1201 43.0815C7.19516 43.0815 4.83135 41.7004 4.01506 41.0099C2.90231 39.9461 2.01703 38.6675 1.41284 37.2516C0.808646 35.8356 0.498104 34.3118 0.500009 32.7723C0.500009 20.0384 12.2909 9.71561 28.7009 9.71561C50.3853 9.71561 55.2573 22.5798 63.0081 22.5798C71.031 22.5798 75.2245 25.2209 77.5743 27.655Z" fill="white" stroke="#98B5E1"/>
<path d="M34.1257 32.6711H36.7934C37.103 32.6711 37.3888 32.8963 37.4841 33.1965C37.6032 33.5217 37.5317 33.8719 37.2935 34.097L31.1961 39.7004C30.9102 39.9256 30.5292 39.9506 30.2433 39.7255C29.9575 39.5253 29.8384 39.1251 29.9813 38.7749L31.8153 34.2721H29.1477C28.8381 34.2721 28.5522 34.072 28.457 33.7718C28.3379 33.4466 28.4093 33.0964 28.6475 32.8713L34.745 27.2678C35.0308 27.0427 35.4119 27.0177 35.6977 27.2428C35.9835 27.4429 36.1026 27.8432 35.9597 28.1934L34.1257 32.6711Z" fill="#98B5E1"/>
<path d="M41.0259 28.5712C41.0259 27.7589 41.6757 27.0859 42.5111 27.0859H46.2244C47.0367 27.0859 47.7097 27.7589 47.7097 28.5712V33.0271H47.8953C49.0093 33.0271 49.9376 33.9554 49.9376 35.0693V35.812C49.9376 36.1369 50.1697 36.369 50.4946 36.369C50.7963 36.369 51.0516 36.1369 51.0516 35.812V32.238C50.4018 32.0755 49.9376 31.4953 49.9376 30.7991V29.3138L49.195 28.5712C48.9861 28.3855 48.9861 28.0374 49.195 27.8285C49.3806 27.6429 49.7288 27.6429 49.9376 27.8285L51.7246 29.6387C52.0031 29.9172 52.1656 30.2885 52.1656 30.6831V35.812C52.1656 36.7403 51.3997 37.4829 50.4946 37.4829C49.5663 37.4829 48.8236 36.7403 48.8236 35.812V35.0693C48.8236 34.5588 48.4059 34.141 47.8953 34.141H47.7097V37.4829C48.1042 37.4829 48.4523 37.8311 48.4523 38.2256C48.4523 38.6433 48.1042 38.9682 47.7097 38.9682H41.0259C40.6081 38.9682 40.2832 38.6433 40.2832 38.2256C40.2832 37.8311 40.6081 37.4829 41.0259 37.4829V28.5712ZM42.5111 31.1704C42.5111 31.3793 42.6736 31.5418 42.8825 31.5418H45.8531C46.0387 31.5418 46.2244 31.3793 46.2244 31.1704V28.9425C46.2244 28.7568 46.0387 28.5712 45.8531 28.5712H42.8825C42.6736 28.5712 42.5111 28.7568 42.5111 28.9425V31.1704Z" fill="#98B5E1"/>
<path d="M16.6261 46.2843C21.0655 46.2843 24.6644 42.6854 24.6644 38.2461C24.6644 33.8067 21.0655 30.2078 16.6261 30.2078C12.1867 30.2078 8.58789 33.8067 8.58789 38.2461C8.58789 42.6854 12.1867 46.2843 16.6261 46.2843Z" fill="white" stroke="#98B5E1"/>
<path d="M16.6262 42.2557C18.8406 42.2557 20.6358 40.4605 20.6358 38.2461C20.6358 36.0317 18.8406 34.2366 16.6262 34.2366C14.4118 34.2366 12.6167 36.0317 12.6167 38.2461C12.6167 40.4605 14.4118 42.2557 16.6262 42.2557Z" fill="white" stroke="#98B5E1"/>
<path d="M64.0084 46.2843C68.4478 46.2843 72.0467 42.6854 72.0467 38.2461C72.0467 33.8067 68.4478 30.2078 64.0084 30.2078C59.5691 30.2078 55.9702 33.8067 55.9702 38.2461C55.9702 42.6854 59.5691 46.2843 64.0084 46.2843Z" fill="white" stroke="#98B5E1"/>
<path d="M64.0081 42.2557C66.2225 42.2557 68.0176 40.4605 68.0176 38.2461C68.0176 36.0317 66.2225 34.2366 64.0081 34.2366C61.7937 34.2366 59.9985 36.0317 59.9985 38.2461C59.9985 40.4605 61.7937 42.2557 64.0081 42.2557Z" fill="white" stroke="#98B5E1"/>
<path d="M2.69649 30.254C2.62533 30.2535 2.55509 30.2379 2.49042 30.2082C2.42575 30.1785 2.36812 30.1354 2.32137 30.0818C2.27461 30.0281 2.23979 29.9652 2.21921 29.897C2.19863 29.8289 2.19277 29.7572 2.202 29.6867C2.33616 28.6402 2.83065 27.8621 3.42096 27.8621C4.01128 27.8621 4.50576 28.6287 4.63992 29.6867C4.64916 29.7572 4.64329 29.8289 4.62271 29.897C4.60213 29.9652 4.56732 30.0281 4.52056 30.0818C4.4738 30.1354 4.41618 30.1785 4.35151 30.2082C4.28684 30.2379 4.2166 30.2535 4.14544 30.254H2.69649Z" fill="white" stroke="#98B5E1"/>
<path d="M73.9523 31.8178C73.7742 31.8186 73.5995 31.769 73.4484 31.6746C73.2973 31.5803 73.176 31.445 73.0986 31.2846C73.0212 31.1241 72.9908 30.945 73.0109 30.7681C73.0311 30.5911 73.101 30.4234 73.2125 30.2845C73.4374 30.0169 73.7181 29.8017 74.035 29.6541C74.3518 29.5065 74.6972 29.43 75.0467 29.43C75.3963 29.43 75.7416 29.5065 76.0585 29.6541C76.3753 29.8017 76.656 30.0169 76.8809 30.2845C76.9924 30.4234 77.0623 30.5911 77.0825 30.7681C77.1027 30.945 77.0723 31.1241 76.9949 31.2846C76.9174 31.445 76.7962 31.5803 76.6451 31.6746C76.494 31.769 76.3192 31.8186 76.1411 31.8178H73.9523Z" fill="white" stroke="#98B5E1"/>
<path d="M11.6088 23.7376H25.991C26.8449 23.7376 27.6639 23.3983 28.2678 22.7945C28.8716 22.1906 29.2109 21.3716 29.2109 20.5177V15.4732C29.2125 15.0154 29.1163 14.5626 28.9286 14.145C28.741 13.7275 28.4663 13.3549 28.1229 13.0522C27.7795 12.7494 27.3754 12.5236 26.9377 12.3898C26.4999 12.256 26.0386 12.2173 25.5847 12.2763C18.6389 13.2192 13.3567 16.719 10.0602 19.6054C9.69921 19.9209 9.44307 20.3391 9.32589 20.804C9.20871 21.2689 9.23607 21.7585 9.40432 22.2074C9.57258 22.6564 9.87373 23.0434 10.2676 23.3168C10.6615 23.5901 11.1293 23.7369 11.6088 23.7376Z" fill="white" stroke="#98B5E1"/>
<path d="M36.0185 12.5329C42.4391 13.5142 49.3581 16.8759 52.118 20.5482C52.3372 20.8475 52.469 21.2018 52.4988 21.5716C52.5286 21.9415 52.4552 22.3123 52.2867 22.6429C52.1183 22.9735 51.8614 23.2508 51.5446 23.4441C51.2279 23.6373 50.8637 23.7388 50.4927 23.7374H34.6731C34.0824 23.7374 33.5159 23.5027 33.0983 23.0851C32.6806 22.6674 32.446 22.101 32.446 21.5103V15.2622C32.4268 13.3532 34.1326 12.2454 36.0185 12.5329Z" fill="white" stroke="#98B5E1"/>
<path d="M130.5 48H90.5" stroke="#98B5E1" stroke-width="2" stroke-linecap="round"/>
<path d="M130.5 38H90.5" stroke="#98B5E1" stroke-linecap="round"/>
<path d="M130.5 28L90.5 28" stroke="#98B5E1" stroke-linecap="round"/>
<path d="M130.5 18L90.5 18" stroke="#98B5E1" stroke-linecap="round"/>
<path d="M130.5 8L90.5 8" stroke="#98B5E1" stroke-linecap="round"/>
<path d="M100.5 8V48" stroke="#98B5E1" stroke-linecap="round"/>
<path d="M110.5 8V48" stroke="#98B5E1" stroke-linecap="round"/>
<path d="M120.5 8V48" stroke="#98B5E1" stroke-linecap="round"/>
<path d="M130.5 8V48" stroke="#98B5E1" stroke-linecap="round"/>
<path d="M130.5 48H90.5M130.5 48L126.5 52M130.5 48L126.5 44" stroke="#141446" stroke-width="3" stroke-linecap="round" stroke-linejoin="round"/>
</svg>
