<svg width="60" height="60" viewBox="0 0 60 60" fill="none" xmlns="http://www.w3.org/2000/svg">
<path d="M37 32.5906C38.077 32.5906 38.95 33.4636 38.95 34.5406V39.4156C38.95 43.1849 42.0057 46.2406 45.775 46.2406C49.5443 46.2406 52.6 43.1849 52.6 39.4156V19.6997H47.4V39.4156C47.4 40.313 46.6725 41.0406 45.775 41.0406C44.8775 41.0406 44.15 40.313 44.15 39.4156V34.5406C44.15 30.5917 40.9488 27.3906 37 27.3906V32.5906Z" fill="#141446"/>
<path d="M7 10C7 5.58172 10.5817 2 15 2H29C33.4183 2 37 5.58172 37 10V50H7V10Z" fill="#FDCC44"/>
<path d="M22.8724 25.1672C22.6354 24.9443 22.3307 24.9443 22.0938 25.1672C18.5052 28.8817 16 33.7107 16 36.5709C16 41.2512 18.6745 44 22.5 44C26.3255 44 29 41.2512 29 36.5709C29 33.6735 26.4609 28.8817 22.8724 25.1672ZM22.5 42.3855C20.5703 42.3855 19.25 41.0111 19.25 39.0052C19.25 38.5223 19.3854 36.9251 22.0599 33.6934C22.2969 33.4334 22.6693 33.4334 22.9063 33.6934C25.5807 36.9251 25.75 38.5223 25.75 39.0052C25.75 41.0111 24.3958 42.3855 22.5 42.3855Z" fill="white"/>
<path d="M15.625 20.5C14.7109 20.5 14 19.7891 14 18.875V9.125C14 8.3125 14.7109 7.5 15.625 7.5H28.625C29.4375 7.5 30.25 8.3125 30.25 9.125V18.875C30.25 19.7891 29.4375 20.5 28.625 20.5H15.625Z" fill="#8A6D1C"/>
<rect x="3" y="50" width="38" height="8" rx="4" fill="#8A6D1C"/>
<path d="M54 6.86486C54 6.38721 53.6418 6 53.2 6C52.7582 6 52.4 6.38721 52.4 6.86486V12H54V6.86486Z" fill="#8A6D1C"/>
<path d="M47.6 6.86486C47.6 6.38721 47.2418 6 46.8 6C46.3582 6 46 6.38721 46 6.86486V12H47.6V6.86486Z" fill="#8A6D1C"/>
<path d="M44 12H56V17C56 20.3137 53.3137 23 50 23C46.6863 23 44 20.3137 44 17V12Z" fill="#FDCC44"/>
</svg>
