<svg width="150" height="60" viewBox="0 0 150 60" fill="none" xmlns="http://www.w3.org/2000/svg">
<path d="M82 32.5906C83.077 32.5906 83.95 33.4636 83.95 34.5406V39.4156C83.95 43.1849 87.0057 46.2406 90.775 46.2406C94.5443 46.2406 97.6 43.1849 97.6 39.4156V19.6997H92.4V39.4156C92.4 40.313 91.6725 41.0406 90.775 41.0406C89.8775 41.0406 89.15 40.313 89.15 39.4156V34.5406C89.15 30.5917 85.9488 27.3906 82 27.3906V32.5906Z" fill="#141446"/>
<path d="M52 10C52 5.58172 55.5817 2 60 2H74C78.4183 2 82 5.58172 82 10V50H52V10Z" fill="#FDCC44"/>
<path fill-rule="evenodd" clip-rule="evenodd" d="M73.7201 33.8192H69.1671L72.2973 26.5408C72.5412 25.9716 72.3379 25.321 71.8501 24.9957C71.3623 24.6297 70.7119 24.6704 70.224 25.0364L59.8173 34.1445C59.4108 34.5105 59.2888 35.0797 59.4921 35.6083C59.6547 36.0963 60.1425 36.4216 60.671 36.4216H65.2239L62.0938 43.7406C61.8498 44.3099 62.0531 44.9605 62.5409 45.2857C63.0287 45.6517 63.6792 45.611 64.167 45.2451L74.5737 36.1369C74.9803 35.771 75.1022 35.2017 74.899 34.6731C74.7363 34.1852 74.2485 33.8192 73.7201 33.8192Z" fill="white"/>
<path d="M60.625 20.5C59.7109 20.5 59 19.7891 59 18.875V9.125C59 8.3125 59.7109 7.5 60.625 7.5H73.625C74.4375 7.5 75.25 8.3125 75.25 9.125V18.875C75.25 19.7891 74.4375 20.5 73.625 20.5H60.625Z" fill="#8A6D1C"/>
<rect x="48" y="50" width="38" height="8" rx="4" fill="#8A6D1C"/>
<path d="M99 6.86486C99 6.38721 98.6418 6 98.2 6C97.7582 6 97.4 6.38721 97.4 6.86486V12H99V6.86486Z" fill="#8A6D1C"/>
<path d="M92.6 6.86486C92.6 6.38721 92.2418 6 91.8 6C91.3582 6 91 6.38721 91 6.86486V12H92.6V6.86486Z" fill="#8A6D1C"/>
<path d="M89 12H101V17C101 20.3137 98.3137 23 95 23C91.6863 23 89 20.3137 89 17V12Z" fill="#FDCC44"/>
</svg>
